<svg xmlns="http://www.w3.org/2000/svg" width="90" height="90" viewBox="0 0 90 90"><rect width="90" height="90" fill="none"/><g transform="translate(5 5)"><rect width="81" height="81" fill="none"/><g transform="translate(8.649 2.518)"><g transform="translate(0 45.146)"><path d="M657.6,436.867H637.844a1.164,1.164,0,0,1-1.162-1.162v-4.167a10.7,10.7,0,0,0-21.4,0v4.167a1.164,1.164,0,0,1-1.162,1.162H594.36a1.164,1.164,0,0,1-1.161-1.162V410.371a1.164,1.164,0,0,1,1.161-1.161h63.257a1.166,1.166,0,0,1,1.162,1.161v25.335A1.179,1.179,0,0,1,657.6,436.867Z" transform="translate(-593.197 -409.209)" fill="#0fd77e"/><path d="M657.606,436.869H637.847a1.165,1.165,0,0,1-1.162-1.162V431.54a10.7,10.7,0,0,0-21.4,0v4.167a1.164,1.164,0,0,1-1.162,1.162H594.361a1.164,1.164,0,0,1-1.161-1.162V410.371a1.164,1.164,0,0,1,1.161-1.161h63.261a1.166,1.166,0,0,1,1.162,1.161v25.336A1.179,1.179,0,0,1,657.606,436.869Zm-18.6-2.323h17.437V411.533H595.507v23.013h17.438V431.54a13.025,13.025,0,0,1,26.049,0v3.006Z" transform="translate(-593.2 -409.21)" fill="#070707"/></g><g transform="translate(7.753 25.385)"><path d="M617.209,415.306H599.574a1.039,1.039,0,0,1-1.034-1.037V396.636a1.038,1.038,0,0,1,1.034-1.036h17.635a1.041,1.041,0,0,1,1.037,1.036V414.27A1.024,1.024,0,0,1,617.209,415.306Z" transform="translate(-597.351 -394.412)" fill="#cff7e5"/><path d="M619.461,417.683H599.7a1.164,1.164,0,0,1-1.159-1.162V396.761A1.164,1.164,0,0,1,599.7,395.6h19.762a1.166,1.166,0,0,1,1.162,1.161v19.761A1.148,1.148,0,0,1,619.461,417.683Zm-18.585-2.323h17.438V397.923H600.877Z" transform="translate(-598.54 -395.6)" fill="#070707"/></g><g transform="translate(36.561 25.385)"><path d="M617.09,415.18H599.568a1.032,1.032,0,0,1-1.028-1.03V396.629a1.032,1.032,0,0,1,1.028-1.029H617.09a1.034,1.034,0,0,1,1.031,1.029V414.15A1.018,1.018,0,0,1,617.09,415.18Z" transform="translate(-597.289 -394.349)" fill="#cff7e5"/><path d="M619.461,417.683H599.7a1.164,1.164,0,0,1-1.159-1.162V396.761A1.164,1.164,0,0,1,599.7,395.6h19.762a1.166,1.166,0,0,1,1.162,1.161v19.761A1.148,1.148,0,0,1,619.461,417.683Zm-18.585-2.323h17.438V397.923H600.877Z" transform="translate(-598.54 -395.6)" fill="#070707"/></g><g transform="translate(7.767)"><path d="M7.871,18.308,25.057,1.093,42.244,18.308Z" fill="#cff7e5"/><path d="M646.488,398.436H599.671a1.044,1.044,0,0,1-1.121-.937v-6.533a1.044,1.044,0,0,1,1.121-.936h46.817a1.042,1.042,0,0,1,1.118.936V397.5A1.042,1.042,0,0,1,646.488,398.436Z" transform="translate(-597.641 -371.723)" fill="#0fd77e"/><path d="M648.265,400.454H599.712a1.165,1.165,0,0,1-1.162-1.162v-8.1a1.164,1.164,0,0,1,1.162-1.161h48.553a1.164,1.164,0,0,1,1.159,1.161v8.1A1.164,1.164,0,0,1,648.265,400.454Zm-47.392-2.323h46.245v-5.778H600.873Z" transform="translate(-598.55 -372.732)" fill="#070707"/><path d="M3.286,18.307H0L17.968.337a1.168,1.168,0,0,1,1.643,0L37.574,18.3l-3.279.006L18.79,2.8l-15.5,15.5Z" transform="translate(6.156)" fill="#070707"/></g></g></g></svg>