<svg id="ic_art_play" xmlns="http://www.w3.org/2000/svg" width="60" height="58" viewBox="0 0 60 58">
  <rect id="Rectangle_505" data-name="Rectangle 505" width="40" height="38" fill="none"/>
  <g id="Group_2101" data-name="Group 2101" transform="translate(0.9 3.053)">
    <g id="Group_2096" data-name="Group 2096" transform="translate(7.318 0)">
      <path id="Path_1071" data-name="Path 1071" d="M643.581,526.31H604.846a1.039,1.039,0,0,1-1.036-1.036V511.662a1.042,1.042,0,0,1,1.606-.868,5.531,5.531,0,0,0,3,.881,5.595,5.595,0,1,0-3-10.309,1.042,1.042,0,0,1-1.606-.868V486.538a1.039,1.039,0,0,1,1.036-1.036H616.8a7.553,7.553,0,0,1-.427-2.525,7.667,7.667,0,1,1,15.333,0,7.549,7.549,0,0,1-.427,2.525h12.3a1.039,1.039,0,0,1,1.036,1.036v11.954a7.546,7.546,0,0,1,2.525-.427,7.666,7.666,0,1,1-2.525,14.906v12.3A1.039,1.039,0,0,1,643.581,526.31Zm-35.174-12.562a7.551,7.551,0,0,1-2.525-.427S612.629,513.748,608.407,513.748Z" transform="translate(-603.81 -475.31)" fill="#ff8d6b"/>
      <path id="Path_1003" data-name="Path 1003" d="M643.581,526.31H604.846a1.039,1.039,0,0,1-1.036-1.036V511.662a1.042,1.042,0,0,1,1.606-.868,5.531,5.531,0,0,0,3,.881,5.595,5.595,0,1,0-3-10.309,1.042,1.042,0,0,1-1.606-.868V486.538a1.039,1.039,0,0,1,1.036-1.036H616.8a7.553,7.553,0,0,1-.427-2.525,7.667,7.667,0,1,1,15.333,0,7.549,7.549,0,0,1-.427,2.525h12.3a1.039,1.039,0,0,1,1.036,1.036v11.954a7.546,7.546,0,0,1,2.525-.427,7.666,7.666,0,1,1-2.525,14.906v12.3A1.039,1.039,0,0,1,643.581,526.31Zm-37.7-2.072h36.663V511.313a1.042,1.042,0,0,1,1.606-.868,5.67,5.67,0,0,0,5.893.078,5.547,5.547,0,0,0,2.707-4.792,5.588,5.588,0,0,0-8.6-4.714,1.042,1.042,0,0,1-1.606-.868V487.574H629.621a1.042,1.042,0,0,1-.868-1.606,5.532,5.532,0,0,0,.881-3,5.595,5.595,0,1,0-10.309,3,1.042,1.042,0,0,1-.868,1.606H605.882v11.267a7.55,7.55,0,0,1,2.525-.427,7.667,7.667,0,1,1,0,15.334,7.551,7.551,0,0,1-2.525-.427Z" transform="translate(-603.81 -475.31)"/>
    </g>
    <g id="Group_2097" data-name="Group 2097" transform="translate(0 10.192)">
      <path id="Path_1070" data-name="Path 1070" d="M606.513,523.988H599.2a1.049,1.049,0,0,1-.738-.3,1.026,1.026,0,0,1-.3-.738l.052-38.735a1.039,1.039,0,0,1,1.036-1.036h7.265a1.039,1.039,0,0,1,1.036,1.036V496.17a7.551,7.551,0,0,1,2.526-.427,7.666,7.666,0,1,1-2.526,14.906v12.3A1.039,1.039,0,0,1,606.513,523.988Z" transform="translate(-598.16 -483.18)" fill="#ffd2c4"/>
      <path id="Path_1004" data-name="Path 1004" d="M606.513,523.988H599.2a1.049,1.049,0,0,1-.738-.3,1.026,1.026,0,0,1-.3-.738l.052-38.735a1.039,1.039,0,0,1,1.036-1.036h7.265a1.039,1.039,0,0,1,1.036,1.036V496.17a7.551,7.551,0,0,1,2.526-.427,7.666,7.666,0,1,1-2.526,14.906v12.3A1.039,1.039,0,0,1,606.513,523.988Zm-6.281-2.072h5.245V508.991a1.042,1.042,0,0,1,1.606-.868,5.67,5.67,0,0,0,5.892.078,5.59,5.59,0,0,0-2.875-10.386,5.643,5.643,0,0,0-3,.881,1.042,1.042,0,0,1-1.606-.868V485.252H600.3Z" transform="translate(-598.16 -483.18)"/>
    </g>
  </g>
</svg>
