<svg xmlns="http://www.w3.org/2000/svg" width="90" height="69.481" viewBox="0 0 90 69.481">
  <g id="ic_article_color" transform="translate(-318.116 -150)">
    <g id="Group_2198" data-name="Group 2198" transform="translate(363.185 150.774)">
      <path id="Path_1246" data-name="Path 1246" d="M405.444,218.952V166.785A15.3,15.3,0,0,1,420.729,151.5H447.9a1.7,1.7,0,0,1,1.7,1.7v54.347a1.7,1.7,0,0,1-1.7,1.7H426.183a21.306,21.306,0,0,0-12.853,4.347l-.008.007a21.115,21.115,0,0,0-4.766,5.08,1.7,1.7,0,0,1-1.414.756h-1.7Z" transform="translate(-405.444 -151.5)" fill="#ffd2c4"/>
    </g>
    <g id="Group_2199" data-name="Group 2199" transform="translate(362.412 150)">
      <path id="Path_1247" data-name="Path 1247" d="M406.418,219.482h-1.7a.774.774,0,0,1-.774-.774V166.059A16.077,16.077,0,0,1,420,150h27.172a2.475,2.475,0,0,1,2.473,2.473v54.347a2.476,2.476,0,0,1-2.473,2.473H425.457a20.424,20.424,0,0,0-16.983,9.089A2.469,2.469,0,0,1,406.418,219.482Zm-.924-1.548h.924a.924.924,0,0,0,.77-.412,21.973,21.973,0,0,1,18.27-9.778h21.719a.925.925,0,0,0,.924-.924V152.473a.925.925,0,0,0-.924-.924H420a14.527,14.527,0,0,0-14.511,14.511Z" transform="translate(-403.945 -150)"/>
    </g>
    <g id="Group_2200" data-name="Group 2200" transform="translate(318.89 150.774)">
      <path id="Path_1248" data-name="Path 1248" d="M363.772,218.952V166.785A15.3,15.3,0,0,0,348.487,151.5H321.313a1.7,1.7,0,0,0-1.7,1.7v54.347a1.7,1.7,0,0,0,1.7,1.7h21.72a21.3,21.3,0,0,1,12.853,4.347l.008.007a21.136,21.136,0,0,1,4.767,5.08,1.7,1.7,0,0,0,1.413.756h1.7Z" transform="translate(-319.615 -151.5)" fill="#ff8d6b"/>
    </g>
    <g id="Group_2201" data-name="Group 2201" transform="translate(318.116 150)">
      <path id="Path_1249" data-name="Path 1249" d="M363.046,219.482h-1.7a2.468,2.468,0,0,1-2.057-1.1,20.426,20.426,0,0,0-16.983-9.089h-21.72a2.475,2.475,0,0,1-2.472-2.473V152.473A2.475,2.475,0,0,1,320.588,150h27.173a16.077,16.077,0,0,1,16.059,16.059v52.648A.774.774,0,0,1,363.046,219.482Zm-42.458-67.933a.925.925,0,0,0-.924.924v54.347a.925.925,0,0,0,.924.924h21.72a21.971,21.971,0,0,1,18.271,9.778.923.923,0,0,0,.77.411h.924V166.059a14.527,14.527,0,0,0-14.511-14.511Z" transform="translate(-318.116 -150)"/>
    </g>
    <g id="Group_2202" data-name="Group 2202" transform="translate(377.256 165.285)">
      <path id="Path_1250" data-name="Path 1250" d="M447.95,181.165H433.482a.774.774,0,1,1,0-1.548H447.95a.774.774,0,1,1,0,1.548Z" transform="translate(-432.708 -179.617)"/>
    </g>
    <g id="Group_2203" data-name="Group 2203" transform="translate(377.256 178.871)">
      <path id="Path_1251" data-name="Path 1251" d="M447.95,207.49H433.482a.774.774,0,1,1,0-1.548H447.95a.774.774,0,1,1,0,1.548Z" transform="translate(-432.708 -205.942)"/>
    </g>
    <g id="Group_2204" data-name="Group 2204" transform="translate(377.256 192.459)">
      <path id="Path_1252" data-name="Path 1252" d="M447.95,233.817H433.482a.774.774,0,1,1,0-1.548H447.95a.774.774,0,1,1,0,1.548Z" transform="translate(-432.708 -232.269)"/>
    </g>
    <g id="Group_2205" data-name="Group 2205" transform="translate(332.96 165.285)">
      <path id="Path_1253" data-name="Path 1253" d="M362.12,181.165H347.653a.774.774,0,1,1,0-1.548H362.12a.774.774,0,0,1,0,1.548Z" transform="translate(-346.879 -179.617)"/>
    </g>
    <g id="Group_2206" data-name="Group 2206" transform="translate(332.96 178.871)">
      <path id="Path_1254" data-name="Path 1254" d="M362.12,207.49H347.653a.774.774,0,1,1,0-1.548H362.12a.774.774,0,0,1,0,1.548Z" transform="translate(-346.879 -205.942)"/>
    </g>
    <g id="Group_2207" data-name="Group 2207" transform="translate(332.96 192.459)">
      <path id="Path_1255" data-name="Path 1255" d="M362.12,233.817H347.653a.774.774,0,1,1,0-1.548H362.12a.774.774,0,0,1,0,1.548Z" transform="translate(-346.879 -232.269)"/>
    </g>
  </g>
</svg>
