<svg xmlns="http://www.w3.org/2000/svg" width="90" height="90" viewBox="0 0 90 90"><rect width="90" height="90" fill="none"/><g transform="translate(5 14)"><g transform="translate(40.062 0.688)"><path d="M405.444,211.458V165.087A13.6,13.6,0,0,1,419.031,151.5h24.154a1.51,1.51,0,0,1,1.51,1.51v48.308a1.51,1.51,0,0,1-1.51,1.51H423.879a18.939,18.939,0,0,0-11.425,3.864l-.007.006a18.769,18.769,0,0,0-4.237,4.516,1.51,1.51,0,0,1-1.257.672h-1.51Z" transform="translate(-405.444 -151.5)" fill="#ffd2c4"/></g><g transform="translate(39.374)"><path d="M406.143,211.762h-1.51a.688.688,0,0,1-.688-.688v-46.8A14.291,14.291,0,0,1,418.22,150h24.153a2.2,2.2,0,0,1,2.2,2.2v48.308a2.2,2.2,0,0,1-2.2,2.2H423.067a18.154,18.154,0,0,0-15.1,8.079A2.194,2.194,0,0,1,406.143,211.762Zm-.822-1.376h.822a.821.821,0,0,0,.684-.366,19.531,19.531,0,0,1,16.24-8.691h19.306a.823.823,0,0,0,.822-.822V152.2a.822.822,0,0,0-.822-.822H418.22a12.913,12.913,0,0,0-12.9,12.9Z" transform="translate(-403.945 -150)"/></g><g transform="translate(0.687 0.688)"><path d="M358.866,211.458V165.087A13.6,13.6,0,0,0,345.279,151.5H321.124a1.51,1.51,0,0,0-1.509,1.51v48.308a1.51,1.51,0,0,0,1.509,1.51h19.306a18.936,18.936,0,0,1,11.425,3.864l.007.006a18.787,18.787,0,0,1,4.237,4.516,1.508,1.508,0,0,0,1.256.672h1.51Z" transform="translate(-319.615 -151.5)" fill="#ff8d6b"/></g><path d="M358.054,211.762h-1.509a2.194,2.194,0,0,1-1.829-.978,18.157,18.157,0,0,0-15.1-8.079H320.314a2.2,2.2,0,0,1-2.2-2.2V152.2a2.2,2.2,0,0,1,2.2-2.2h24.154a14.291,14.291,0,0,1,14.275,14.275v46.8A.688.688,0,0,1,358.054,211.762Zm-37.74-60.385a.822.822,0,0,0-.821.822v48.308a.822.822,0,0,0,.821.822H339.62a19.529,19.529,0,0,1,16.241,8.692.821.821,0,0,0,.684.366h.821v-46.11a12.913,12.913,0,0,0-12.9-12.9Z" transform="translate(-318.116 -150)"/><g transform="translate(52.569 13.587)"><path d="M446.256,180.993H433.4a.688.688,0,1,1,0-1.376h12.86a.688.688,0,1,1,0,1.376Z" transform="translate(-432.708 -179.617)"/></g><g transform="translate(52.569 25.663)"><path d="M446.256,207.318H433.4a.688.688,0,1,1,0-1.376h12.86a.688.688,0,1,1,0,1.376Z" transform="translate(-432.708 -205.942)"/></g><g transform="translate(52.569 37.741)"><path d="M446.256,233.645H433.4a.688.688,0,1,1,0-1.376h12.86a.688.688,0,1,1,0,1.376Z" transform="translate(-432.708 -232.269)"/></g><g transform="translate(13.194 13.587)"><path d="M360.427,180.993h-12.86a.688.688,0,1,1,0-1.376h12.86a.688.688,0,0,1,0,1.376Z" transform="translate(-346.879 -179.617)"/></g><g transform="translate(13.194 25.663)"><path d="M360.427,207.318h-12.86a.688.688,0,1,1,0-1.376h12.86a.688.688,0,0,1,0,1.376Z" transform="translate(-346.879 -205.942)"/></g><g transform="translate(13.194 37.741)"><path d="M360.427,233.645h-12.86a.688.688,0,1,1,0-1.376h12.86a.688.688,0,1,1,0,1.376Z" transform="translate(-346.879 -232.269)"/></g></g></svg>