<svg id="ic_gdrive" xmlns="http://www.w3.org/2000/svg" width="38.39" height="34.3" viewBox="0 0 38.39 34.3">
  <g id="drive" transform="translate(0 0)">
    <path id="Path_1211" data-name="Path 1211" d="M2.9,141.988,4.6,144.912a3.993,3.993,0,0,0,1.451,1.451L12.093,135.9H0a3.984,3.984,0,0,0,.528,1.979Z" transform="translate(0 -112.591)" fill="#0066da"/>
    <path id="Path_1212" data-name="Path 1212" d="M19.195,13.543,13.148,3.077A3.993,3.993,0,0,0,11.7,4.528L.528,23.877A3.985,3.985,0,0,0,0,25.856H12.093Z" transform="translate(0 -2.549)" fill="#00ac47"/>
    <path id="Path_1213" data-name="Path 1213" d="M159.375,146.363a3.993,3.993,0,0,0,1.451-1.451l.7-1.209,3.364-5.827a3.984,3.984,0,0,0,.528-1.979H153.328l2.573,5.057Z" transform="translate(-127.032 -112.591)" fill="#ea4335"/>
    <path id="Path_1214" data-name="Path 1214" d="M82.713,10.994,88.759.528A3.866,3.866,0,0,0,86.781,0H78.645a4.094,4.094,0,0,0-1.979.528Z" transform="translate(-63.518)" fill="#00832d"/>
    <path id="Path_1215" data-name="Path 1215" d="M55.506,135.9H41.3l-6.046,10.466a3.866,3.866,0,0,0,1.979.528H59.574a4.094,4.094,0,0,0,1.979-.528Z" transform="translate(-29.21 -112.591)" fill="#2684fc"/>
    <path id="Path_1216" data-name="Path 1216" d="M125.005,14.2l-5.585-9.674a3.993,3.993,0,0,0-1.451-1.451l-6.046,10.466,7.1,12.313H131.1a3.984,3.984,0,0,0-.528-1.979Z" transform="translate(-92.728 -2.549)" fill="#ffba00"/>
  </g>
</svg>
