<svg id="ic_art_responsive" xmlns="http://www.w3.org/2000/svg" width="60" height="58" viewBox="0 0 60 58">
  <rect id="Rectangle_508" data-name="Rectangle 508" width="40" height="38" fill="none"/>
  <g id="Group_2107" data-name="Group 2107" transform="translate(1.5 3.053)">
    <g id="Group_1982" data-name="Group 1982">
      <path id="Path_1076" data-name="Path 1076" d="M1329.519,530.677h0a4.251,4.251,0,0,1-3.024-1.256l-13.341-13.341a.892.892,0,0,1-.366-.232l-9.121-9.121a15.316,15.316,0,0,1,20.169-22.986l6.231,4.866a.972.972,0,0,1,.171,1.366c-.329.427.458,5.983,3.6,8.158l12.731,11.231a57.969,57.969,0,0,0-4.695,10.731,4.266,4.266,0,0,1-3.451,1.232c.012.146.025.28.025.427a4.274,4.274,0,0,1-4.646,4.256c.012.122.012.244.012.366a4.309,4.309,0,0,1-4.292,4.3Z" transform="translate(-1299.126 -480.511)" fill="#ff8d6b"/>
      <path id="Path_1008" data-name="Path 1008" d="M1329.519,530.677h0a4.251,4.251,0,0,1-3.024-1.256l-13.341-13.341a.892.892,0,0,1-.366-.232l-9.121-9.121a15.316,15.316,0,0,1,20.169-22.986l6.231,4.866a.973.973,0,0,1-1.2,1.537l-6.231-4.866a13.364,13.364,0,0,0-17.657,20c.024.024.11.122.134.146l8.853,8.853a.893.893,0,0,1,.366.232l13.536,13.524a2.316,2.316,0,0,0,1.646.683h0a2.331,2.331,0,0,0,2.329-2.329,2.283,2.283,0,0,0-.414-1.317,3.309,3.309,0,0,1-.305-.28.946.946,0,0,1-.28-.719.993.993,0,0,1,.329-.707,1.027,1.027,0,0,1,1.378,0,3.283,3.283,0,0,1,.28.3,2.326,2.326,0,0,0,2.963-3.561.981.981,0,0,1,.683-1.671.974.974,0,0,1,.72.28,2.375,2.375,0,0,0,3.292,0,2.34,2.34,0,0,0,0-3.292.981.981,0,0,1,.683-1.671,1.069,1.069,0,0,1,.72.28,2.387,2.387,0,0,0,3.292,0,2.341,2.341,0,0,0,0-3.292l-11.231-11.231a.974.974,0,1,1,1.378-1.378l11.231,11.231a57.969,57.969,0,0,0-4.695,10.731,4.266,4.266,0,0,1-3.451,1.232c.012.146.025.28.025.427a4.274,4.274,0,0,1-4.646,4.256c.012.122.012.244.012.366a4.309,4.309,0,0,1-4.292,4.3Z" transform="translate(-1299.126 -480.511)"/>
    </g>
    <g id="Group_1983" data-name="Group 1983" transform="translate(25.814 0.001)">
      <path id="Path_1075" data-name="Path 1075" d="M1340.275,510.105a.987.987,0,0,1-.7-.28l-10.3-10.3a.979.979,0,0,1,0-1.378c.378-.378-2.541-2.31-3.76-2.456-1-.122-2.958.054-3.581-.654-.3-.341-1.268-1.646-1.451-1.9a.977.977,0,0,1,.134-1.3c6.512-5.817,8.67-7.743,9.5-8.39l-.049-.049c.024-.024.073-.061.1-.085a13.209,13.209,0,0,1,17.45,19.767l-6.646,6.756a1.02,1.02,0,0,1-.7.281Z" transform="translate(-1320.295 -480.512)" fill="#ffd2c4"/>
      <path id="Path_1009" data-name="Path 1009" d="M1340.275,510.105a.987.987,0,0,1-.7-.28l-10.3-10.3a.974.974,0,0,1,1.378-1.378l9.609,9.609,5.914-6a11.261,11.261,0,0,0-14.816-16.914c-.1.085-6.451,5.756-8.792,7.853.341.463.683.914.817,1.049a2.319,2.319,0,0,0,3.244.049l4.11-3.671a.976.976,0,1,1,1.3,1.451l-4.109,3.67a4.307,4.307,0,0,1-3.4,1.11,4.208,4.208,0,0,1-2.6-1.317c-.3-.341-1.268-1.646-1.451-1.9a.977.977,0,0,1,.134-1.3c6.512-5.817,8.67-7.743,9.5-8.39l-.049-.049c.024-.024.073-.061.1-.085a13.209,13.209,0,0,1,17.45,19.767l-6.646,6.756a1.02,1.02,0,0,1-.7.281Z" transform="translate(-1320.295 -480.512)"/>
    </g>
    <g id="Group_1984" data-name="Group 1984" transform="translate(20.5 31.347)">
      <path id="Path_1010" data-name="Path 1010" d="M1328.159,519.4a1.009,1.009,0,0,1-.7-.281l-11.243-11.243a.974.974,0,0,1,1.378-1.378l11.243,11.243a.979.979,0,0,1,0,1.378A.959.959,0,0,1,1328.159,519.4Z" transform="translate(-1315.937 -506.218)"/>
    </g>
    <g id="Group_1985" data-name="Group 1985" transform="translate(25.146 26.726)">
      <path id="Path_1011" data-name="Path 1011" d="M1331.957,515.6a1.01,1.01,0,0,1-.7-.28l-11.231-11.231a.974.974,0,1,1,1.378-1.378l11.231,11.231a.969.969,0,0,1-.683,1.658Z" transform="translate(-1319.747 -502.428)"/>
    </g>
    <g id="Group_1986" data-name="Group 1986" transform="translate(29.829 22.031)">
      <path id="Path_1012" data-name="Path 1012" d="M1335.8,511.75a1.009,1.009,0,0,1-.7-.28l-11.231-11.231a.974.974,0,0,1,1.378-1.378l11.231,11.231a.979.979,0,0,1,0,1.378A.912.912,0,0,1,1335.8,511.75Z" transform="translate(-1323.587 -498.578)"/>
    </g>
    <g id="Group_1987" data-name="Group 1987" transform="translate(31.365 14.202)">
      <path id="Path_1013" data-name="Path 1013" d="M1340.2,513.147a1.008,1.008,0,0,1-.695-.281.978.978,0,0,1,0-1.378,2.341,2.341,0,0,0,0-3.292l-14.377-14.377a.974.974,0,1,1,1.378-1.378l14.377,14.377a4.277,4.277,0,0,1,0,6.048A.959.959,0,0,1,1340.2,513.147Z" transform="translate(-1324.847 -492.157)"/>
    </g>
  </g>
</svg>
