<svg id="ic_art_safety" xmlns="http://www.w3.org/2000/svg" width="56" height="54" viewBox="0 0 56 54">
  <rect id="Rectangle_507" data-name="Rectangle 507" width="56" height="54" fill="none"/>
  <g id="Group_2106" data-name="Group 2106" transform="translate(1.226 0.223)">
    <g id="Group_2105" data-name="Group 2105" transform="translate(6.985 0)">
      <path id="Path_1072" data-name="Path 1072" d="M755.6,508.369a1.038,1.038,0,0,1-.554-.158c-19.365-11.613-18.89-21.79-17.783-25.626a10.733,10.733,0,0,1,10.585-7.843,9.71,9.71,0,0,1,1.068.079,9.3,9.3,0,0,1,6.657,3.6,9.233,9.233,0,0,1,6.657-3.6,10.8,10.8,0,0,1,10.572,5.22c2.65,4.456,1.846,10.229-2.188,15.832a43.1,43.1,0,0,1-10.585,9.847c-1.186.817-2.439,1.621-3.744,2.412l-.145.092A1.068,1.068,0,0,1,755.6,508.369Zm6.762-32.507Z" transform="translate(-736.829 -474.736)" fill="#ff8d6b"/>
      <path id="Path_1014" data-name="Path 1014" d="M755.6,508.369a1.038,1.038,0,0,1-.554-.158c-19.365-11.613-18.89-21.79-17.783-25.626a10.733,10.733,0,0,1,10.585-7.843,9.71,9.71,0,0,1,1.068.079,9.3,9.3,0,0,1,6.657,3.6,9.233,9.233,0,0,1,6.657-3.6,10.8,10.8,0,0,1,10.572,5.22c2.65,4.456,1.846,10.229-2.188,15.832a43.1,43.1,0,0,1-10.585,9.847c-1.186.817-2.439,1.621-3.744,2.412l-.145.092A1.068,1.068,0,0,1,755.6,508.369Zm-7.922-31.532a8.728,8.728,0,0,0-8.384,6.314c-1.991,6.934,4.1,15.476,16.32,22.924,1.12-.685,2.2-1.384,3.216-2.083a41.131,41.131,0,0,0,10.045-9.307c3.559-4.943,4.324-9.874,2.122-13.578a8.763,8.763,0,0,0-8.489-4.205H762.5a6.956,6.956,0,0,0-5.945,4.007,1.046,1.046,0,0,1-.949.606h0a1.046,1.046,0,0,1-.949-.606,6.993,6.993,0,0,0-5.958-4.007c-.277-.026-.58-.053-.83-.066Zm14.685-.975Z" transform="translate(-736.829 -474.736)"/>
    </g>
    <g id="Shape_528_7_" transform="translate(0 23.877)">
      <path id="Path_1073" data-name="Path 1073" d="M748.68,520.717h-9.663a1.044,1.044,0,0,1-.817-.4l-4.324-5.4a10.759,10.759,0,0,1-2.346-6.7v-11.1a4.271,4.271,0,0,1,8.542,0v4.759a4.031,4.031,0,0,1,2.847-.4,4.087,4.087,0,0,1,2.6,1.872l2.426,3.625a10.633,10.633,0,0,1,1.806,5.958v6.736A1.075,1.075,0,0,1,748.68,520.717Z" transform="translate(-731.53 -492.85)" fill="#ffd2c4"/>
      <path id="Path_1015" data-name="Path 1015" d="M748.68,520.717h-9.663a1.044,1.044,0,0,1-.817-.4l-4.324-5.4a10.759,10.759,0,0,1-2.346-6.7v-11.1a4.271,4.271,0,0,1,8.542,0v4.759a4.031,4.031,0,0,1,2.847-.4,4.087,4.087,0,0,1,2.6,1.872l2.426,3.625a10.633,10.633,0,0,1,1.806,5.958v6.736A1.075,1.075,0,0,1,748.68,520.717Zm-9.148-2.109h8.094v-5.682a8.585,8.585,0,0,0-1.45-4.785l-2.452-3.678a1.967,1.967,0,0,0-2.795-.672,1.952,1.952,0,0,0-.659,2.491l2.86,4.759a1.065,1.065,0,0,1-.356,1.45,1.053,1.053,0,0,1-1.45-.356l-2.9-4.825a4.129,4.129,0,0,1-.448-1.687,1,1,0,0,1-.013-.2v-8.318a2.162,2.162,0,1,0-4.324,0v11.1a8.645,8.645,0,0,0,1.885,5.378Z" transform="translate(-731.53 -492.85)"/>
    </g>
    <g id="Shape_528_5_" transform="translate(33.271 23.851)">
      <path id="Path_1074" data-name="Path 1074" d="M732.6,520.717h9.663a1.044,1.044,0,0,0,.817-.4l4.324-5.4a10.758,10.758,0,0,0,2.346-6.7v-11.1a4.271,4.271,0,0,0-8.542,0v4.759a4.03,4.03,0,0,0-2.847-.4,4.087,4.087,0,0,0-2.6,1.872l-2.426,3.625a10.633,10.633,0,0,0-1.806,5.958v6.736A1.075,1.075,0,0,0,732.6,520.717Z" transform="translate(-731.53 -492.85)" fill="#ffd2c4"/>
      <path id="Path_1016" data-name="Path 1016" d="M767.487,520.723h-9.663a1.058,1.058,0,0,1-1.055-1.055v-6.736a10.7,10.7,0,0,1,1.806-5.958l2.452-3.678a4.085,4.085,0,0,1,2.557-1.832,4.187,4.187,0,0,1,2.847.4V497.1a4.271,4.271,0,0,1,8.542,0v11.1a10.756,10.756,0,0,1-2.347,6.7l-4.324,5.4A.994.994,0,0,1,767.487,520.723Zm-8.608-2.109h8.094l4.007-5.009a8.645,8.645,0,0,0,1.885-5.378v-11.1a2.162,2.162,0,1,0-4.324,0v8.4a4.073,4.073,0,0,1-.422,1.74l-2.94,4.9a1.056,1.056,0,1,1-1.806-1.094l2.9-4.825a1.693,1.693,0,0,0,.171-.672c0-.04-.013-.092-.013-.132v-.2a2.043,2.043,0,0,0-.87-1.437,1.955,1.955,0,0,0-2.755.62l-2.478,3.717a8.583,8.583,0,0,0-1.45,4.785Z" transform="translate(-756.769 -492.83)"/>
    </g>
  </g>
</svg>
