<svg id="ic_development_color" xmlns="http://www.w3.org/2000/svg" width="60" height="60" viewBox="0 0 60 60">
  <rect id="Rectangle_526" data-name="Rectangle 526" width="60" height="60" fill="none"/>
  <g id="Group_2124" data-name="Group 2124" transform="translate(21.827 58.911)">
    <g id="Group_1945" data-name="Group 1945">
      <path id="Path_979" data-name="Path 979" d="M1183.35,425.77" transform="translate(-1183.35 -425.77)" fill="none" stroke="#070707" stroke-linecap="round" stroke-linejoin="round" stroke-width="1.725"/>
    </g>
  </g>
  <g id="Group_2126" data-name="Group 2126" transform="translate(20.78 28.146)">
    <g id="Group_1953" data-name="Group 1953">
      <path id="Path_1069" data-name="Path 1069" d="M1183.59,432.724a1.013,1.013,0,0,1-1.01-1.01c0-28.2,28.273-28.564,28.564-28.564h0a1.022,1.022,0,0,1,.72.29,1,1,0,0,1,.291.72C1212.154,404.451,1211.788,432.724,1183.59,432.724Z" transform="translate(-1181.44 -402.01)" fill="#ffedb7"/>
      <path id="Path_985" data-name="Path 985" d="M1183.668,435a1.091,1.091,0,0,1-1.088-1.088c0-30.371,30.452-30.765,30.765-30.765h0a1.1,1.1,0,0,1,.775.313,1.078,1.078,0,0,1,.313.775C1214.433,404.551,1214.039,435,1183.668,435Zm28.548-29.623c-5.3.326-26.807,3.169-27.433,27.433C1209.047,432.188,1211.876,410.685,1212.216,405.38Z" transform="translate(-1182.58 -403.15)" fill="#070707"/>
    </g>
  </g>
  <g id="Group_2127" data-name="Group 2127" transform="translate(8)">
    <g id="Group_1955" data-name="Group 1955" transform="translate(1.029 1.068)">
      <path id="Path_986" data-name="Path 986" d="M1186.779,441.084c-28.888-28.888,0-57.844,0-57.844S1215.667,412.21,1186.779,441.084Z" transform="translate(-1173.94 -383.24)" fill="#ffc20e"/>
    </g>
    <g id="Group_1956" data-name="Group 1956">
      <path id="Path_987" data-name="Path 987" d="M1187.051,442.455a1.1,1.1,0,0,1-.775-.313c-29.31-29.31-.3-59.082,0-59.381a1.118,1.118,0,0,1,1.537,0c.3.3,29.31,30.071,0,59.381A1.025,1.025,0,0,1,1187.051,442.455Zm0-57.341c-4.393,4.855-24.264,29.527,0,54.7C1211.329,414.641,1191.445,389.969,1187.051,385.114Z" transform="translate(-1173.183 -382.455)" fill="#070707"/>
    </g>
  </g>
  <g id="Shape_488_161_" transform="translate(20.78 19.061)">
    <g id="Group_1958" data-name="Group 1958">
      <path id="Path_988" data-name="Path 988" d="M1183.668,435.667a1.091,1.091,0,0,1-1.088-1.088V397.558a1.088,1.088,0,0,1,2.176,0v37.021A1.083,1.083,0,0,1,1183.668,435.667Z" transform="translate(-1182.58 -396.47)" fill="#070707"/>
    </g>
  </g>
</svg>
