<?xml version="1.0" encoding="utf-8"?>
<!-- Generator: Adobe Illustrator 26.4.1, SVG Export Plug-In . SVG Version: 6.00 Build 0)  -->
<svg version="1.1" id="ic_art_responsive" xmlns="http://www.w3.org/2000/svg" xmlns:xlink="http://www.w3.org/1999/xlink" x="0px"
	 y="0px" viewBox="0 0 60 58" style="enable-background:new 0 0 60 58;" xml:space="preserve">
<g>
	<path d="M10,55.1l-0.1,0c-0.1,0-0.1,0-0.2,0c-3.1-0.6-5.3-2.3-6.4-5.2c-0.2-0.4-0.3-0.9-0.4-1.4c0-0.2-0.1-0.4-0.1-0.6l0-33.7
		l0-0.2c0-0.1,0-0.2,0.1-0.3c0.3-1.8,1.2-3.3,2.5-4.6C6.5,7.9,8,7.2,9.7,6.9l0-0.3c0-0.4,0-0.8,0-1.2c0-1.6,1-3,2.5-3.6
		c0.1-0.1,0.7-0.3,0.7-0.3h1.3c2.3,0.6,3.4,2.2,3.3,4.5c0,0.2,0,0.4,0,0.7v0h2.9l0-0.3c0-0.5,0-0.9,0-1.3C20.4,4,20.9,3,21.9,2.3
		c0.3-0.2,0.7-0.4,1.1-0.5c0.2-0.1,0.3-0.1,0.5-0.2l0.1,0h1.4l0.1,0c2,0.6,3,2,3,4l0,1.2h2.9l0-0.3c0-0.4,0-0.8,0-1.2
		c0.1-1.5,0.8-2.7,2.2-3.4c0.2-0.1,0.4-0.2,0.6-0.2L34,1.6h1.3c2.3,0.6,3.4,2.2,3.2,4.6c0,0.2,0,0.4,0,0.7v0h2.9l0-0.2
		c0-0.4,0-0.7,0-1.1c0-1.5,0.6-2.6,1.8-3.3c0.3-0.2,0.6-0.3,1-0.4c0.1-0.1,0.3-0.1,0.4-0.2l0.1,0h1.4l0.1,0.1c2.1,0.7,3,2,3,4.2v1.1
		l0.1,0c4,0.7,7,4.1,7,8c0,10.7,0,21.4,0,32c0,3.6-2.5,6.8-6,7.8c-0.3,0.1-0.6,0.1-0.8,0.2l-0.4,0.1H10z M5.1,46.7
		c0,3.5,2.6,6.1,6.1,6.1c1.5,0,35.6,0,36.6,0c3.5,0,6.1-2.6,6.1-6.1l0-28.6l-48.7,0L5.1,46.7z M53.8,15.6c0.1-1.5-0.4-3.2-1.5-4.5
		c-0.9-1-2-1.7-3.1-1.8l0,0.2c0,0.4,0,0.8,0,1.1c-0.1,1.9-1.5,3.5-3.3,3.7c-0.2,0-0.4,0-0.5,0c-2.2,0-3.8-1.6-3.8-3.9
		c0-0.4,0-0.7,0-1.1l0-0.2h-2.9v0.2c0,0.3,0,0.7,0,1l0,0.1c0,0.3,0,0.7-0.1,1c-0.4,1.8-1.9,3-3.7,3c-0.2,0-0.3,0-0.5,0
		c-1.9-0.2-3.3-1.8-3.3-3.8c0-0.4,0-0.8,0-1.2l0-0.3H28l0,0.3c0,0.4,0,0.8,0,1.2c0,1.2-0.5,2.1-1.4,2.8c-0.7,0.6-1.6,0.9-2.4,0.9
		c-0.5,0-1-0.1-1.6-0.3c-1.4-0.6-2.2-1.8-2.3-3.3c0-0.4,0-0.9,0-1.3l0-0.3h-2.9l0,0.1c0,0.3,0,0.6,0,1l0,0.1c0,0.4,0,0.8-0.1,1.2
		c-0.4,1.7-1.9,2.9-3.7,2.9c-0.1,0-0.3,0-0.5,0c-1.9-0.2-3.3-1.8-3.4-3.7c0-0.4,0-0.8,0-1.2l0-0.2c-1.3,0.3-2.6,1-3.5,2.2
		c-0.9,1.2-1.3,2.6-1.2,4.1H53.8z M13.6,3.9c-0.8,0-1.4,0.6-1.5,1.5c0,1.7,0,3.4,0,5.2c0,0.9,0.6,1.5,1.5,1.5c0.9,0,1.4-0.6,1.4-1.5
		c0-0.6,0-1.1,0-1.7V7.3c0-0.6,0-1.2,0-1.8C15,4.6,14.4,3.9,13.6,3.9V3.6V3.9z M34.7,3.9c-0.8,0-1.4,0.7-1.5,1.5c0,1.7,0,3.4,0,5.2
		c0,0.9,0.6,1.5,1.5,1.5c0.9,0,1.4-0.6,1.4-1.5c0-0.6,0-1.1,0-1.7V7.3c0-0.6,0-1.2,0-1.8C36.2,4.6,35.6,3.9,34.7,3.9V3.6V3.9z
		 M45.3,3.9c-0.8,0-1.4,0.6-1.4,1.6c0,0.6,0,1.2,0,1.8v1.5c0,0.6,0,1.2,0,1.8c0,0.9,0.6,1.5,1.4,1.5h0c0.9,0,1.5-0.6,1.5-1.5
		c0-1.6,0-3.3,0-5.2C46.8,4.6,46.2,3.9,45.3,3.9l0-0.3L45.3,3.9z M24.2,3.9c-0.8,0-1.4,0.6-1.4,1.5c0,0.6,0,1.2,0,1.8l0,3.3
		c0,1,0.6,1.6,1.4,1.6h0c0.9,0,1.5-0.6,1.5-1.5c0-1.7,0-3.5,0-5.2C25.6,4.6,25,3.9,24.2,3.9l0-0.3L24.2,3.9z"/>
</g>
</svg>
