<?xml version="1.0" encoding="UTF-8"?>
<svg id="pregnancy" xmlns="http://www.w3.org/2000/svg" viewBox="0 0 1080 1080">
  <path d="M812.63,37.02c-28.54,.27-334.29,.28-430.43,.28-27.39,0-33.35,30.5-22.97,38.1C193.04,164.2,92.51,311.53,89.66,471.14c-2.67,151.6,82.56,287.19,233.81,371.89,37.9,21.17,62.99,59.08,67.26,101.07l9.61,80.34c1.25,11.39,10.68,19.93,22.06,19.93h458.01c12.28,0,22.24-9.96,22.24-22.24v-21.79c31.32-39.86,168.86-240.93-38.43-471.18-105.23-116.72-85.55-303.53-22.68-461.77,0,0,4.09-30.68-28.92-30.36Zm-21.24,45.19l-8.99,28.51c-44.32,156.53-56.26,331.69,48.73,448.14,203.03,225.27,40.21,410.68,33.1,418.33-3.74,4.09-5.87,9.43-5.87,14.95v7.56H442.69l-7.65-60.41c-5.87-56.58-39.32-107.12-89.86-135.41-136.48-76.51-213.53-197.51-211.03-332.21,2.67-146.09,97.87-281.32,254.99-362.1,11.92-6.23,19.57-17.79,20.46-31.32l381.8,3.96Z"/>
  <path d="M436.2,381.71l-13.71,13.71-13.71-13.71c-20.99-20.99-48.91-32.66-78.53-32.66s-57.54,11.51-78.7,32.49c-43.33,43.33-43.33,113.9,0,157.22l156.04,156.04c3.89,3.89,9.31,6.26,14.89,6.26s11-2.2,14.89-6.26l156.04-156.04c20.99-20.99,32.66-48.91,32.66-78.53s-11.51-57.71-32.66-78.7c-20.99-20.99-48.91-32.49-78.53-32.49s-57.71,11.68-78.7,32.66h0Zm147.58,78.53c0,18.45-7.28,35.71-20.31,48.74l-140.98,141.15-141.14-141.15c-26.91-26.91-26.91-70.57,0-97.48,13.03-13.03,30.46-20.14,48.74-20.14s35.71,7.11,48.74,20.14l28.6,28.6c8.29,8.29,21.66,8.29,29.79,0l28.77-28.6c25.89-26.06,71.42-26.06,97.48,0,13.2,13.03,20.31,30.46,20.31,48.74Z"/>
</svg>