<svg
  width="96"
  height="96"
  viewBox="150 150 1200 1200"
  fill="none"
  xmlns="http://www.w3.org/2000/svg"
>
  <path
    fill="#3c4182"
    d="M 609.707031 1133.984375 C 625.191406 1143.085938 643.078125 1151.429688 660.332031 1151.871094 C 678.976562 1152.882812 698.316406 1144.476562 714.941406 1134.742188 C 730.613281 1125.765625 746.414062 1116.160156 762.277344 1106.171875 C 755.644531 1096.5 749.257812 1086.640625 743.128906 1076.652344 C 697.9375 1002.886719 666.273438 918.5 665.769531 831.144531 C 665.578125 794.355469 670.953125 759.464844 687.195312 726.28125 C 699.835938 700.429688 718.605469 677.167969 741.167969 659.339844 C 785.726562 624.132812 843.683594 608.585938 899.617188 620.402344 C 928.4375 626.472656 955.046875 640.316406 977.546875 659.214844 C 1006.871094 683.804688 1025.515625 716.292969 1040.117188 751.183594 C 1046.816406 750.996094 1051.429688 747.835938 1056.042969 744.167969 C 1078.605469 726.28125 1104.835938 712.878906 1132.457031 705.359375 C 1146.800781 669.835938 1157.863281 632.539062 1164.75 593.476562 C 1200.652344 402.710938 998.84375 215.546875 816.316406 298.351562 C 769.230469 317.882812 727.390625 351.066406 697.054688 392.027344 C 677.335938 418.890625 662.671875 437.601562 638.589844 404.417969 C 623.992188 385.011719 608.507812 365.226562 589.734375 348.917969 C 406.953125 182.929688 142.578125 336.464844 158.757812 571.984375 C 190.867188 831.144531 414.414062 1022.101562 609.769531 1133.984375 Z"
  />
  <path
    fill="#36a5d5"
    d="M 1049.027344 785.699219 C 1028.867188 791.765625 1016.480469 776.152344 1009.527344 759.527344 C 1002.257812 742.210938 993.851562 725.710938 982.664062 710.605469 C 966.359375 688.480469 945.882812 671.730469 920.980469 660.351562 C 912.382812 656.433594 899.175781 652.324219 887.800781 650.175781 C 878.003906 648.34375 864.792969 647.457031 852.34375 648.152344 C 805.824219 650.683594 758.421875 676.597656 730.488281 715.28125 C 714.433594 737.53125 702.804688 762.816406 699.328125 790.1875 C 694.335938 829.816406 697.558594 870.714844 706.40625 909.527344 C 724.609375 989.484375 766.070312 1063.0625 816.445312 1127.09375 C 842.167969 1159.835938 870.230469 1192.515625 901.449219 1220.203125 C 908.214844 1226.207031 916.050781 1231.261719 925.214844 1232.085938 C 934.570312 1232.90625 943.734375 1230.125 952.644531 1227.660156 C 967.308594 1223.550781 981.84375 1219.0625 996.253906 1214.261719 C 1059.015625 1193.273438 1119.816406 1165.335938 1174.613281 1127.914062 C 1230.292969 1089.863281 1278.894531 1040.8125 1311.066406 981.140625 C 1324.78125 955.730469 1334.894531 929.691406 1335.839844 901.433594 C 1336.789062 874.253906 1331.101562 847.011719 1319.597656 822.738281 C 1296.214844 773.5 1250.328125 733.738281 1195.910156 729.695312 C 1160.074219 727.039062 1123.417969 737.59375 1092.828125 756.496094 C 1078.355469 765.472656 1065.585938 780.703125 1049.027344 785.761719 Z"
  />
</svg>