<svg xmlns="http://www.w3.org/2000/svg" width="167.704" height="143.58" viewBox="0 0 167.704 143.58"><g transform="translate(20.261 17729.816)"><path d="M250.671,121.827c-10.014-2.587-16.59.982-20.482,4.732-.023-.329-.054-.665-.093-1-8.86,12.309-22.321,25.383-41.645,38.691a150.1,150.1,0,0,0,16.767,26.313l.155.206.417-.074c81.359-14.256,70.591-62.4,44.881-68.863" transform="translate(-122 -17777)" fill="#9ddb69"/><path d="M230.1,125.554c-.6-5.244-3.289-11.748-11.866-16.314A20.138,20.138,0,0,0,216,108.184c-20.061-8.192-49.285,11.258-27.55,56.061,19.324-13.307,32.785-26.381,41.645-38.691" transform="translate(-122 -17777)" fill="#6ec759"/><path d="M216,108.184a20.224,20.224,0,0,1,2.229,1.056c8.577,4.566,11.267,11.07,11.866,16.314,33.389-46.392,1.305-81.917-29.788-78.06-16.127,1.894-23.728,10.849-27.3,18.548-3.6-7.692-11.2-16.633-27.331-18.57a31.7,31.7,0,0,0-3.861-.282c-40.068-.719-77.06,61.922,30.947,126.7l.342.213.57-.344q7.9-4.771,14.775-9.515c-21.735-44.8,7.489-64.253,27.55-56.062" transform="translate(-122 -17777)" fill="#009739"/></g></svg>