<?xml version="1.0" encoding="utf-8"?>
<!-- Generator: Adobe Illustrator 26.4.1, SVG Export Plug-In . SVG Version: 6.00 Build 0)  -->
<svg version="1.1" id="Layer_1" xmlns="http://www.w3.org/2000/svg" xmlns:xlink="http://www.w3.org/1999/xlink" x="0px" y="0px"
	 viewBox="0 0 524.5 152" style="enable-background:new 0 0 524.5 152;" xml:space="preserve">
<style type="text/css">
	.st0{fill:none;}
	.st1{fill:#00AEEF;}
	.st2{fill:#4DC6F4;}
	.st3{fill:#80D6F7;}
	.st4{fill:#FFFFFF;}
</style>
<g id="Capa_2">
	<g id="Layer_1_00000028313292759478806280000006207269967515690637_">
		<path class="st0" d="M406.1,51.6c-0.5,2.7-0.1,6.2,1.8,10.4C406,57.8,405.5,54.3,406.1,51.6z"/>
		<path class="st0" d="M438.2,87.8c-4.6,0-6.9,3.8-6.9,8.7s3.3,7.8,7.3,7.8c4,0,6.6-3.3,6.6-8.4C445.1,91.1,441.9,87.8,438.2,87.8z"
			/>
		<path class="st1" d="M187.8,68.3l-17.3,0.2c-0.8,0.1-1.5,0.8-1.4,1.7v2.3c-3.2-1.9-7-3.3-11.2-3.3c-12.2,0-23.1,10.1-23.1,25.3
			c0,16.2,9,26.3,22.8,26.3c5.1,0,8.8-1.7,11.5-4.4l0.1,4.9c0.1,0.8,0.8,1.3,1.5,1.3l15.1-0.8c0.9,0,1.5-0.8,1.5-1.7l1.9-50.5
			C189.2,68.9,188.6,68.3,187.8,68.3z M169.1,96.3c-0.8,4.6-3.8,7.3-6.7,7.3c-4,0-7.4-3.2-7.4-8.1c0-5.2,3.1-8.8,7.5-8.8
			c3.4,0,5.9,2.4,6.6,5.4L169.1,96.3z"/>
		<path class="st1" d="M264.2,67.7c-0.5,0-0.9-0.1-1.4-0.1c-2.5-0.2-5-0.5-7.3,1.4c-2,1.6-2.6,3.9-3.3,6.1c-0.1,0.4-0.3,0.9-0.4,1.3
			l-2.3,7.1c-0.4,1.1-0.7,2.2-1.1,3.4c-0.2,0.6-0.4,1.1-0.5,1.7l-0.3,1.1l0,0c-0.5,1.6-1.8,2-2.5,0c-0.2-0.6-0.4-1.2-0.6-1.9
			c-0.3-0.8-0.5-1.6-0.8-2.4c-0.1-0.4-0.3-0.9-0.4-1.3c-1-3-2.1-6.5-5.2-8c-1.2-0.6-2.4-0.7-3.7-0.7l-0.2,0
			c-1.3-0.1-2.6-0.1-3.9-0.1h-0.5c-1.6,0-3.3-0.1-4.9,0.6c-0.5,0.2-0.9,0.4-1.3,0.7c-2,1.5-2.6,3.8-3.1,6c-0.1,0.4-0.2,0.8-0.3,1.2
			c-0.7,2.4-1.2,4.6-1.6,6.6l0,0c-0.5,2.2-1.9,2.6-2.7,0.3c-0.6-1.7-1.1-3.3-1.6-4.9c-0.3-1.1-0.6-2.1-0.9-3.2
			c-0.6-2.3-1.2-4.6-2.3-6.8c-0.6-1.3-1.4-2.7-2.8-3.4c-1.6-0.9-3.7-1.4-5.7-1.4c-2.6,0-6.8-0.1-8.9,2.3c-0.4,0.6-0.8,1.2-0.9,1.9
			c-1,3.3,0,6.3,0.9,9.2c0.1,0.4,0.2,0.8,0.4,1.2c1,3.1,2,6.5,3.3,10.3c0.5,1.6,1.1,3.3,1.6,5c1.8,5.9,3.8,12,6.5,17.4
			c0.3,0.7,0.7,1.4,1.2,2c1.1,1.3,2.8,2.3,4.9,2.6c1.4,0.2,2.9,0.3,4.3,0.3c3,0,6-0.5,8.1-1.9c2.5-1.7,3.6-5.3,4.4-8.3l0,0
			c1.4-4.8,3.8-5.5,6.6-0.5v0c1,2,2,3.8,3.1,5.4c0.3,0.5,0.6,1,1,1.4c1.8,1.9,4.5,2,6.8,2.1h0.2c0.5,0,1.1,0.1,1.6,0.1
			c2.1,0.1,4.3,0.3,6.3-0.9c2.4-1.4,3.7-4.1,4.8-6.2c2.7-5.3,4.5-11.3,6.2-17c0.6-2.1,1.3-4.2,1.9-6.3c0.3-1,0.7-2.1,1-3.2
			c0.7-2.1,1.4-4.2,2.1-6.3c0.2-0.7,0.5-1.4,0.7-2c1.2-3.4,2.3-6.3,1-8.5C270.5,69.1,268.2,68.1,264.2,67.7z"/>
		<path class="st2" d="M323.5,68.3l-17.3,0.2c-0.8,0.1-1.5,0.8-1.4,1.7v2.3c-3.2-1.9-7-3.3-11.2-3.3c-12.2,0-23.1,10.1-23.1,25.3
			c0,16.2,9,26.3,22.8,26.3c5.1,0,8.8-1.7,11.5-4.4l0.1,4.9c0.1,0.8,0.8,1.3,1.5,1.3l15.1-0.8c0.9,0,1.5-0.8,1.5-1.7l1.9-50.5
			C325,68.9,324.3,68.3,323.5,68.3z M304.9,96.3c-0.8,4.6-3.8,7.3-6.7,7.3c-4,0-7.4-3.2-7.4-8.1c0-5.2,3.1-8.8,7.5-8.8
			c3.4,0,5.9,2.4,6.6,5.4L304.9,96.3z"/>
		<path class="st1" d="M387,70c-6.6,0-11.1,3.1-13.7,5.6c-3.8-5.2-8.1-7-14.9-7c-5.1,0-8.4,2.6-9,3.3v-2c-0.1-0.8-0.7-1.4-1.3-1.4
			l-18.1,1.8c-0.7,0.1-1.3,0.5-1.3,1.3v0.1l1.2,48.2c0,0.8,0.7,1.4,1.3,1.4l17.2,0.4c0.8,0,1.3-0.7,1.3-1.4l-0.1-26v-0.2
			c0-7.5,1.3-10.3,5.1-10.3c5.5,0,6.2,4.5,6.2,19.4c0,7.3-0.5,14.6-0.8,17.8v0.1c0,0.3,0.2,0.8,0.7,0.8l17.5,1.2h0.1
			c0.7,0,1.1-0.3,1.2-0.9c0.3-2.5,0.7-9,0.7-20.1c0-1.7-0.1-3.3-0.1-4.9c0-3.2-0.7-12,4.4-12c4.9,0,6,5.4,6,18.9
			c0,7.4-0.7,14.8-0.9,18.4c0,0.4,0.3,0.7,0.7,0.8l17.9,1.3h0.1c0.8,0,1.1-0.4,1.2-1c0.3-2.5,0.8-8.9,0.8-20.1
			C410.1,77,400.5,70,387,70z"/>
		<path class="st3" d="M438.5,67.4c-15.8,0-25.6,10.8-25.6,28.6c0,17.7,13.3,27.4,27.2,27.4c13.9,0,23.8-10.1,23.8-27.4
			C463.8,77.1,453.2,67.4,438.5,67.4z M438.5,104.2c-4,0-7.3-3-7.3-7.8s2.3-8.7,6.9-8.7c3.7,0,6.9,3.3,6.9,8.1
			C445.1,101,442.5,104.2,438.5,104.2z"/>
		<path class="st3" d="M500.5,68c-0.8-0.1-1.7-0.2-2.5-0.2c-4.2,0-10.2,1.4-13.4,5.9c-0.1,0.1-0.1,0.2-0.2,0.3v-2.6
			c0-1-0.3-1.2-1.5-1.2l-15.7-0.8H467c-0.7,0-1.3,0.5-1.3,1.2c0,0,0,0.1,0,0.1l1.7,49.8c0,0.8,0.7,1.3,1.4,1.3h0.1l15.5-0.3
			c0.8,0,1.5-0.6,1.5-1.4c0,0,0,0,0,0c0-9.3-0.1-16.6-0.1-16.6c-0.1-11.3,4.1-17.5,13.9-17.8c0.6-0.1,0.9-0.3,0.9-0.8
			c0.1-2.2,0.8-14.2,0.8-16.2v-0.1C501.3,68.2,500.8,68,500.5,68z"/>
		<path class="st4" d="M408.3,63c-0.2-0.3-0.3-0.7-0.5-1c-1.9-4.2-2.3-7.7-1.8-10.4c1.1-5.9,6.6-8,10.8-6.3c0.2,0.1,0.5,0.2,0.7,0.3
			c2.9,1.5,3.6,3.7,3.7,5.4l0,0c10.7-14.6,0.6-25.8-9.2-24.6c-5.1,0.6-7.4,3.4-8.6,5.8c-1.1-2.4-3.5-5.2-8.6-5.8
			c-0.4-0.1-0.8-0.1-1.2-0.1c-12.6-0.2-24.2,19.4,9.7,39.7l0.1,0.1l0.2-0.1C405.4,65,406.9,64,408.3,63L408.3,63z"/>
		<path class="st2" d="M413.6,71.2l0.1,0c25.5-4.5,22.1-19.6,14.1-21.6c-3.1-0.8-5.2,0.3-6.4,1.5c0,0,0,0,0,0l0,0
			c-2.8,3.8-7,7.9-13,12l0,0C409.6,65.5,411.2,68.2,413.6,71.2L413.6,71.2z"/>
		<path class="st1" d="M417.6,45.6c-0.2-0.1-0.5-0.2-0.7-0.3c-4.2-1.7-9.7,0.5-10.8,6.3c-0.5,2.7-0.1,6.2,1.8,10.4
			c0.2,0.3,0.3,0.7,0.5,1l0,0c6-4.1,10.2-8.2,13-12l0,0C421.2,49.3,420.5,47.1,417.6,45.6z"/>
		<path class="st4" d="M140.2,64.1c-0.3,0.7-0.6,1.4-0.9,2l-5.5,13.1l-7.3,17.5l-2.9,6.9l-2.9,6.9c-0.3,0.7-0.6,1.6-0.9,2.4
			c-1.4,3.8-3.1,8.5-7.5,10.2c-0.7,0.3-1.4,0.5-2.1,0.6c-2.1,0.5-4.3,0.8-6.4,0.8c-4.1,0-7.7-1-10.6-3c-1.1-0.7-2.1-1.6-3-2.7
			c-1.1-1.4-1.9-3.1-2.2-4.9c-3.4-15.1-8.2-13.6-11.6-0.6c-0.6,2.3-1.2,5-2.8,7c-2,2.7-5,3.8-7.1,4.2c-1.8,0.4-3.7,0.6-5.5,0.5
			c-2,0-4.1-0.2-6-0.3c-4.3-0.4-7.5-1.9-9.9-4.6c-2.5-2.8-3-5.8-3.5-8.6c-0.1-0.6-0.2-1.2-0.3-1.9c-0.3-1.5-0.7-3-1-4.5
			c-0.2-0.8-0.3-1.5-0.5-2.3l-4.1-18.6l-4-17.9c-0.2-0.8-0.4-1.6-0.6-2.4c-0.8-3.4-1.6-6.9-1.6-10.5c0-2.8,0.3-5.9,2.2-8.4
			c2.8-3.7,8.3-4.5,12.4-4.5c1,0,1.9,0,2.9,0.1c2.2,0.2,4,0.8,5.4,1.9c2.7,2.1,3.3,5.4,3.7,8.1c0.1,0.4,0.1,0.8,0.2,1.2l1.6,8.2
			l2.1,15.5c0.6,3.2,2.7,2.8,3.4,0c0,0,0.6-1.8,0.6-1.8c0-0.1,0-0.1,0.1-0.2c0.2-0.9,0.5-1.7,0.7-2.6c1.8-6.3,3.7-12.9,6-19.5l0-0.1
			c2.6-6.3,8-9.9,14.9-9.9c1.2,0,2.3,0.1,3.5,0.3c3.3,0.6,7.1,1.4,10.1,3.9c3,2.6,3.9,6.6,4.6,10.3c0.7,3.7,0.7,8.4,1.1,12.2
			c0.1,1,0.8,7.4,3.1,6.2c1.5-0.7,1.9-3.6,2.3-4.9c2.4-7.6,4.7-14.9,8.2-22.1c1-2.1,3.2-5.6,6.9-6.6c0.9-0.2,1.9-0.3,2.8-0.3
			c5.8,0,14.3,3.6,15.1,10.3C144.2,55.2,142,60.1,140.2,64.1z"/>
	</g>
</g>
</svg>
