<?xml version="1.0" encoding="utf-8"?>
<!-- Generator: Adobe Illustrator 26.4.1, SVG Export Plug-In . SVG Version: 6.00 Build 0)  -->
<svg version="1.1" id="Layer_1" xmlns="http://www.w3.org/2000/svg" xmlns:xlink="http://www.w3.org/1999/xlink" x="0px" y="0px"
	 viewBox="0 0 368 130" style="enable-background:new 0 0 368 130;" xml:space="preserve">
<style type="text/css">
	.st0{fill:#FFFFFF;}
	.st1{fill:#F15B2A;}
	.st2{fill:#EC028D;}
	.st3{fill:#20BA16;}
</style>
<path class="st0" d="M178.9,111.8c-8.6-2.9-17.1-5.8-25.9-8.8c0.9-3.4,1.7-6.6,2.6-10.1c-5-0.8-9.9-1.6-15-2.5
	c-0.4,3.3-0.8,6.3-1.3,9.6c-9.2-0.6-18.2-1.1-27.5-1.7c0.1-1.6,0.1-3,0.3-4.4c1.4-13.7,2.8-27.5,4.4-41.2c0.5-4.8,1.6-9.6,3.7-14.1
	c5.6-12.3,15.1-19.4,28.6-20.8c11-1.1,21.4,1.2,30.3,8.1c11,8.6,15.8,20,14.3,33.9c-0.7,7.2-2.9,14.1-4.9,21
	c-2.9,9.7-5.9,19.4-8.8,29.1C179.4,110.6,179.2,111.1,178.9,111.8z M159.3,78.5c0.2-0.5,0.3-0.7,0.4-1c1.2-5.4,2.5-10.7,3.6-16.1
	c0.7-3.4,0.3-6.7-1.5-9.7c-2.5-4.3-9.3-5.7-13.1-1.2c-1.5,1.7-2.6,3.7-3.1,5.9c-0.5,2-0.9,4.1-1.2,6.1c-0.7,4.3-1.4,8.6-2.1,13.1
	C148.1,76.5,153.7,77.5,159.3,78.5z"/>
<path class="st1" d="M74.5,108.6c-8.7,2-17.2,3.9-25.9,5.8c-7.1-27.9-14.2-55.6-21.3-83.7C50.1,25.4,72.8,20,95.8,14.5
	c1.8,8.6,3.7,17.1,5.5,25.8C88.2,43.7,75.2,47.1,62,50.6c0.4,2,0.7,3.7,1.1,5.7c12.3-2.9,24.4-5.8,36.8-8.7
	c1.8,6.9,3.5,13.6,5.3,20.6c-12.5,3.2-24.8,6.4-37.4,9.7C70.1,88.1,72.3,98.2,74.5,108.6z"/>
<path class="st2" d="M279.9,28.1c7.5,0.7,15,1.3,22.7,2c0,0.7,0,1.3,0,1.9c-0.9,11.3-1.9,22.6-2.8,33.9c-0.2,2.5-0.3,5-0.1,7.4
	c0.4,7.2,7.1,11.1,13.6,8c2.3-1.1,3.7-2.9,4-5.3c0.4-3.1,0.5-6.2,0.4-9.3c-0.3-7.9-0.8-15.8-1.2-23.7c-0.2-3.6-0.4-7.2-0.6-10.8
	c0-0.5,0-0.9,0-1.6c7.6-0.5,15.2-1,22.8-1.5c0.1,0.7,0.3,1.2,0.3,1.7c0.5,9.4,1.1,18.8,1.6,28.3c0.2,5,0.5,9.9,0.4,14.9
	c-0.2,9-3.2,16.9-9.8,23.2c-4.9,4.7-10.9,7.3-17.6,8c-6.6,0.7-13.1,0.1-19.2-2.9c-9.5-4.8-15.1-12.6-17.3-22.9
	c-1.2-5.7-0.7-11.5-0.3-17.2c0.5-7.1,1.1-14.2,1.7-21.3c0.3-4,0.7-8,1-11.9C279.6,28.7,279.8,28.5,279.9,28.1z"/>
<path class="st3" d="M201,19.3c23.7-0.4,47-0.9,70.6-1.3c0.4,7.6,0.7,15.1,1.1,22.8c-6.9,0.2-13.7,0.4-20.7,0.7
	c-0.4,20.7-0.8,41.1-1.3,61.7c-8.5,0-16.8,0-25.3,0c-0.4-20.2-0.9-40.4-1.3-60.9c-7.8,0.2-15.4,0.5-23.2,0.7
	C201,35.1,201,27.4,201,19.3z"/>
</svg>
