<svg id="ic_art_nutrition" xmlns="http://www.w3.org/2000/svg" width="48.411" height="51.601" viewBox="0 0 48.411 51.601">
  <rect id="Rectangle_510" data-name="Rectangle 510" width="20" height="20" transform="translate(8.38 8.8)" fill="none"/>
  <g id="Group_2111" data-name="Group 2111">
    <g id="Group_1978" data-name="Group 1978" transform="translate(0 8.033)">
      <path id="Path_1080" data-name="Path 1080" d="M904.738,525.337c-4.261,0-5.505-.609-6.591-1.337a4.014,4.014,0,0,0-3.891,0c-1.085.728-2.329,1.337-6.591,1.337a8.334,8.334,0,0,1-4.619-1.562c-5.8-3.9-11.077-15.272-11.077-23.875,0-10.164,6.352-18.131,14.465-18.131,4.923,0,6.763,1.059,8.1,1.84a2.559,2.559,0,0,0,3.282,0c1.35-.781,3.189-1.84,8.1-1.84,5.757,0,10.958,4.208,13.234,10.72h0a22.223,22.223,0,0,1,1.231,7.411C920.434,509.483,913.1,525.337,904.738,525.337Z" transform="translate(-871.97 -481.77)" fill="#ff8d6b"/>
      <path id="Path_1005" data-name="Path 1005" d="M904.738,525.337c-4.261,0-5.505-.609-6.591-1.337a4.014,4.014,0,0,0-3.891,0c-1.085.728-2.329,1.337-6.591,1.337a8.334,8.334,0,0,1-4.619-1.562c-5.8-3.9-11.077-15.272-11.077-23.875,0-10.164,6.352-18.131,14.465-18.131,4.923,0,6.763,1.059,8.1,1.84a2.559,2.559,0,0,0,3.282,0c1.35-.781,3.189-1.84,8.1-1.84,5.757,0,10.958,4.208,13.234,10.72h0a22.223,22.223,0,0,1,1.231,7.411C920.434,509.483,913.1,525.337,904.738,525.337Zm-8.523-3.97a4.651,4.651,0,0,1,3.123.873c.648.437,1.443.979,5.4.979,6.419,0,13.565-13.9,13.565-23.319a20.164,20.164,0,0,0-1.112-6.71c-1.985-5.651-6.392-9.3-11.236-9.3-4.354,0-5.849.86-7.054,1.548a5.038,5.038,0,0,1-2.7.887,4.961,4.961,0,0,1-2.7-.887c-1.2-.688-2.7-1.548-7.054-1.548-6.922,0-12.348,7.027-12.348,16.013,0,7.861,4.923,18.608,10.137,22.115a6.263,6.263,0,0,0,3.428,1.2c3.957,0,4.764-.543,5.4-.979A4.76,4.76,0,0,1,896.215,521.367Z" transform="translate(-871.97 -481.77)"/>
    </g>
    <g id="Group_1979" data-name="Group 1979" transform="translate(17.297)">
      <path id="Path_1006" data-name="Path 1006" d="M891.988,486.724a1.062,1.062,0,0,1-1.059-1.059c0-6.763-1.429-7.848-4.831-7.848a1.059,1.059,0,0,1,0-2.117c5.81,0,6.948,3.653,6.948,9.965A1.053,1.053,0,0,1,891.988,486.724Z" transform="translate(-885.04 -475.7)"/>
    </g>
    <g id="Group_1980" data-name="Group 1980" transform="translate(23.186 11.051)">
      <path id="Path_1079" data-name="Path 1079" d="M907.41,502.543h-.538c-.185,0-16.961.323-16.961-17.344,0-.582-.045-.717.538-.717,17.668,0,16.961,16.609,16.961,16.781,0,.278.449.626.251.825S907.688,502.543,907.41,502.543Z" transform="translate(-889.339 -483.896)" fill="#ffd2c4"/>
      <path id="Path_1007" data-name="Path 1007" d="M907.383,503h0c-.186,0-17.893-.225-17.893-17.893a1.062,1.062,0,0,1,1.059-1.059c17.668,0,17.893,17.721,17.893,17.893a1.072,1.072,0,0,1-.3.754A1.1,1.1,0,0,1,907.383,503Zm-15.762-16.808c.582,12.321,11.1,14.32,14.637,14.637C905.927,497.3,903.915,486.776,891.621,486.194Z" transform="translate(-889.49 -484.05)"/>
    </g>
  </g>
</svg>
