<svg id="ic_growth_color" xmlns="http://www.w3.org/2000/svg" width="60" height="60" viewBox="0 0 60 60">
  <rect id="Rectangle_527" data-name="Rectangle 527" width="60" height="60" fill="none"/>
  <g id="Group_2128" data-name="Group 2128" transform="translate(16)">
    <g id="Group_1961" data-name="Group 1961">
      <g id="Group_1959" data-name="Group 1959" transform="translate(1.088 1.088)">
        <path id="Path_989" data-name="Path 989" d="M1317.52,441.064h23.018a.682.682,0,0,0,.68-.68V383.92a.682.682,0,0,0-.68-.68H1317.52a.682.682,0,0,0-.68.68v56.465A.682.682,0,0,0,1317.52,441.064Z" transform="translate(-1316.84 -383.24)" fill="#ab8ad5"/>
      </g>
      <g id="Group_1960" data-name="Group 1960">
        <path id="Path_990" data-name="Path 990" d="M1340.826,442.44h-23.018a1.764,1.764,0,0,1-1.768-1.767V384.207a1.764,1.764,0,0,1,1.768-1.767h23.018a1.764,1.764,0,0,1,1.767,1.767v56.465A1.764,1.764,0,0,1,1340.826,442.44Zm-22.61-2.175h22.2V384.615h-22.2Z" transform="translate(-1316.04 -382.44)" fill="#070707"/>
      </g>
    </g>
    <g id="Shape_488_165_" transform="translate(0.381 9.64)">
      <g id="Group_1962" data-name="Group 1962" transform="translate(1.088 1.088)">
        <path id="Path_991" data-name="Path 991" d="M1317.12,390.33h11.8" transform="translate(-1317.12 -390.33)" fill="#fff"/>
      </g>
      <g id="Group_1963" data-name="Group 1963">
        <path id="Path_992" data-name="Path 992" d="M1329.209,391.705h-11.8a1.088,1.088,0,1,1,0-2.175h11.8a1.088,1.088,0,1,1,0,2.175Z" transform="translate(-1316.32 -389.53)" fill="#070707"/>
      </g>
    </g>
    <g id="Shape_488_164_" transform="translate(0.381 48.185)">
      <g id="Group_1964" data-name="Group 1964" transform="translate(1.088 1.088)">
        <path id="Path_993" data-name="Path 993" d="M1317.12,418.68h11.8" transform="translate(-1317.12 -418.68)" fill="#fff"/>
      </g>
      <g id="Group_1965" data-name="Group 1965">
        <path id="Path_994" data-name="Path 994" d="M1329.209,420.055h-11.8a1.088,1.088,0,1,1,0-2.175h11.8a1.088,1.088,0,1,1,0,2.175Z" transform="translate(-1316.32 -417.88)" fill="#070707"/>
      </g>
    </g>
    <g id="Shape_488_163_" transform="translate(0.394 38.559)">
      <g id="Group_1966" data-name="Group 1966" transform="translate(1.074 1.088)">
        <path id="Path_995" data-name="Path 995" d="M1317.12,411.6h7.532" transform="translate(-1317.12 -411.6)" fill="#fff"/>
      </g>
      <g id="Group_1967" data-name="Group 1967">
        <path id="Path_996" data-name="Path 996" d="M1324.95,412.975h-7.532a1.088,1.088,0,1,1,0-2.175h7.532a1.088,1.088,0,0,1,0,2.175Z" transform="translate(-1316.33 -410.8)" fill="#070707"/>
      </g>
    </g>
    <g id="Shape_488_162_" transform="translate(0.394 19.279)">
      <g id="Group_1968" data-name="Group 1968" transform="translate(1.074 1.088)">
        <path id="Path_997" data-name="Path 997" d="M1317.12,397.42h7.532" transform="translate(-1317.12 -397.42)" fill="#fff"/>
      </g>
      <g id="Group_1969" data-name="Group 1969">
        <path id="Path_998" data-name="Path 998" d="M1324.95,398.8h-7.532a1.088,1.088,0,1,1,0-2.175h7.532a1.088,1.088,0,0,1,0,2.175Z" transform="translate(-1316.33 -396.62)" fill="#070707"/>
      </g>
    </g>
    <g id="Shape_488_81_" transform="translate(0.381 28.919)">
      <g id="Group_1970" data-name="Group 1970" transform="translate(1.088 1.088)">
        <path id="Path_999" data-name="Path 999" d="M1317.12,404.51h11.8" transform="translate(-1317.12 -404.51)" fill="#fff"/>
      </g>
      <g id="Group_1971" data-name="Group 1971">
        <path id="Path_1000" data-name="Path 1000" d="M1329.209,405.885h-11.8a1.088,1.088,0,1,1,0-2.175h11.8a1.088,1.088,0,1,1,0,2.175Z" transform="translate(-1316.32 -403.71)" fill="#070707"/>
      </g>
    </g>
  </g>
  <g id="Group_2129" data-name="Group 2129" transform="translate(33.947)">
    <g id="Group_1973" data-name="Group 1973" transform="translate(1.088 1.088)">
      <path id="Path_1001" data-name="Path 1001" d="M1330.72,441.064h5.071a.682.682,0,0,0,.68-.68V383.92a.682.682,0,0,0-.68-.68h-5.071a.682.682,0,0,0-.68.68v56.465A.673.673,0,0,0,1330.72,441.064Z" transform="translate(-1330.04 -383.24)" fill="#d5c5ea"/>
    </g>
    <g id="Group_1974" data-name="Group 1974">
      <path id="Path_1002" data-name="Path 1002" d="M1336.079,442.44h-5.071a1.764,1.764,0,0,1-1.768-1.767V384.207a1.764,1.764,0,0,1,1.768-1.767h5.071a1.764,1.764,0,0,1,1.767,1.767v56.465A1.764,1.764,0,0,1,1336.079,442.44Zm-4.664-2.175h4.256V384.615h-4.256Z" transform="translate(-1329.24 -382.44)" fill="#070707"/>
    </g>
  </g>
</svg>
