<svg xmlns="http://www.w3.org/2000/svg" width="100" height="100" viewBox="0 0 100 100"><g transform="translate(-12900 4005)"><rect width="100" height="100" transform="translate(12900 -4005)" fill="none" opacity="0.2"/><g transform="translate(12908 -3991)"><path d="M234.365,204.086c-5.016-1.3-8.311.493-10.259,2.375-.011-.166-.028-.333-.046-.5-4.438,6.171-11.181,12.726-20.86,19.4a75.307,75.307,0,0,0,8.4,13.2l.077.1.21-.038C252.636,231.47,247.242,207.329,234.365,204.086Z" transform="translate(-159.767 -166.656)" fill="#fff"/><path d="M218.892,196.157c-.3-2.632-1.648-5.891-5.944-8.182a10,10,0,0,0-1.116-.53c-10.047-4.108-24.685,5.645-13.8,28.112C207.711,208.883,214.453,202.329,218.892,196.157Z" transform="translate(-154.602 -156.856)" fill="#b3e7fa"/><path d="M158.711,147.7a10.047,10.047,0,0,1,1.116.531c4.3,2.289,5.643,5.55,5.944,8.18,16.723-23.263.653-41.077-14.92-39.143-8.078.951-11.885,5.441-13.674,9.3-1.8-3.858-5.609-8.342-13.688-9.312a15.514,15.514,0,0,0-1.935-.142c-20.069-.361-38.6,31.05,15.5,63.534l.172.107.286-.171q3.957-2.393,7.4-4.771C134.026,153.35,148.664,143.6,158.711,147.7Z" transform="translate(-101.48 -117.116)" fill="#00aeef"/></g></g></svg>