<svg width="16" height="16" viewBox="0 0 16 16" fill="none" xmlns="http://www.w3.org/2000/svg">
  <path d="M4.55738 12.2427C5.53893 13.2242 6.83046 13.8351 8.21191 13.9711C9.59335 14.1072 10.9792 13.7601 12.1334 12.9889C13.2876 12.2177 14.1387 11.0701 14.5417 9.74179C14.9446 8.41343 14.8745 6.98645 14.3433 5.70398C13.8121 4.42151 12.8527 3.3629 11.6285 2.70853C10.4043 2.05416 8.99101 1.84452 7.62955 2.11532C6.26809 2.38612 5.04265 3.12061 4.16202 4.19364C3.28139 5.26667 2.80006 6.61186 2.80005 7.99999V9.33332" stroke="#777779" stroke-width="1.5" stroke-linecap="round" stroke-linejoin="round"/>
  <path d="M1.46655 7.99998L2.79989 9.33332L4.13322 7.99998" stroke="#777779" stroke-width="1.5" stroke-linecap="round" stroke-linejoin="round"/>
  <path d="M8.1333 5.33334V8.66667H11.4666" stroke="#777779" stroke-width="1.5" stroke-linecap="round" stroke-linejoin="round"/>
</svg>
