<svg xmlns="http://www.w3.org/2000/svg" width="90" height="90" viewBox="0 0 90 90"><rect width="90" height="90" fill="none"/><g transform="translate(16 9)"><g transform="translate(24.949 11.672)"><path d="M167.942,135.537q.5,0,1,.049t.989.147q.491.1.969.243t.941.337q.462.191.9.427t.857.514q.415.278.8.6t.74.671q.354.354.671.741t.6.8q.278.416.514.857t.428.9q.191.462.336.941t.243.969q.1.491.146.988t.049,1q0,.5-.049,1t-.146.988q-.1.491-.243.969t-.336.941q-.192.462-.428.9t-.514.857q-.278.416-.6.8t-.671.74q-.353.354-.74.671t-.8.595q-.416.278-.857.514t-.9.427q-.463.192-.941.336t-.969.243q-.491.1-.989.147t-1,.049q-.5,0-1-.049t-.989-.147q-.491-.1-.969-.243t-.941-.336q-.462-.192-.9-.427t-.857-.514q-.415-.277-.8-.595t-.74-.671q-.354-.354-.671-.74t-.6-.8q-.278-.416-.514-.857t-.428-.9q-.191-.462-.336-.941t-.242-.969q-.1-.491-.147-.988t-.049-1q0-.5.049-1t.147-.988q.1-.49.242-.969t.336-.941q.192-.462.428-.9t.514-.857q.278-.416.6-.8t.671-.741q.354-.354.74-.671t.8-.6q.416-.278.857-.514t.9-.427q.463-.192.941-.337t.969-.243q.491-.1.989-.147T167.942,135.537Z" transform="translate(-157.76 -135.537)" fill="#b3e7fa"/></g><g transform="translate(24.38 11.104)"><path d="M167.01,155.537c-.351,0-.706-.017-1.054-.052s-.7-.086-1.043-.155-.688-.155-1.023-.256-.669-.221-.994-.355-.646-.286-.954-.451-.614-.348-.905-.542-.576-.406-.847-.628-.534-.461-.782-.709-.486-.511-.708-.782-.434-.556-.628-.847-.377-.6-.543-.905-.316-.629-.451-.954-.254-.659-.355-.993-.188-.68-.257-1.023-.121-.7-.155-1.044-.052-.7-.052-1.054.018-.706.052-1.054.086-.7.155-1.043.155-.689.257-1.024.221-.669.355-.993.286-.646.451-.954a10.49,10.49,0,0,1,.543-.905c.194-.291.406-.576.628-.847s.46-.533.708-.781.51-.485.781-.708.556-.434.848-.629.6-.377.9-.542.63-.317.953-.451.659-.255.994-.355.679-.188,1.023-.256.695-.12,1.043-.155a10.823,10.823,0,0,1,2.107,0c.349.035.7.086,1.044.155s.689.155,1.023.256.669.221.993.355.644.286.954.451.613.347.905.542.577.406.847.628.534.461.781.708.487.512.709.782.434.556.628.847.378.6.543.905.317.629.451.954.254.659.355.993.188.679.256,1.023.12.695.155,1.044.052.7.052,1.054-.017.706-.052,1.054-.086.7-.155,1.043-.155.688-.256,1.023-.221.668-.355.993-.287.646-.451.954-.347.613-.542.905-.406.576-.628.847-.46.534-.708.782-.512.487-.782.709-.556.433-.847.628-.6.377-.9.543-.629.316-.953.451-.659.254-.994.355-.679.188-1.023.256-.7.121-1.044.155S167.362,155.537,167.01,155.537Zm0-20.363c-.312,0-.629.015-.942.046s-.626.077-.933.138-.615.138-.915.229-.6.2-.888.318-.576.256-.853.4-.548.31-.809.485-.516.363-.758.562-.478.413-.7.634-.435.458-.634.7-.388.5-.562.758-.337.532-.485.809-.284.563-.4.853-.227.589-.318.888-.168.607-.229.915-.108.623-.139.933-.046.628-.046.942.016.631.046.942.077.625.139.933.138.616.229.915.2.6.318.888.256.577.4.852.312.55.485.809.363.516.562.758.412.478.634.7.457.435.7.633.5.388.758.562.532.337.809.485a9.4,9.4,0,0,0,.853.4c.29.12.589.227.888.318s.608.168.915.229.623.107.933.138a9.666,9.666,0,0,0,1.885,0c.31-.031.625-.077.934-.138s.615-.139.915-.229.6-.2.888-.318.577-.256.853-.4.549-.311.809-.485.516-.364.758-.562.476-.411.7-.634.435-.457.633-.7.388-.5.562-.758.338-.534.485-.809.283-.562.4-.853.227-.589.318-.888.168-.608.229-.915.107-.621.138-.933.046-.628.046-.942-.016-.631-.046-.942-.077-.626-.138-.933-.139-.616-.229-.915-.2-.6-.318-.888-.256-.577-.4-.853-.311-.548-.485-.809-.363-.516-.562-.758-.411-.477-.634-.7-.457-.434-.7-.633-.5-.388-.758-.562-.533-.338-.809-.485-.564-.284-.853-.4-.589-.227-.888-.318-.607-.168-.915-.229-.621-.108-.933-.138S167.323,135.174,167.01,135.174Z" transform="translate(-156.26 -134.037)"/></g><g transform="translate(22.054 34.966)"><path d="M163.222,233.467h-1.876a3.369,3.369,0,0,1-3.394-3.085l-.881-9.624h-2.513c-1.928,0-3.405-2.442-3.625-5.912l-.771-10.825a4.374,4.374,0,0,1,.54-2.623,8.207,8.207,0,0,1,7.4-4.4h10.281a8.207,8.207,0,0,1,7.4,4.4,4.373,4.373,0,0,1,.54,2.623l-.771,10.825c-.22,3.47-1.7,5.912-3.625,5.912h-2.513l-.881,9.624a3.369,3.369,0,0,1-3.394,3.085h-1.926Z" transform="translate(-150.122 -197.002)" fill="#b3e7fa"/></g><g transform="translate(21.485 34.397)"><path d="M164.216,233.1h-3.8a3.939,3.939,0,0,1-3.96-3.6l-.833-9.1h-1.994c-2.263,0-3.948-2.59-4.193-6.445l-.769-10.8a4.839,4.839,0,0,1,.6-2.942,8.716,8.716,0,0,1,7.913-4.711h10.281a8.717,8.717,0,0,1,7.913,4.711,4.838,4.838,0,0,1,.6,2.943l-.77,10.8c-.244,3.851-1.929,6.44-4.192,6.44H169.01l-.834,9.107A3.94,3.94,0,0,1,164.216,233.1Zm-7.041-36.466a7.684,7.684,0,0,0-6.9,4.083,3.743,3.743,0,0,0-.488,2.275c0,.018,0,.036.006.054l.771,10.824c.2,3.122,1.484,5.384,3.058,5.384h2.513a.568.568,0,0,1,.566.517l.881,9.624a2.81,2.81,0,0,0,2.828,2.569h3.8a2.81,2.81,0,0,0,2.828-2.566l.881-9.627a.568.568,0,0,1,.566-.517H171c1.574,0,2.86-2.263,3.058-5.38l.772-10.829c0-.018,0-.036.006-.054a3.745,3.745,0,0,0-.488-2.275,7.685,7.685,0,0,0-6.9-4.083Z" transform="translate(-148.62 -195.502)"/></g><g transform="translate(0.568 0.571)"><path d="M110.86,129.2a17.131,17.131,0,1,1,17.132,17.131h0A17.151,17.151,0,0,1,110.86,129.2Zm-12.528,33.72,15.654-15.654a22.912,22.912,0,1,0-4.061-4.061L94.271,158.858a2.871,2.871,0,0,0,0,4.06h0A3.336,3.336,0,0,0,98.332,162.919Z" transform="translate(-93.43 -106.247)" fill="#00aeef"/></g><path d="M95.272,163.237a3.33,3.33,0,0,1-2.334-5.717l15.3-15.3a23.481,23.481,0,1,1,4.865,4.865l-15.3,15.3a.556.556,0,0,1-.072.061A4.267,4.267,0,0,1,95.272,163.237Zm31.871-57.36a22.706,22.706,0,0,0-2.845.18,22.344,22.344,0,0,0-14.856,35.863.568.568,0,0,1-.047.75L93.742,158.324a2.3,2.3,0,0,0,0,3.257,2.76,2.76,0,0,0,3.293-.035l15.619-15.619a.569.569,0,0,1,.75-.047,22.344,22.344,0,1,0,13.74-40ZM97.4,161.983h0Zm29.66-16.021a17.749,17.749,0,0,1-17.7-17.7h0a17.7,17.7,0,1,1,17.7,17.7Zm-16.563-17.7A16.563,16.563,0,1,0,127.06,111.7,16.61,16.61,0,0,0,110.5,128.262Z" transform="translate(-91.93 -104.739)"/></g></svg>