<svg width="62" height="62" viewBox="0 0 62 62" fill="none" xmlns="http://www.w3.org/2000/svg">
<circle cx="31" cy="31" r="31" fill="#D1EDF7"/>
<path d="M35.3155 28.9936H26.6726C26.5604 28.9936 26.4528 28.9491 26.3734 28.8697C26.2941 28.7904 26.2495 28.6827 26.2495 28.5705C26.2495 28.4582 26.2941 28.3506 26.3734 28.2713C26.4528 28.1919 26.5604 28.1474 26.6726 28.1474H35.3155C35.4277 28.1474 35.5352 28.1919 35.6146 28.2713C35.694 28.3506 35.7385 28.4582 35.7385 28.5705C35.7385 28.6827 35.694 28.7904 35.6146 28.8697C35.5352 28.9491 35.4277 28.9936 35.3155 28.9936Z" fill="#070707"/>
<path d="M35.3155 32.7694H26.6726C26.5604 32.7694 26.4528 32.7249 26.3734 32.6455C26.2941 32.5661 26.2495 32.4585 26.2495 32.3463C26.2495 32.234 26.2941 32.1264 26.3734 32.0471C26.4528 31.9677 26.5604 31.9231 26.6726 31.9231H35.3155C35.4277 31.9231 35.5352 31.9677 35.6146 32.0471C35.694 32.1264 35.7385 32.234 35.7385 32.3463C35.7385 32.4585 35.694 32.5661 35.6146 32.6455C35.5352 32.7249 35.4277 32.7694 35.3155 32.7694Z" fill="#070707"/>
<path d="M20.0757 41.9579C19.963 41.9574 19.8547 41.9135 19.7735 41.8354C19.7121 41.7731 19.6712 41.6936 19.6562 41.6075C19.6413 41.5213 19.6529 41.4327 19.6897 41.3533L22.3976 35.6726C21.504 34.1603 21.0264 32.4386 21.0132 30.6821C20.9999 28.9255 21.4516 27.1968 22.3224 25.6713C23.1931 24.1457 24.4519 22.8777 25.9711 21.9958C27.4902 21.1139 29.2156 20.6496 30.9722 20.65H30.9923C32.5246 20.6503 34.0363 21.0038 35.4098 21.6832C36.7833 22.3625 37.9817 23.3494 38.9118 24.5671C39.842 25.7848 40.479 27.2006 40.7732 28.7044C41.0674 30.2083 41.0109 31.7596 40.6081 33.2381C40.2053 34.7165 39.4671 36.0822 38.4508 37.2291C37.4346 38.3759 36.1676 39.273 34.7483 39.8506C33.329 40.4283 31.7957 40.671 30.2674 40.5598C28.7391 40.4487 27.257 39.9867 25.9363 39.2097L20.2555 41.9176C20.1986 41.942 20.1376 41.9557 20.0757 41.9579ZM30.9768 21.4978C29.3519 21.498 27.7566 21.9328 26.3562 22.7571C24.9559 23.5814 23.8014 24.7653 23.0126 26.1859C22.2238 27.6066 21.8292 29.2123 21.8699 30.8368C21.9106 32.4612 22.385 34.0452 23.2439 35.4246C23.2812 35.4854 23.3028 35.5545 23.3066 35.6257C23.3103 35.6968 23.2962 35.7679 23.2656 35.8323L20.9747 40.645L25.7875 38.3541C25.8517 38.3239 25.9224 38.31 25.9932 38.3138C26.0641 38.3176 26.1329 38.3389 26.1935 38.3758C27.393 39.1198 28.7488 39.5753 30.1541 39.7065C31.5595 39.8377 32.9762 39.6409 34.2926 39.1317C35.609 38.6225 36.7893 37.8148 37.7406 36.7721C38.6919 35.7293 39.3883 34.48 39.7748 33.1225C40.1614 31.765 40.2276 30.3363 39.9684 28.9488C39.7091 27.5614 39.1315 26.253 38.2808 25.1267C37.4302 24.0004 36.3296 23.0868 35.066 22.4579C33.8023 21.8291 32.41 21.502 30.9986 21.5025L30.9768 21.4978Z" fill="#070707"/>
</svg>
