<svg xmlns="http://www.w3.org/2000/svg" xmlns:xlink="http://www.w3.org/1999/xlink" width="100" height="100" viewBox="0 0 100 100">
  <defs>
    <clipPath id="clip-path">
      <rect id="Rectangle_635" data-name="Rectangle 635" width="84.001" height="72.596" fill="none"/>
    </clipPath>
  </defs>
  <g id="img-logo-chatbot-new" transform="translate(-12900 4005)">
    <rect id="Rectangle_634" data-name="Rectangle 634" width="100" height="100" transform="translate(12900 -4005)" fill="none" opacity="0.2"/>
    <g id="Group_2467" data-name="Group 2467" transform="translate(12908 -3991.001)">
      <g id="Group_2465" data-name="Group 2465" transform="translate(0 0.002)" clip-path="url(#clip-path)">
        <path id="Path_2393" data-name="Path 2393" d="M81.929,14.02C81.018,7.093,76.3,1.668,69.368.355a22.755,22.755,0,0,0-16.11,3.3l-.008,0q-.625.38-1.232.792h0A30.3,30.3,0,0,0,49.239,6.6c-.224.193-.45.384-.668.584-.432.4-.857.809-1.276,1.231h0a40.985,40.985,0,0,0-6.335,8.221C33.7,7.08,21.3-1.278,9.937,6.305A23.142,23.142,0,0,0,.005,24.967,26.464,26.464,0,0,0,5.286,40.856l.1.136A36.89,36.89,0,0,0,7.835,44.05l0,0c.6.673,1.22,1.329,1.864,1.961l.089.085c.363.354.729.705,1.1,1.046h0q1.316,1.2,2.711,2.279c9.072,7.039,19.826,12.329,29.976,17.621a2.5,2.5,0,0,0,2.924-.377c3.224-2.882,6.488-5.763,9.7-8.71h0q2.491-2.289,4.92-4.644h0A120.412,120.412,0,0,0,72.86,40.327c5.738-7.493,10.346-16.6,9.069-26.307" transform="translate(0 0)" fill="#009cdc"/>
        <path id="Path_2394" data-name="Path 2394" d="M117.567,130.362a1.853,1.853,0,0,0-1.5-1.634,2.721,2.721,0,0,0-1.927.395h0q-.075.046-.147.095h0a3.625,3.625,0,0,0-.332.257c-.027.023-.054.046-.08.07-.052.047-.1.1-.153.147a4.907,4.907,0,0,0-.758.983c-.868-1.143-2.351-2.143-3.711-1.236a2.768,2.768,0,0,0-1.188,2.232,3.166,3.166,0,0,0,.632,1.9l.012.016a4.425,4.425,0,0,0,.293.366h0c.072.081.146.159.223.235l.011.01c.043.042.087.084.132.125h0q.157.143.324.273a23.521,23.521,0,0,0,3.585,2.108.3.3,0,0,0,.35-.045c.385-.345.776-.689,1.16-1.042h0q.3-.274.589-.555h0a14.4,14.4,0,0,0,1.4-1.553,4.363,4.363,0,0,0,1.085-3.147" transform="translate(-91.112 -108.797)" fill="#fff"/>
        <path id="Path_2395" data-name="Path 2395" d="M386.9,96.756a1.853,1.853,0,0,0-1.5-1.634,2.721,2.721,0,0,0-1.927.395h0q-.075.046-.147.095h0a3.619,3.619,0,0,0-.332.257c-.027.023-.054.046-.08.07-.052.047-.1.1-.153.147a4.9,4.9,0,0,0-.758.983c-.868-1.143-2.351-2.143-3.711-1.236a2.768,2.768,0,0,0-1.188,2.232,3.167,3.167,0,0,0,.632,1.9l.012.016a4.416,4.416,0,0,0,.293.366h0c.072.08.146.159.223.235l.011.01c.043.042.087.084.132.125h0q.157.143.324.273a23.521,23.521,0,0,0,3.585,2.108.3.3,0,0,0,.35-.045c.385-.345.776-.689,1.16-1.042h0q.3-.274.589-.555h0a14.425,14.425,0,0,0,1.4-1.553,4.363,4.363,0,0,0,1.085-3.147" transform="translate(-318.822 -80.385)" fill="#fff"/>
        <path id="Path_2396" data-name="Path 2396" d="M45.666,308.875a38.754,38.754,0,0,0,8.116,7c.734.48,1.433,1.032,2.18,1.484l2.26,1.315,1.13.658,1.17.556L62.864,321a62.135,62.135,0,0,0,19.713,4.837l5.051.313,5.058-.157,2.529-.085,2.517-.313,5.033-.626c3.336-.582,6.645-1.387,9.966-2.084l9.88-2.683-9.763,3.3c-3.335.7-6.659,1.509-10.01,2.093l-5.059.629-2.529.314-2.543.085-5.087.157-5.083-.315a62.608,62.608,0,0,1-19.863-4.876l-2.363-1.118-1.18-.561-1.141-.664-2.282-1.328c-.75-.466-1.475-.989-2.2-1.5a39.609,39.609,0,0,1-7.836-7.542" transform="translate(-38.608 -261.14)" fill="#fff"/>
        <path id="Path_2397" data-name="Path 2397" d="M91.814,285.921C87.552,292,81.5,296.042,75.3,298.878c-1.581.643-3.147,1.348-4.741,1.941l-4.846,1.544a80.137,80.137,0,0,1-9.891,1.956,87.639,87.639,0,0,1-10,.84c-1.67.154-3.342-.011-5.013-.017l-5.013-.128c-3.328-.35-6.663-.635-9.986-1.04l-9.87-2.019,9.934,1.395c3.311.4,6.634.687,9.951,1.036l4.993.127c1.664.006,3.33.171,4.991.017a87.158,87.158,0,0,0,9.952-.836,79.628,79.628,0,0,0,9.831-1.943l4.811-1.533c1.582-.588,3.134-1.287,4.7-1.925,1.538-.727,3.045-1.55,4.557-2.348l2.19-1.383,1.093-.7,1.048-.782a33.474,33.474,0,0,0,7.82-7.165" transform="translate(-13.477 -241.733)" fill="#fff"/>
        <path id="Path_2398" data-name="Path 2398" d="M5.311,371.322c3.118-.231,6.231-.544,9.341-.857,3.116-.219,6.229-.482,9.341-.767q9.335-.863,18.625-2.247,9.29-1.346,18.455-3.6c1.517-.414,3.052-.75,4.555-1.228l4.508-1.435,4.463-1.617c1.456-.638,2.884-1.373,4.335-2.058-1.409.778-2.806,1.612-4.239,2.352l-4.4,1.925-4.532,1.443c-1.511.48-3.05.817-4.573,1.233q-9.18,2.272-18.5,3.607-9.3,1.38-18.65,2.251-4.673.429-9.351.77c-3.125.114-6.249.205-9.374.227" transform="translate(-4.49 -302.262)" fill="#fff"/>
        <path id="Path_2399" data-name="Path 2399" d="M72.148,319.123a43.172,43.172,0,0,0,6.748,7.284,50.2,50.2,0,0,0,7.7,5.814,46.9,46.9,0,0,0,17.447,6.335,55.127,55.127,0,0,0,9.169.489,58.658,58.658,0,0,0,9.135-1.127,70.785,70.785,0,0,0,8.954-2.434c1.481-.466,2.947-1,4.424-1.5l4.362-1.759-4.273,2.056c-1.452.6-2.9,1.236-4.361,1.806a71.258,71.258,0,0,1-9.015,2.45,59.131,59.131,0,0,1-9.208,1.136,55.615,55.615,0,0,1-9.254-.493,47.391,47.391,0,0,1-17.628-6.4,51.02,51.02,0,0,1-7.786-5.876,44.077,44.077,0,0,1-6.414-7.779" transform="translate(-60.998 -269.804)" fill="#fff"/>
        <path id="Path_2400" data-name="Path 2400" d="M118.942,331.952a28.515,28.515,0,0,1-6.457,7.066,32.692,32.692,0,0,1-3.885,2.544c-1.325.784-2.744,1.322-4.111,1.994a42.21,42.21,0,0,1-17.521,2.818,58.267,58.267,0,0,1-8.836-.92l-1.1-.164-1.084-.272-2.169-.545c-1.444-.373-2.9-.706-4.332-1.112-2.822-1.025-5.673-1.954-8.471-3.06l-8.158-4.038,8.335,3.445c2.785,1.1,5.621,2.024,8.429,3.045,1.428.4,2.871.734,4.306,1.1l2.155.542,1.078.271,1.093.162a57.809,57.809,0,0,0,8.767.913,41.749,41.749,0,0,0,17.332-2.784c1.348-.664,2.749-1.194,4.054-1.966a32.559,32.559,0,0,0,3.825-2.507,27.7,27.7,0,0,0,6.75-6.537" transform="translate(-44.654 -280.65)" fill="#fff"/>
        <path id="Path_2401" data-name="Path 2401" d="M40.27,411.858c2.683.325,5.371.576,8.059.805q4.018.493,8.047.859c5.371.483,10.753.82,16.138.9a121.9,121.9,0,0,0,16.126-.688,64.554,64.554,0,0,0,7.962-1.413,30.815,30.815,0,0,0,7.726-2.629,31.7,31.7,0,0,1-7.612,3.243,65.077,65.077,0,0,1-8.022,1.423,122.332,122.332,0,0,1-16.187.691c-5.4-.08-10.792-.418-16.172-.9q-4.035-.369-8.061-.858-4.012-.641-8-1.433" transform="translate(-34.046 -346.376)" fill="#fff"/>
        <path id="Path_2402" data-name="Path 2402" d="M97.779,309.015a7.781,7.781,0,0,1-.888,3.475,7.243,7.243,0,0,1,0-6.95,7.78,7.78,0,0,1,.888,3.475" transform="translate(-81.166 -258.32)" fill="#fff"/>
        <path id="Path_2403" data-name="Path 2403" d="M37,449.7a2.3,2.3,0,0,1-2.331.3,7.723,7.723,0,0,1,1.959-2.9,2.3,2.3,0,0,1,2.331-.3A7.725,7.725,0,0,1,37,449.7" transform="translate(-29.311 -377.59)" fill="#fff"/>
        <path id="Path_2404" data-name="Path 2404" d="M458.352,431.382a6.92,6.92,0,0,1,2.57,2.181,2.446,2.446,0,0,1-2.361.4,6.92,6.92,0,0,1-2.57-2.181,2.445,2.445,0,0,1,2.361-.4" transform="translate(-385.519 -364.587)" fill="#fff"/>
        <path id="Path_2405" data-name="Path 2405" d="M458.048,377.063a5.2,5.2,0,0,1,1.877.735,2.464,2.464,0,0,1-1.574.283,5.206,5.206,0,0,1-1.877-.735,2.463,2.463,0,0,1,1.574-.284" transform="translate(-385.927 -318.77)" fill="#fff"/>
        <path id="Path_2406" data-name="Path 2406" d="M448.8,300.123a3.1,3.1,0,0,1,1.886-1.853,9.373,9.373,0,0,1-.461,3.725,3.1,3.1,0,0,1-1.886,1.854,9.375,9.375,0,0,1,.461-3.725" transform="translate(-379.029 -252.174)" fill="#fff"/>
        <path id="Path_2407" data-name="Path 2407" d="M493.866,379.067a2.127,2.127,0,0,1,1.1-1.113,5.865,5.865,0,0,1-.438,2.1,2.126,2.126,0,0,1-1.1,1.113,5.867,5.867,0,0,1,.438-2.1" transform="translate(-417.17 -319.543)" fill="#fff"/>
        <path id="Path_2408" data-name="Path 2408" d="M393.542,344.964a2.128,2.128,0,0,1,1.1-1.113,5.865,5.865,0,0,1-.438,2.1,2.127,2.127,0,0,1-1.1,1.113,5.866,5.866,0,0,1,.438-2.1" transform="translate(-332.351 -290.71)" fill="#fff"/>
        <path id="Path_2409" data-name="Path 2409" d="M92.048,411.149a2.671,2.671,0,0,1,.5,1.6,4.395,4.395,0,0,1-1.517-1.227,2.669,2.669,0,0,1-.5-1.595,4.394,4.394,0,0,1,1.517,1.227" transform="translate(-76.538 -346.57)" fill="#fff"/>
        <path id="Path_2410" data-name="Path 2410" d="M442.619,438.5a2.127,2.127,0,0,1,1.1-1.113,5.866,5.866,0,0,1-.438,2.1,2.127,2.127,0,0,1-1.1,1.113,5.868,5.868,0,0,1,.438-2.1" transform="translate(-373.843 -369.795)" fill="#fff"/>
        <path id="Path_2411" data-name="Path 2411" d="M35.034,374.277a4.844,4.844,0,0,1-.687-1.875,1.514,1.514,0,0,1,1.208.662,4.845,4.845,0,0,1,.687,1.875,1.513,1.513,0,0,1-1.208-.662" transform="translate(-29.039 -314.848)" fill="#fff"/>
      </g>
    </g>
  </g>
</svg>
