<?xml version="1.0" encoding="utf-8"?>
<!-- Generator: Adobe Illustrator 26.4.1, SVG Export Plug-In . SVG Version: 6.00 Build 0)  -->
<svg version="1.1" id="Layer_2" xmlns="http://www.w3.org/2000/svg" xmlns:xlink="http://www.w3.org/1999/xlink" x="0px" y="0px"
	 viewBox="0 0 60 60" style="enable-background:new 0 0 60 60;" xml:space="preserve">
<g>
	<path d="M30.4,58.9c-10.5,0-19.2-7.2-21.1-17.6c-0.2-1-0.3-1.8-0.3-2.5c0-1.6,0-3.2,0-4.9c0-4.3-0.1-8.7,0.1-13.1
		c0.3-9.4,7.7-17.9,17.1-19.6c1.4-0.3,2.8-0.4,4.2-0.4c10.4,0,19,7.2,21,17.6c0.2,1.3,0.3,2.7,0.3,4.2c0,1.7,0,3.3,0,5
		c0,0.7,0,2,0,2l-0.1,0.2c0,1,0,1.9,0,2.9c0,2,0.1,4.2,0,6.2c-0.5,10.2-8.9,18.9-19.1,19.8C31.8,58.9,31.1,58.9,30.4,58.9z
		 M11.7,34.7c-0.9,9.7,4.3,18.1,13.2,20.8c1.7,0.5,3.5,0.8,5.3,0.8c6.3,0,11.5-3.2,13.9-6.4l0.2-0.3l-0.4,0
		c-13.6-0.2-24.1-5.1-31.8-15l-0.3-0.4L11.7,34.7z M30.2,3.6c-9.3,0-17.2,6.9-18.3,15.9c-0.3,2.2-0.3,4.5-0.2,6.7c0,1,0,1.9,0,2.9
		c0,0.3,0.1,0.6,0.3,0.8c4.2,6.2,9,10.5,14.6,13.2c6.7,3.3,13.9,3.8,19.3,3.8c0.3,0,0.7-0.4,0.9-0.6c1.2-2.2,1.9-4.5,2.1-7.1l0-0.2
		c0,0-0.8-0.1-1-0.1c-0.8-0.1-1.7-0.1-2.6-0.1c-1.9-0.1-3.9-0.2-5.9-0.4c-5.4-0.6-9.9-2-13.9-4.4c-2.8-1.7-5.8-3.8-7.5-7.4
		c-0.2-0.4-0.7-0.9-1.1-1.1c-2-0.9-3.3-2.7-3.3-4.8c0-2.1,1.3-4,3.3-4.9c0.4-0.2,0.9-0.6,1.1-1c2.7-5.1,6.8-7.7,12.3-7.8
		c5.6,0,9.7,2.6,12.4,7.7c0.2,0.4,0.6,0.8,1.1,1c2,0.9,3.3,2.7,3.3,4.9c0,2.1-1.2,3.9-3.3,4.8c-0.5,0.2-0.9,0.6-1.1,1.1
		c-1.6,3.2-4.1,5.5-7.4,6.8c-0.4,0.2-0.8,0.3-1.2,0.4c-0.2,0.1-0.4,0.1-0.7,0.2l-0.5,0.2l0.5,0.2c2.2,1,9.6,1.9,13.4,1.9
		c0.9,0,1.5,0,2-0.1l0.1,0l0-0.1c0-0.2,0.1-0.3,0.1-0.5c0-1.4,0-2.7,0-4.1c0-3.2,0-6.5,0-9.8C48.6,11.5,40.4,3.6,30.2,3.6L30.2,3.6z
		 M25.5,10.9c-2.6,1.3-4.4,3.3-5.4,5.9c-0.4,1-0.9,1.4-1.8,1.5c-1.1,0.1-2,1.2-2,2.4c0,1.2,0.9,2.3,2,2.4c1.1,0.1,1.5,0.7,1.9,1.6
		c1.6,4.2,5.6,6.9,10.1,6.9c0,0,0,0,0,0c4.6,0,8.6-2.7,10.2-6.9c0.4-1.1,0.9-1.5,1.9-1.7c1.1-0.1,2-1.2,2-2.4c0-1.1-0.8-2.3-1.9-2.4
		c-1.2-0.1-1.6-0.7-2-1.8c-1.6-4-5.6-6.8-9.8-6.8l-0.3,0c-0.9,0-1.5,0.4-1.6,1.1c-0.1,0.5,0,1.3,0.3,1.7c0.3,0.4,0.7,0.6,1.2,0.6
		c0.2,0,0.5,0,0.7-0.1c0.1-0.1,0.3-0.1,0.4-0.2c0.1,0,0.2-0.1,0.3-0.1c0.2-0.1,0.5-0.2,0.7-0.2c0.5,0,0.9,0.2,1.1,0.7
		c0.3,0.6,0.2,1.3-0.5,1.8c-0.8,0.5-1.6,0.8-2.6,0.8c-2,0-3.8-1.3-4.3-3.2C26,12.3,26,12,25.9,11.6c0-0.2,0-0.4-0.1-0.6l0-0.2
		L25.5,10.9z"/>
</g>
<g>
	<path d="M30.3,26.7c-1.5-0.1-2.6-0.6-3.4-1.6c-0.6-0.7-0.5-1.5,0.1-2c0.3-0.2,0.5-0.3,0.8-0.3c0.4,0,0.8,0.2,1.1,0.6
		c0.4,0.4,0.8,0.6,1.3,0.6c0.5,0,1-0.2,1.4-0.7c0.3-0.3,0.7-0.5,1.1-0.5c0.3,0,0.5,0.1,0.7,0.2c0.6,0.4,0.7,1.2,0.3,1.8
		C33.1,26,32,26.6,30.3,26.7z"/>
</g>
<g>
	<path d="M25.7,20.5c-0.4,0-0.7-0.2-0.9-0.4c-0.2-0.3-0.4-0.6-0.4-1c0-0.7,0.6-1.3,1.3-1.3c0.8,0,1.3,0.6,1.3,1.3
		C27,19.9,26.4,20.5,25.7,20.5L25.7,20.5z"/>
</g>
<g>
	<path d="M34.9,20.5c-0.7,0-1.3-0.6-1.3-1.4c0-0.7,0.6-1.3,1.3-1.3c0,0,0,0,0,0c0.8,0,1.4,0.5,1.4,1.3c0,0.4-0.1,0.7-0.4,1
		C35.6,20.4,35.3,20.5,34.9,20.5z"/>
</g>
</svg>
