<?xml version="1.0" encoding="utf-8"?>
<!-- Generator: Adobe Illustrator 26.4.1, SVG Export Plug-In . SVG Version: 6.00 Build 0)  -->
<svg version="1.1" xmlns="http://www.w3.org/2000/svg" xmlns:xlink="http://www.w3.org/1999/xlink" x="0px" y="0px"
	 viewBox="0 0 60 60" style="enable-background:new 0 0 60 60;" xml:space="preserve">
<g id="Layer_2">
</g>
<g id="Layer_3">
	<g>
		<path d="M34.1,1.9c1.5,0,3,0,4.4,0c0.3,0,0.6,0.1,0.8,0.1c5,0.7,9.2,2.9,12.5,6.6c3.8,4.2,5.7,9.1,6,14.7c0,0.7,0,1.4-0.2,2
			c-1,2.7-2,5.4-3,8.1c-0.5,1.4-1.4,2.5-2.6,3.3c-1.5,1-3.1,1.5-4.9,1.5c-1.9,0-3.9,0-5.9,0c0.5,1.3,1,2.6,1.5,3.8
			c0.3,0,0.6-0.1,0.9-0.1c3.9-0.2,7.4,2.6,8,6.3c0.6,4-1.7,7.8-5.6,8.9c-0.4,0.1-0.8,0.2-1.1,0.3c-0.6,0-1.2,0-1.7,0
			c-0.1,0-0.2-0.1-0.3-0.1c-1.5-0.2-2.9-0.9-4-2c-1.2-1.1-2-2.5-2.3-4.1c-1.9,0-3.8,0-5.7,0c0,0,0,0.1-0.1,0.1
			c0,0.1-0.1,0.3-0.1,0.4C30,54.3,28.4,56,26,56.9c-0.6,0.2-1.2,0.3-1.8,0.5c-0.6,0-1.2,0-1.7,0c-0.1,0-0.2-0.1-0.4-0.1
			c-3.5-0.6-6.3-3.7-6.5-7.3c-0.1-3.8,2.3-7.1,5.9-7.8c1-0.2,2-0.2,3.1-0.3c0.4-1.1,0.9-2.3,1.4-3.6c-1.7,0-3.4,0-5.1,0
			c-0.9,0-1.7,0-2.6-0.2c-2.9-0.6-5.1-2.2-6-5.2C10.8,27.7,9,22.5,7.3,17.3C6.9,15.9,6,15,4.5,14.9c-0.9-0.1-1.6-0.4-2-1.2
			c0-0.3,0-0.6,0-0.9c0.4-1,1.2-1.3,2.2-1.2c2.8,0.4,4.7,1.9,5.6,4.6c0.5,1.6,1,3.3,1.5,5c0.2,0.6,0.4,1.2,0.5,1.7
			c0.2,0,0.4,0,0.6,0c4.3,0,8.6,0,12.9,0c0.4,0,0.6-0.1,0.8-0.6c2-6.3,4.1-12.5,6.2-18.8C33.1,2.8,33.4,2.3,34.1,1.9z M13.5,26.1
			c0.7,2.1,1.5,4.1,2.2,6.1c0.3,0.9,0.8,1.5,1.6,1.9c1.1,0.6,2.2,0.8,3.4,0.8c8.7,0,17.3,0,26,0c0.5,0,0.9,0,1.4-0.1
			c1.8-0.3,3.2-1.2,3.8-3.1c0.5-1.7,1.2-3.4,1.9-5.1c0.1-0.2,0.1-0.4,0.2-0.6C40.5,26.1,27,26.1,13.5,26.1z M29.9,22.8
			c8.3,0,16.5,0,24.8,0c-0.3-1.4-0.5-2.7-0.8-4c-2.1-7.7-8.8-14-17.6-13.7c-0.5,0-0.7,0.2-0.8,0.6c-1.1,3.3-2.2,6.7-3.3,10
			C31.5,18.1,30.7,20.5,29.9,22.8z M36.6,48c0.5-2,1.6-3.6,3.2-4.7c-0.7-1.7-1.3-3.3-2-5c-2.1,0-4.2,0-6.3,0c-0.6,0-1.4-0.2-1.8,0.1
			c-0.4,0.3-0.5,1.1-0.7,1.6c-0.4,1.1-0.9,2.2-1.3,3.3c1.7,1.2,2.7,2.8,3.2,4.7C32.8,48,34.7,48,36.6,48z M23.3,45.2
			c-2.4,0-4.4,2-4.4,4.5c0,2.5,2.1,4.5,4.5,4.5c2.4,0,4.4-2.1,4.4-4.6C27.8,47.2,25.7,45.2,23.3,45.2z M44.1,45.2
			c-2.4,0-4.4,2-4.4,4.5c0,2.5,2.1,4.5,4.5,4.5c2.4,0,4.4-2.1,4.4-4.6C48.5,47.2,46.5,45.2,44.1,45.2z"/>
	</g>
</g>
</svg>
