<?xml version="1.0" encoding="utf-8"?>
<!-- Generator: Adobe Illustrator 26.4.1, SVG Export Plug-In . SVG Version: 6.00 Build 0)  -->
<svg version="1.1" id="Layer_2" xmlns="http://www.w3.org/2000/svg" xmlns:xlink="http://www.w3.org/1999/xlink" x="0px" y="0px"
	 viewBox="0 0 60 60" style="enable-background:new 0 0 60 60;" xml:space="preserve">
<path d="M25.8,55.2c-6.2,0-12-4.4-13.7-10.3c-0.3-1.2-0.5-2.4-0.7-3.7l0-0.1c0-0.3-0.1-0.5-0.1-0.8l0-0.3L11,40.1
	c-0.8,0.4-1.6,0.5-2.5,0.5c-0.8,0-1.6-0.1-2.4-0.4c-2.5-0.9-4.2-3-4.1-5.4c0-2.3,1.5-4.1,3.7-4.5c0.7-0.1,1-0.4,1.2-1.1
	c1.1-3.8,4.8-6.6,8.7-6.6c0.8,0,1.7,0.1,2.5,0.4l0.3,0.1v-0.3c0-0.1,0-0.2,0-0.3c0.1-0.9,0.1-1.8,0.4-2.7c0.6-2.1,2.2-3.3,4.1-3.3
	c1,0,2,0.3,2.9,1l0.2,0.2l0.2-0.1l0.2-0.2c0.8-0.9,1.6-1.6,2.4-2.1c0.5-0.4,0.8-0.7,0.9-1.2c1.6-6.4,6.9-10.4,13.9-10.4
	c7.9,0,14.7,6.8,14.9,14.9c0.2,7.2-4.7,14.1-11.9,16.7c-0.7,0.3-0.9,0.5-0.9,1.3c-0.4,4.7-2.2,8.9-5.3,12.4
	C36.4,53,31.6,55.2,25.8,55.2L25.8,55.2z M14.9,32c0.5,0.3,0.5,0.7,0.5,1.1c0,0.4-0.2,1.9-0.6,2.5c-0.9,1.7-1.2,3.6-1,6
	c0.4,5.7,5.5,10.8,11.2,11.2c0.3,0,0.6,0,0.9,0c6.6,0,12.9-4.3,15.3-10.4c1.1-2.8,1.6-5,1.7-7.2c0-0.5,0.1-1.7,1.4-2.1
	c2.3-0.7,4.4-1.9,6.2-3.5c4.2-3.8,5.9-8,5.1-12.8c-1-6.2-6.5-11-12.6-11c-5.9,0-10.2,3.5-11.6,9.2c-0.1,0.5-0.5,1-1.1,1.6
	c-0.3,0.3-0.7,0.5-1,0.7c-0.3,0.2-0.7,0.5-1,0.7c-1.1,1.1-1.6,2.5-1.4,3.9c0.2,1.4,1.2,2.6,2.6,3.3c0.1,0,0.2,0.1,0.3,0.1
	c0.3,0.1,0.5,0.2,0.8,0.4c0.2,0.2,0.3,0.5,0.4,0.8c0,0.1,0,0.1,0.1,0.2l0,0.1l0.2,0.5L31,27.8c-0.1,0-0.2,0.1-0.3,0.1
	c-0.2,0.1-0.5,0.2-0.7,0.2c-0.1,0-0.2,0-0.4-0.1l-0.5-0.3c-0.9-0.5-1.8-1-2.6-1.7c-1.6-1.5-1.7-3.7-1.7-5.2c0-0.5-0.2-1.1-0.5-1.4
	c-0.4-0.4-0.9-0.6-1.4-0.6c-0.8,0-1.5,0.5-1.9,1.3c-0.6,1.3-0.6,2.7,0.2,4.4c1.4,3,3.7,5.2,6.9,6.4c1.2,0.5,2.5,0.8,3.8,1.1l0.7,0.2
	c0.7,0.2,1.4,0.3,2.1,0.5c0.4,0.1,0.7,0.4,0.8,0.7c0.2,0.3,0.2,0.9-0.2,1.3c-0.2,0.2-0.6,0.3-0.9,0.3l-0.2,0l-0.9-0.2
	c-1.7-0.3-3.5-0.7-5.3-1.3c-1.1-0.4-2.2-0.9-3.2-1.5l-0.6-0.3l0,0.4c0,0.2,0,0.3,0,0.5c0,1.7-0.1,3.1-0.3,4.4c0,0.4-0.4,0.7-0.7,0.9
	c-0.4,0.2-0.9,0.1-1.2-0.3c-0.2-0.2-0.3-0.6-0.3-0.9c-0.1-0.3,0-0.6,0.1-0.9l0.1-0.2c0.4-2,0.2-4-0.7-6.2c-1-2.6-3.2-4.3-5.8-4.3
	c-1.3,0-2.7,0.5-3.9,1.3c-1.3,0.9-2.1,2.3-2.6,4.2c-0.3,1.3-1,1.9-2.3,2c-1,0.1-1.8,0.6-2.2,1.4c-0.4,0.8-0.3,1.7,0.2,2.5
	c0.8,1.2,2.1,1.9,3.6,1.9c1.4,0,2.6-0.6,3.4-1.7c0.4-0.7,0.7-1.4,0.9-2.3c0.2-0.5,0.3-1,0.5-1.5c0.1-0.3,0.3-0.5,0.5-0.8
	C13.9,31.8,14.4,31.8,14.9,32z"/>
<path d="M39.6,23.2c-0.7-0.5-1-0.7-1-1.2c0-0.5,0.2-1,0.6-1.1l0,0c0.1,0,0.1,0,0.2,0c0.2,0,0.4,0,0.7,0.2c1.4,1,2.3,0.9,2.7,0.9
	c0.5,0,1-0.2,1.3-0.5c0.4-0.3,0.6-0.6,0.7-1.1c0.1-0.4,0-0.7-0.3-1.1c-0.3-0.4-0.8-0.5-1.1-0.6c-0.3-0.1-0.5-0.3-0.5-0.6
	c-0.1-0.3,0-0.5,0.2-0.7c0.3-0.3,0.6-0.3,0.8-0.3c0.3,0,0.8,0.1,1.1,0.3c0.6,0.4,2,1.3,1.8,3.1c0,0.5-0.2,0.9-0.4,1.3
	c-0.6,1-1.5,1.4-2,1.6c-0.6,0.3-0.8,0.4-1.8,0.4S40.1,23.5,39.6,23.2z"/>
</svg>
