<svg xmlns="http://www.w3.org/2000/svg" width="295.029" height="318.927" viewBox="0 0 295.029 318.927"><g transform="translate(-1.135 0.008)"><path d="M5.543-2.917H2.922v-.811H5.543Zm9.034-4.061H12.063V0H11.038V-6.977H8.529V-7.82h6.048ZM17.1-1.456l1.35-4.356h1.063L17.177.9q-.542,1.45-1.724,1.45l-.188-.016-.371-.07V1.456l.269.021a1.322,1.322,0,0,0,.787-.2A1.477,1.477,0,0,0,16.415.53l.22-.591L14.561-5.812h1.085Zm8.212-1.386A3.48,3.48,0,0,1,24.7-.7a1.945,1.945,0,0,1-1.644.811A2.131,2.131,0,0,1,21.391-.56v2.8H20.4V-5.812h.908l.048.645a2.047,2.047,0,0,1,1.687-.752,1.982,1.982,0,0,1,1.657.79,3.518,3.518,0,0,1,.61,2.2Zm-.994-.113A2.568,2.568,0,0,0,23.9-4.506a1.35,1.35,0,0,0-1.149-.569,1.461,1.461,0,0,0-1.354.8V-1.5a1.464,1.464,0,0,0,1.36.8,1.343,1.343,0,0,0,1.136-.567,2.8,2.8,0,0,0,.422-1.687ZM27.65,0h-.994V-5.812h.994ZM26.576-7.353a.593.593,0,0,1,.148-.408.555.555,0,0,1,.438-.167.563.563,0,0,1,.44.167.587.587,0,0,1,.15.408.568.568,0,0,1-.15.4.573.573,0,0,1-.44.161.565.565,0,0,1-.438-.161.573.573,0,0,1-.148-.4Zm5,6.649a1.431,1.431,0,0,0,.929-.322,1.134,1.134,0,0,0,.44-.806h.94a1.8,1.8,0,0,1-.344.951,2.264,2.264,0,0,1-.846.72,2.441,2.441,0,0,1-1.12.269,2.394,2.394,0,0,1-1.888-.792,3.155,3.155,0,0,1-.7-2.167v-.167A3.5,3.5,0,0,1,29.3-4.527a2.373,2.373,0,0,1,.894-1.026,2.54,2.54,0,0,1,1.378-.365,2.331,2.331,0,0,1,1.625.585,2.092,2.092,0,0,1,.69,1.52h-.94a1.369,1.369,0,0,0-.427-.927,1.328,1.328,0,0,0-.948-.363,1.391,1.391,0,0,0-1.174.545,2.56,2.56,0,0,0-.416,1.576v.188a2.509,2.509,0,0,0,.414,1.547A1.4,1.4,0,0,0,31.571-.7Zm7.015.7a2.087,2.087,0,0,1-.14-.612A2.217,2.217,0,0,1,36.8.1a2.051,2.051,0,0,1-1.41-.486,1.573,1.573,0,0,1-.551-1.233,1.643,1.643,0,0,1,.69-1.41,3.254,3.254,0,0,1,1.942-.5h.967V-3.98a1.116,1.116,0,0,0-.312-.83,1.252,1.252,0,0,0-.918-.309,1.449,1.449,0,0,0-.892.269.791.791,0,0,0-.36.65h-1a1.371,1.371,0,0,1,.309-.841,2.108,2.108,0,0,1,.838-.642,2.819,2.819,0,0,1,1.163-.236,2.3,2.3,0,0,1,1.574.5,1.812,1.812,0,0,1,.591,1.383v2.675a3.27,3.27,0,0,0,.2,1.273V0ZM36.937-.757A1.746,1.746,0,0,0,37.823-1a1.462,1.462,0,0,0,.607-.628V-2.82h-.779q-1.826,0-1.826,1.069a.9.9,0,0,0,.312.73,1.2,1.2,0,0,0,.8.264ZM42.061,0h-.994V-8.25h.994Zm6.23-1.348L49.73-5.811h1.015L48.662,0H47.9L45.8-5.812h1.015ZM55.209,0a2.087,2.087,0,0,1-.14-.612,2.217,2.217,0,0,1-1.654.72,2.051,2.051,0,0,1-1.41-.486,1.573,1.573,0,0,1-.551-1.233,1.643,1.643,0,0,1,.69-1.41,3.254,3.254,0,0,1,1.942-.5h.967V-3.98a1.116,1.116,0,0,0-.312-.83,1.252,1.252,0,0,0-.918-.309,1.449,1.449,0,0,0-.892.269.791.791,0,0,0-.36.65h-1a1.371,1.371,0,0,1,.309-.841,2.108,2.108,0,0,1,.838-.642,2.819,2.819,0,0,1,1.163-.236,2.3,2.3,0,0,1,1.574.5,1.812,1.812,0,0,1,.591,1.383v2.675a3.27,3.27,0,0,0,.2,1.273V0ZM53.561-.757A1.746,1.746,0,0,0,54.447-1a1.462,1.462,0,0,0,.607-.628V-2.82h-.779q-1.826,0-1.826,1.069a.9.9,0,0,0,.312.73,1.2,1.2,0,0,0,.8.264ZM58.685,0h-.994V-8.25h.994Zm5.178-.575a2.111,2.111,0,0,1-1.7.682,1.807,1.807,0,0,1-1.415-.54,2.336,2.336,0,0,1-.491-1.6V-5.812h.994v3.754q0,1.321,1.074,1.321a1.487,1.487,0,0,0,1.515-.849V-5.812h.994V0h-.945ZM68.75.107a2.539,2.539,0,0,1-1.923-.776,2.881,2.881,0,0,1-.741-2.076v-.183a3.487,3.487,0,0,1,.33-1.544,2.577,2.577,0,0,1,.924-1.063,2.323,2.323,0,0,1,1.286-.384,2.177,2.177,0,0,1,1.762.747,3.232,3.232,0,0,1,.628,2.138v.414H67.08a2.066,2.066,0,0,0,.5,1.388A1.579,1.579,0,0,0,68.8-.7a1.731,1.731,0,0,0,.9-.218,2.24,2.24,0,0,0,.639-.569l.607.473A2.44,2.44,0,0,1,68.75.107ZM68.626-5.1a1.325,1.325,0,0,0-1.01.438,2.128,2.128,0,0,0-.5,1.227h2.911V-3.51a1.893,1.893,0,0,0-.408-1.174,1.248,1.248,0,0,0-.993-.416ZM75.55-1.542a.732.732,0,0,0-.3-.626,2.921,2.921,0,0,0-1.058-.384,5,5,0,0,1-1.2-.387,1.7,1.7,0,0,1-.655-.537,1.285,1.285,0,0,1-.212-.741,1.508,1.508,0,0,1,.6-1.208,2.36,2.36,0,0,1,1.544-.494,2.428,2.428,0,0,1,1.6.51A1.621,1.621,0,0,1,76.49-4.1h-1a.9.9,0,0,0-.346-.7,1.3,1.3,0,0,0-.873-.3,1.358,1.358,0,0,0-.849.236.744.744,0,0,0-.306.618A.6.6,0,0,0,73.4-3.7a3.5,3.5,0,0,0,1.029.349,5.359,5.359,0,0,1,1.206.4,1.759,1.759,0,0,1,.685.556,1.367,1.367,0,0,1,.223.792A1.487,1.487,0,0,1,75.92-.363a2.613,2.613,0,0,1-1.62.47A2.926,2.926,0,0,1,73.068-.14a2.009,2.009,0,0,1-.841-.69,1.664,1.664,0,0,1-.3-.959h.994a1.029,1.029,0,0,0,.4.792,1.552,1.552,0,0,0,.979.3,1.6,1.6,0,0,0,.9-.228.7.7,0,0,0,.345-.614ZM81.05,0V-5.043h-.918v-.768h.918v-.6a1.979,1.979,0,0,1,.5-1.445,1.887,1.887,0,0,1,1.413-.51,2.624,2.624,0,0,1,.682.091l-.054.8a2.854,2.854,0,0,0-.537-.048.97.97,0,0,0-.747.283,1.147,1.147,0,0,0-.263.811v.614h1.241v.768H82.043V0Zm3.067-2.959A3.433,3.433,0,0,1,84.452-4.5a2.5,2.5,0,0,1,.935-1.053,2.544,2.544,0,0,1,1.367-.371,2.451,2.451,0,0,1,1.92.822,3.162,3.162,0,0,1,.733,2.186v.07a3.462,3.462,0,0,1-.325,1.523,2.467,2.467,0,0,1-.929,1.05A2.573,2.573,0,0,1,86.765.1,2.445,2.445,0,0,1,84.85-.714a3.146,3.146,0,0,1-.733-2.175Zm1,.118a2.486,2.486,0,0,0,.448,1.552,1.435,1.435,0,0,0,1.2.585,1.427,1.427,0,0,0,1.2-.594,2.719,2.719,0,0,0,.446-1.662,2.482,2.482,0,0,0-.454-1.55,1.443,1.443,0,0,0-1.2-.59,1.427,1.427,0,0,0-1.187.585,2.7,2.7,0,0,0-.451,1.674ZM93.462-4.92a2.978,2.978,0,0,0-.489-.038,1.309,1.309,0,0,0-1.327.833V0h-.994V-5.812h.967l.016.671a1.547,1.547,0,0,1,1.386-.779,1.015,1.015,0,0,1,.44.075ZM100.687,0a2.087,2.087,0,0,1-.14-.612,2.217,2.217,0,0,1-1.654.72,2.051,2.051,0,0,1-1.41-.486,1.573,1.573,0,0,1-.551-1.233,1.643,1.643,0,0,1,.69-1.41,3.254,3.254,0,0,1,1.942-.5h.967V-3.98a1.116,1.116,0,0,0-.312-.83,1.252,1.252,0,0,0-.918-.309,1.449,1.449,0,0,0-.892.269.791.791,0,0,0-.36.65h-1a1.371,1.371,0,0,1,.309-.841,2.108,2.108,0,0,1,.838-.642,2.819,2.819,0,0,1,1.163-.236,2.3,2.3,0,0,1,1.574.5,1.812,1.812,0,0,1,.591,1.383v2.675a3.27,3.27,0,0,0,.2,1.273V0ZM99.038-.757A1.746,1.746,0,0,0,99.924-1a1.462,1.462,0,0,0,.607-.628V-2.82h-.779q-1.826,0-1.826,1.069a.9.9,0,0,0,.312.73,1.2,1.2,0,0,0,.8.264Zm3.808-2.2a3.416,3.416,0,0,1,.628-2.162,2.01,2.01,0,0,1,1.665-.8,2,2,0,0,1,1.66.752l.048-.645h.908V-.14a2.364,2.364,0,0,1-.669,1.778,2.468,2.468,0,0,1-1.8.65,2.989,2.989,0,0,1-1.23-.269,2.117,2.117,0,0,1-.918-.736l.516-.6a1.943,1.943,0,0,0,1.563.79,1.522,1.522,0,0,0,1.131-.408,1.56,1.56,0,0,0,.406-1.149v-.5A2.042,2.042,0,0,1,105.127.1a1.985,1.985,0,0,1-1.652-.822,3.591,3.591,0,0,1-.629-2.236Zm1,.113a2.606,2.606,0,0,0,.4,1.544,1.309,1.309,0,0,0,1.128.561,1.456,1.456,0,0,0,1.38-.854v-2.65a1.473,1.473,0,0,0-1.37-.833,1.321,1.321,0,0,0-1.133.564,2.838,2.838,0,0,0-.406,1.671ZM111.666.1a2.539,2.539,0,0,1-1.923-.776A2.881,2.881,0,0,1,109-2.745v-.183a3.487,3.487,0,0,1,.33-1.544,2.577,2.577,0,0,1,.924-1.063,2.323,2.323,0,0,1,1.286-.384,2.177,2.177,0,0,1,1.762.747,3.232,3.232,0,0,1,.628,2.138v.414h-3.937a2.066,2.066,0,0,0,.5,1.388,1.579,1.579,0,0,0,1.222.529,1.731,1.731,0,0,0,.892-.215,2.24,2.24,0,0,0,.639-.569l.607.473A2.44,2.44,0,0,1,111.665.107Zm-.124-5.21a1.325,1.325,0,0,0-1.01.438,2.128,2.128,0,0,0-.5,1.227h2.911v-.075a1.893,1.893,0,0,0-.408-1.174,1.248,1.248,0,0,0-.993-.411Z" transform="translate(111.205 315.919)"/><path d="M0,0H27V12H0Z" transform="translate(80.205 306.919)" fill="#d5c5ea"/><path d="M-7.509-2.626h1.085v.811H-7.509V0h-1V-1.815H-12.07V-2.4l3.5-5.419h1.058Zm-3.432,0h2.433V-6.461l-.118.215Zm5.871-1.3.4-3.9h4V-6.9H-3.83l-.236,2.13a2.524,2.524,0,0,1,1.3-.338,2.158,2.158,0,0,1,1.7.706,2.768,2.768,0,0,1,.626,1.91,2.672,2.672,0,0,1-.653,1.9,2.379,2.379,0,0,1-1.823.7A2.472,2.472,0,0,1-4.6-.467a2.294,2.294,0,0,1-.747-1.59h.94a1.578,1.578,0,0,0,.478,1.012A1.486,1.486,0,0,0-2.911-.7a1.341,1.341,0,0,0,1.088-.473,1.976,1.976,0,0,0,.395-1.305,1.814,1.814,0,0,0-.427-1.26,1.452,1.452,0,0,0-1.136-.475,1.638,1.638,0,0,0-1.021.285l-.263.215Z" transform="translate(13.205 214.919)"/><path d="M1,0A1,1,0,0,1,2,1V4A1,1,0,1,1,0,4V1A1,1,0,0,1,1,0Z" transform="translate(18.205 219.919) rotate(-90)" fill="#6d6d6d" opacity="0.2"/><path d="M1,0A1,1,0,0,1,2,1V4A1,1,0,1,1,0,4V1A1,1,0,0,1,1,0Z" transform="translate(18.205 229.919) rotate(-90)" fill="#6d6d6d" opacity="0.2"/><path d="M1,0A1,1,0,0,1,2,1V4A1,1,0,1,1,0,4V1A1,1,0,0,1,1,0Z" transform="translate(18.205 239.919) rotate(-90)" fill="#6d6d6d" opacity="0.2"/><path d="M1,0A1,1,0,0,1,2,1V4A1,1,0,1,1,0,4V1A1,1,0,0,1,1,0Z" transform="translate(18.205 249.919) rotate(-90)" fill="#6d6d6d" opacity="0.2"/><path d="M1,0A1,1,0,0,1,2,1V4A1,1,0,1,1,0,4V1A1,1,0,0,1,1,0Z" transform="translate(18.205 209.919) rotate(-90)" fill="#6d6d6d"/><path d="M-11.247-3.921l.4-3.9H-6.84V-6.9H-10l-.236,2.132a2.524,2.524,0,0,1,1.305-.338,2.158,2.158,0,0,1,1.7.706,2.768,2.768,0,0,1,.628,1.909,2.672,2.672,0,0,1-.653,1.9,2.379,2.379,0,0,1-1.823.7,2.472,2.472,0,0,1-1.7-.576,2.294,2.294,0,0,1-.747-1.59h.94a1.578,1.578,0,0,0,.478,1.012A1.486,1.486,0,0,0-9.088-.7,1.341,1.341,0,0,0-8-1.176a1.976,1.976,0,0,0,.4-1.305,1.814,1.814,0,0,0-.427-1.26,1.452,1.452,0,0,0-1.136-.475,1.638,1.638,0,0,0-1.021.285l-.263.215Zm6.177,0,.4-3.9h4V-6.9H-3.83l-.236,2.13a2.524,2.524,0,0,1,1.3-.338,2.158,2.158,0,0,1,1.7.706,2.768,2.768,0,0,1,.626,1.91,2.672,2.672,0,0,1-.653,1.9,2.379,2.379,0,0,1-1.823.7A2.472,2.472,0,0,1-4.6-.467a2.294,2.294,0,0,1-.747-1.59h.94a1.578,1.578,0,0,0,.478,1.012A1.486,1.486,0,0,0-2.911-.7a1.341,1.341,0,0,0,1.088-.473,1.976,1.976,0,0,0,.395-1.305,1.814,1.814,0,0,0-.427-1.26,1.452,1.452,0,0,0-1.136-.475,1.638,1.638,0,0,0-1.021.285l-.263.215Z" transform="translate(13.205 164.919)"/><path d="M1,0A1,1,0,0,1,2,1V4A1,1,0,1,1,0,4V1A1,1,0,0,1,1,0Z" transform="translate(18.205 169.919) rotate(-90)" fill="#6d6d6d" opacity="0.2"/><path d="M1,0A1,1,0,0,1,2,1V4A1,1,0,1,1,0,4V1A1,1,0,0,1,1,0Z" transform="translate(18.205 179.919) rotate(-90)" fill="#6d6d6d" opacity="0.2"/><path d="M1,0A1,1,0,0,1,2,1V4A1,1,0,1,1,0,4V1A1,1,0,0,1,1,0Z" transform="translate(18.205 189.919) rotate(-90)" fill="#6d6d6d" opacity="0.2"/><path d="M1,0A1,1,0,0,1,2,1V4A1,1,0,1,1,0,4V1A1,1,0,0,1,1,0Z" transform="translate(18.205 199.919) rotate(-90)" fill="#6d6d6d" opacity="0.2"/><path d="M1,0A1,1,0,0,1,2,1V4A1,1,0,1,1,0,4V1A1,1,0,0,1,1,0Z" transform="translate(18.205 159.919) rotate(-90)" fill="#6d6d6d"/><path d="M-7.8-7.826v.843h-.183A2.616,2.616,0,0,0-9.831-6.3a2.861,2.861,0,0,0-.8,1.875,2.121,2.121,0,0,1,1.687-.709,2.028,2.028,0,0,1,1.63.72A2.776,2.776,0,0,1-6.7-2.551,2.767,2.767,0,0,1-7.361-.618,2.266,2.266,0,0,1-9.125.107a2.232,2.232,0,0,1-1.821-.862,3.417,3.417,0,0,1-.7-2.221v-.381a5.148,5.148,0,0,1,.921-3.3A3.383,3.383,0,0,1-7.981-7.826ZM-9.109-4.3a1.585,1.585,0,0,0-.94.306,1.6,1.6,0,0,0-.6.768v.365A2.565,2.565,0,0,0-10.214-1.3a1.3,1.3,0,0,0,1.085.591,1.263,1.263,0,0,0,1.059-.5A2.05,2.05,0,0,0-7.686-2.5a2.051,2.051,0,0,0-.389-1.3,1.248,1.248,0,0,0-1.034-.5Zm4.039.381.4-3.9h4V-6.9H-3.83l-.236,2.13a2.524,2.524,0,0,1,1.3-.338,2.158,2.158,0,0,1,1.7.706,2.768,2.768,0,0,1,.626,1.91,2.672,2.672,0,0,1-.653,1.9,2.379,2.379,0,0,1-1.823.7A2.472,2.472,0,0,1-4.6-.467a2.294,2.294,0,0,1-.747-1.59h.94a1.578,1.578,0,0,0,.478,1.012A1.486,1.486,0,0,0-2.911-.7a1.341,1.341,0,0,0,1.088-.473,1.976,1.976,0,0,0,.395-1.305,1.814,1.814,0,0,0-.427-1.26,1.452,1.452,0,0,0-1.136-.475,1.638,1.638,0,0,0-1.021.285l-.263.215Z" transform="translate(13.205 114.919)"/><path d="M1,0A1,1,0,0,1,2,1V4A1,1,0,1,1,0,4V1A1,1,0,0,1,1,0Z" transform="translate(18.205 119.919) rotate(-90)" fill="#6d6d6d" opacity="0.2"/><path d="M1,0A1,1,0,0,1,2,1V4A1,1,0,1,1,0,4V1A1,1,0,0,1,1,0Z" transform="translate(18.205 129.919) rotate(-90)" fill="#6d6d6d" opacity="0.2"/><path d="M1,0A1,1,0,0,1,2,1V4A1,1,0,1,1,0,4V1A1,1,0,0,1,1,0Z" transform="translate(18.205 139.919) rotate(-90)" fill="#6d6d6d" opacity="0.2"/><path d="M1,0A1,1,0,0,1,2,1V4A1,1,0,1,1,0,4V1A1,1,0,0,1,1,0Z" transform="translate(18.205 149.919) rotate(-90)" fill="#6d6d6d" opacity="0.2"/><path d="M1,0A1,1,0,0,1,2,1V4A1,1,0,1,1,0,4V1A1,1,0,0,1,1,0Z" transform="translate(18.205 109.919) rotate(-90)" fill="#6d6d6d"/><path d="M-6.655-7.262-9.894,0h-1.042l3.228-7H-11.94v-.82h5.285ZM-5.07-3.921l.4-3.9h4V-6.9H-3.83l-.236,2.13a2.524,2.524,0,0,1,1.3-.338,2.158,2.158,0,0,1,1.7.706,2.768,2.768,0,0,1,.626,1.91,2.672,2.672,0,0,1-.653,1.9,2.379,2.379,0,0,1-1.823.7A2.472,2.472,0,0,1-4.6-.467a2.294,2.294,0,0,1-.747-1.59h.94a1.578,1.578,0,0,0,.478,1.012A1.486,1.486,0,0,0-2.911-.7a1.341,1.341,0,0,0,1.088-.473,1.976,1.976,0,0,0,.395-1.305,1.814,1.814,0,0,0-.427-1.26,1.452,1.452,0,0,0-1.136-.475,1.638,1.638,0,0,0-1.021.285l-.263.215Z" transform="translate(13.205 64.919)"/><path d="M1,0A1,1,0,0,1,2,1V4A1,1,0,1,1,0,4V1A1,1,0,0,1,1,0Z" transform="translate(18.205 69.919) rotate(-90)" opacity="0.2"/><path d="M1,0A1,1,0,0,1,2,1V4A1,1,0,1,1,0,4V1A1,1,0,0,1,1,0Z" transform="translate(18.205 79.919) rotate(-90)" opacity="0.2"/><path d="M1,0A1,1,0,0,1,2,1V4A1,1,0,1,1,0,4V1A1,1,0,0,1,1,0Z" transform="translate(18.205 89.919) rotate(-90)" opacity="0.2"/><path d="M1,0A1,1,0,0,1,2,1V4A1,1,0,1,1,0,4V1A1,1,0,0,1,1,0Z" transform="translate(18.205 99.919) rotate(-90)" opacity="0.2"/><path d="M1,0A1,1,0,0,1,2,1V4A1,1,0,1,1,0,4V1A1,1,0,0,1,1,0Z" transform="translate(18.205 59.919) rotate(-90)"/><path d="M-6.961-5.779A1.816,1.816,0,0,1-7.27-4.737a2.1,2.1,0,0,1-.835.714,2.241,2.241,0,0,1,.969.768,1.933,1.933,0,0,1,.357,1.144A2.044,2.044,0,0,1-7.463-.494a2.631,2.631,0,0,1-1.8.6,2.619,2.619,0,0,1-1.807-.6,2.053,2.053,0,0,1-.679-1.614A1.991,1.991,0,0,1-11.4-3.252a2.156,2.156,0,0,1,.959-.773,2.05,2.05,0,0,1-.822-.714,1.842,1.842,0,0,1-.3-1.037,2.021,2.021,0,0,1,.634-1.568,2.378,2.378,0,0,1,1.67-.58,2.38,2.38,0,0,1,1.668.58,2.017,2.017,0,0,1,.633,1.565Zm-.811,3.647A1.441,1.441,0,0,0-8.188-3.2a1.476,1.476,0,0,0-1.088-.414,1.45,1.45,0,0,0-1.077.408,1.458,1.458,0,0,0-.406,1.074,1.388,1.388,0,0,0,.4,1.047,1.515,1.515,0,0,0,1.1.381,1.511,1.511,0,0,0,1.1-.384,1.385,1.385,0,0,0,.392-1.044ZM-9.265-7.111a1.282,1.282,0,0,0-.948.363,1.332,1.332,0,0,0-.363.986,1.325,1.325,0,0,0,.357.964,1.268,1.268,0,0,0,.953.368,1.268,1.268,0,0,0,.954-.37,1.325,1.325,0,0,0,.357-.964,1.326,1.326,0,0,0-.371-.972,1.264,1.264,0,0,0-.939-.375Zm4.2,3.19.4-3.9h4V-6.9H-3.83l-.236,2.13a2.524,2.524,0,0,1,1.3-.338,2.158,2.158,0,0,1,1.7.706,2.768,2.768,0,0,1,.626,1.91,2.672,2.672,0,0,1-.653,1.9,2.379,2.379,0,0,1-1.823.7A2.472,2.472,0,0,1-4.6-.467a2.294,2.294,0,0,1-.747-1.59h.94a1.578,1.578,0,0,0,.478,1.012A1.486,1.486,0,0,0-2.911-.7a1.341,1.341,0,0,0,1.088-.473,1.976,1.976,0,0,0,.395-1.305,1.814,1.814,0,0,0-.427-1.26,1.452,1.452,0,0,0-1.136-.475,1.638,1.638,0,0,0-1.021.285l-.263.215Z" transform="translate(13.205 24.919)"/><path d="M1,0A1,1,0,0,1,2,1V4A1,1,0,1,1,0,4V1A1,1,0,0,1,1,0Z" transform="translate(18.205 29.919) rotate(-90)" opacity="0.3"/><path d="M1,0A1,1,0,0,1,2,1V4A1,1,0,1,1,0,4V1A1,1,0,0,1,1,0Z" transform="translate(18.205 39.919) rotate(-90)" opacity="0.3"/><path d="M1,0A1,1,0,0,1,2,1V4A1,1,0,1,1,0,4V1A1,1,0,0,1,1,0Z" transform="translate(18.205 49.919) rotate(-90)" opacity="0.3"/><path d="M1,0A1,1,0,0,1,2,1V4A1,1,0,1,1,0,4V1A1,1,0,0,1,1,0Z" transform="translate(18.205 59.919) rotate(-90)" opacity="0.2"/><path d="M1,0A1,1,0,0,1,2,1V4A1,1,0,1,1,0,4V1A1,1,0,0,1,1,0Z" transform="translate(18.205 19.919) rotate(-90)"/><path d="M-4.616-.7a1.431,1.431,0,0,0,.929-.322,1.134,1.134,0,0,0,.44-.806h.94a1.8,1.8,0,0,1-.344.951,2.264,2.264,0,0,1-.846.72,2.441,2.441,0,0,1-1.12.269A2.394,2.394,0,0,1-6.5-.685a3.155,3.155,0,0,1-.7-2.167v-.167a3.5,3.5,0,0,1,.312-1.509A2.373,2.373,0,0,1-6-5.554a2.54,2.54,0,0,1,1.378-.365A2.331,2.331,0,0,1-3-5.333a2.092,2.092,0,0,1,.69,1.52h-.94a1.369,1.369,0,0,0-.427-.927,1.328,1.328,0,0,0-.945-.36A1.391,1.391,0,0,0-5.8-4.557a2.56,2.56,0,0,0-.416,1.576v.188A2.509,2.509,0,0,0-5.8-1.246,1.4,1.4,0,0,0-4.616-.7ZM-.255-5.812l.027.645A2.146,2.146,0,0,1,1.5-5.919a1.662,1.662,0,0,1,1.66.935,2.2,2.2,0,0,1,.755-.677,2.229,2.229,0,0,1,1.1-.258q1.912,0,1.944,2.025V0h-1V-3.835a1.334,1.334,0,0,0-.285-.932,1.254,1.254,0,0,0-.956-.309,1.318,1.318,0,0,0-.918.33,1.34,1.34,0,0,0-.424.889V0h-1V-3.808a1.109,1.109,0,0,0-.3-.944,1.109,1.109,0,0,0-.937-.324A1.329,1.329,0,0,0-.2-4.243V0h-1V-5.812Z" transform="translate(289.205 282.919)"/><path d="M2.374-2.691l-.623.65V0H.757V-8.25h.994v4.99l.532-.64,1.81-1.912H5.3L3.04-3.384,5.564,0H4.4Zm3.609-.263a3.416,3.416,0,0,1,.628-2.162,2.01,2.01,0,0,1,1.665-.8,2,2,0,0,1,1.66.752l.048-.645h.908V-.14a2.364,2.364,0,0,1-.669,1.778,2.468,2.468,0,0,1-1.8.65A2.989,2.989,0,0,1,7.2,2.02a2.117,2.117,0,0,1-.918-.736L6.8.684a1.943,1.943,0,0,0,1.563.79,1.522,1.522,0,0,0,1.131-.408,1.56,1.56,0,0,0,.4-1.147v-.5A2.042,2.042,0,0,1,8.266.107,1.985,1.985,0,0,1,6.615-.714a3.591,3.591,0,0,1-.632-2.24Zm1,.113a2.606,2.606,0,0,0,.4,1.544,1.309,1.309,0,0,0,1.128.561,1.456,1.456,0,0,0,1.38-.854V-4.243a1.473,1.473,0,0,0-1.37-.833,1.321,1.321,0,0,0-1.133.564,2.838,2.838,0,0,0-.406,1.671Z" transform="translate(1.243 8.242)"/><path d="M1,0A1,1,0,0,1,2,1V4A1,1,0,1,1,0,4V1A1,1,0,0,1,1,0Z" transform="translate(271.205 257.919)" fill="#333"/><path d="M1,0A1,1,0,0,1,2,1V4A1,1,0,1,1,0,4V1A1,1,0,0,1,1,0Z" transform="translate(261.205 257.919)" fill="#6d6d6d" opacity="0.2"/><path d="M1,0A1,1,0,0,1,2,1V4A1,1,0,1,1,0,4V1A1,1,0,0,1,1,0Z" transform="translate(251.205 257.919)" fill="#6d6d6d" opacity="0.2"/><path d="M1,0A1,1,0,0,1,2,1V4A1,1,0,1,1,0,4V1A1,1,0,0,1,1,0Z" transform="translate(241.205 257.919)" fill="#6d6d6d" opacity="0.2"/><path d="M1,0A1,1,0,0,1,2,1V4A1,1,0,1,1,0,4V1A1,1,0,0,1,1,0Z" transform="translate(231.205 257.919)" fill="#6d6d6d" opacity="0.2"/><path d="M-.4,0H-5.527V-.714L-2.82-3.722a6.431,6.431,0,0,0,.83-1.109,1.851,1.851,0,0,0,.228-.884,1.4,1.4,0,0,0-.371-1,1.3,1.3,0,0,0-.988-.392,1.535,1.535,0,0,0-1.152.422,1.611,1.611,0,0,0-.411,1.174h-.994a2.307,2.307,0,0,1,.7-1.746,2.579,2.579,0,0,1,1.861-.666A2.478,2.478,0,0,1-1.4-7.356,1.951,1.951,0,0,1-.763-5.833a4.474,4.474,0,0,1-1.472,2.75L-4.329-.811H-.4ZM1.106-3.921l.4-3.9H5.511V-6.9H2.347L2.111-4.77a2.524,2.524,0,0,1,1.3-.338,2.158,2.158,0,0,1,1.7.706,2.768,2.768,0,0,1,.628,1.909,2.672,2.672,0,0,1-.653,1.9,2.379,2.379,0,0,1-1.823.7A2.472,2.472,0,0,1,1.574-.467a2.294,2.294,0,0,1-.747-1.59h.94a1.578,1.578,0,0,0,.478,1.012A1.486,1.486,0,0,0,3.266-.7a1.341,1.341,0,0,0,1.088-.473,1.976,1.976,0,0,0,.395-1.305,1.814,1.814,0,0,0-.427-1.26,1.452,1.452,0,0,0-1.136-.475,1.638,1.638,0,0,0-1.021.285L1.9-3.717Z" transform="translate(272.205 282.919)"/><path d="M1,0A1,1,0,0,1,2,1V4A1,1,0,1,1,0,4V1A1,1,0,0,1,1,0Z" transform="translate(221.205 257.919)" fill="#333"/><path d="M1,0A1,1,0,0,1,2,1V4A1,1,0,1,1,0,4V1A1,1,0,0,1,1,0Z" transform="translate(211.205 257.919)" fill="#6d6d6d" opacity="0.2"/><path d="M1,0A1,1,0,0,1,2,1V4A1,1,0,1,1,0,4V1A1,1,0,0,1,1,0Z" transform="translate(201.205 257.919)" fill="#6d6d6d" opacity="0.2"/><path d="M1,0A1,1,0,0,1,2,1V4A1,1,0,1,1,0,4V1A1,1,0,0,1,1,0Z" transform="translate(191.205 257.919)" fill="#6d6d6d" opacity="0.2"/><path d="M1,0A1,1,0,0,1,2,1V4A1,1,0,1,1,0,4V1A1,1,0,0,1,1,0Z" transform="translate(181.205 257.919)" fill="#6d6d6d" opacity="0.2"/><path d="M-.4,0H-5.527V-.714L-2.82-3.722a6.431,6.431,0,0,0,.83-1.109,1.851,1.851,0,0,0,.228-.884,1.4,1.4,0,0,0-.371-1,1.3,1.3,0,0,0-.988-.392,1.535,1.535,0,0,0-1.152.422,1.611,1.611,0,0,0-.411,1.174h-.994a2.307,2.307,0,0,1,.7-1.746,2.579,2.579,0,0,1,1.861-.666A2.478,2.478,0,0,1-1.4-7.356,1.951,1.951,0,0,1-.763-5.833a4.474,4.474,0,0,1-1.472,2.75L-4.329-.811H-.4ZM5.554-3.335a4.545,4.545,0,0,1-.6,2.594,2.12,2.12,0,0,1-1.86.848,2.136,2.136,0,0,1-1.853-.83A4.313,4.313,0,0,1,.618-3.2V-4.528a4.443,4.443,0,0,1,.6-2.562,2.137,2.137,0,0,1,1.869-.838,2.156,2.156,0,0,1,1.858.808,4.288,4.288,0,0,1,.612,2.495ZM4.56-4.694a3.641,3.641,0,0,0-.354-1.84,1.22,1.22,0,0,0-1.123-.577,1.2,1.2,0,0,0-1.112.575,3.555,3.555,0,0,0-.36,1.767v1.59a3.7,3.7,0,0,0,.368,1.872,1.218,1.218,0,0,0,1.115.6,1.2,1.2,0,0,0,1.093-.569A3.566,3.566,0,0,0,4.56-3.067Z" transform="translate(222.205 282.919)"/><path d="M1,0A1,1,0,0,1,2,1V4A1,1,0,1,1,0,4V1A1,1,0,0,1,1,0Z" transform="translate(171.205 257.919)" fill="#333"/><path d="M1,0A1,1,0,0,1,2,1V4A1,1,0,1,1,0,4V1A1,1,0,0,1,1,0Z" transform="translate(161.205 257.919)" fill="#6d6d6d" opacity="0.2"/><path d="M1,0A1,1,0,0,1,2,1V4A1,1,0,1,1,0,4V1A1,1,0,0,1,1,0Z" transform="translate(151.205 257.919)" fill="#6d6d6d" opacity="0.2"/><path d="M1,0A1,1,0,0,1,2,1V4A1,1,0,1,1,0,4V1A1,1,0,0,1,1,0Z" transform="translate(141.205 257.919)" fill="#6d6d6d" opacity="0.2"/><path d="M1,0A1,1,0,0,1,2,1V4A1,1,0,1,1,0,4V1A1,1,0,0,1,1,0Z" transform="translate(131.205 257.919)" fill="#6d6d6d" opacity="0.2"/><path d="M-2.261,0h-1V-6.623l-2,.736v-.9l2.847-1.069h.156ZM1.106-3.921l.4-3.9H5.511V-6.9H2.347L2.111-4.77a2.524,2.524,0,0,1,1.3-.338,2.158,2.158,0,0,1,1.7.706,2.768,2.768,0,0,1,.628,1.909,2.672,2.672,0,0,1-.653,1.9,2.379,2.379,0,0,1-1.823.7A2.472,2.472,0,0,1,1.574-.467a2.294,2.294,0,0,1-.747-1.59h.94a1.578,1.578,0,0,0,.478,1.012A1.486,1.486,0,0,0,3.266-.7a1.341,1.341,0,0,0,1.088-.473,1.976,1.976,0,0,0,.395-1.305,1.814,1.814,0,0,0-.427-1.26,1.452,1.452,0,0,0-1.136-.475,1.638,1.638,0,0,0-1.021.285L1.9-3.717Z" transform="translate(172.205 282.919)"/><path d="M1,0A1,1,0,0,1,2,1V4A1,1,0,1,1,0,4V1A1,1,0,0,1,1,0Z" transform="translate(121.205 257.919)" fill="#333"/><path d="M1,0A1,1,0,0,1,2,1V4A1,1,0,1,1,0,4V1A1,1,0,0,1,1,0Z" transform="translate(111.205 257.919)" fill="#6d6d6d" opacity="0.2"/><path d="M1,0A1,1,0,0,1,2,1V4A1,1,0,1,1,0,4V1A1,1,0,0,1,1,0Z" transform="translate(101.205 257.919)" fill="#6d6d6d" opacity="0.2"/><path d="M1,0A1,1,0,0,1,2,1V4A1,1,0,1,1,0,4V1A1,1,0,0,1,1,0Z" transform="translate(91.205 257.919)" fill="#6d6d6d" opacity="0.2"/><path d="M1,0A1,1,0,0,1,2,1V4A1,1,0,1,1,0,4V1A1,1,0,0,1,1,0Z" transform="translate(81.205 257.919)" fill="#6d6d6d" opacity="0.2"/><path d="M-2.261,0h-1V-6.623l-2,.736v-.9l2.847-1.069h.156ZM5.554-3.335a4.545,4.545,0,0,1-.6,2.594,2.12,2.12,0,0,1-1.86.848,2.136,2.136,0,0,1-1.853-.83A4.313,4.313,0,0,1,.618-3.2V-4.528a4.443,4.443,0,0,1,.6-2.562,2.137,2.137,0,0,1,1.869-.838,2.156,2.156,0,0,1,1.858.808,4.288,4.288,0,0,1,.612,2.495ZM4.56-4.694a3.641,3.641,0,0,0-.354-1.84,1.22,1.22,0,0,0-1.123-.577,1.2,1.2,0,0,0-1.112.575,3.555,3.555,0,0,0-.36,1.767v1.59a3.7,3.7,0,0,0,.368,1.872,1.218,1.218,0,0,0,1.115.6,1.2,1.2,0,0,0,1.093-.569A3.566,3.566,0,0,0,4.56-3.067Z" transform="translate(122.205 282.919)"/><path d="M1,0A1,1,0,0,1,2,1V4A1,1,0,1,1,0,4V1A1,1,0,0,1,1,0Z" transform="translate(71.205 257.919)" fill="#333"/><path d="M1,0A1,1,0,0,1,2,1V4A1,1,0,1,1,0,4V1A1,1,0,0,1,1,0Z" transform="translate(61.205 257.919)" fill="#6d6d6d" opacity="0.2"/><path d="M1,0A1,1,0,0,1,2,1V4A1,1,0,1,1,0,4V1A1,1,0,0,1,1,0Z" transform="translate(51.205 257.919)" fill="#6d6d6d" opacity="0.2"/><path d="M1,0A1,1,0,0,1,2,1V4A1,1,0,1,1,0,4V1A1,1,0,0,1,1,0Z" transform="translate(41.205 257.919)" fill="#6d6d6d" opacity="0.2"/><path d="M1,0A1,1,0,0,1,2,1V4A1,1,0,1,1,0,4V1A1,1,0,0,1,1,0Z" transform="translate(31.205 257.919)" fill="#6d6d6d" opacity="0.2"/><path d="M-1.982-3.921l.4-3.9h4V-6.9H-.741L-.978-4.77A2.524,2.524,0,0,1,.328-5.108a2.158,2.158,0,0,1,1.7.706,2.768,2.768,0,0,1,.628,1.909A2.672,2.672,0,0,1,2-.588a2.379,2.379,0,0,1-1.823.7A2.472,2.472,0,0,1-1.515-.467a2.294,2.294,0,0,1-.747-1.59h.94A1.578,1.578,0,0,0-.843-1.045,1.486,1.486,0,0,0,.177-.7a1.341,1.341,0,0,0,1.088-.473,1.976,1.976,0,0,0,.4-1.308,1.814,1.814,0,0,0-.427-1.26A1.452,1.452,0,0,0,.1-4.216a1.638,1.638,0,0,0-1.021.285l-.263.215Z" transform="translate(72.205 282.919)"/><path d="M0,199V181.6C13.013,75.5,238.3,0,238.3,0V107.984C112.562,117.441,0,199,0,199Z" transform="translate(23.693 2.503)" fill="#d5c5ea" opacity="0.44"/><path d="M21.187,162.458,168.061,41.8l5.027,6.1L27.651,167.306Z" transform="translate(23.485 1.696)" fill="#00aeef"/><path d="M8,0a7.9,7.9,0,0,1,8,7.8,7.9,7.9,0,0,1-8,7.8A7.9,7.9,0,0,1,0,7.8,7.9,7.9,0,0,1,8,0Z" transform="translate(37.205 160.919)" fill="#fff" stroke="#8caee4" stroke-width="3.6"/><path d="M8,0a7.9,7.9,0,0,1,8,7.8,7.9,7.9,0,0,1-8,7.8A7.9,7.9,0,0,1,0,7.8,7.9,7.9,0,0,1,8,0Z" transform="translate(190.526 34.919)" fill="#fff" stroke="#2b2f84" stroke-width="3.6"/></g></svg>