<svg xmlns="http://www.w3.org/2000/svg" width="255" height="260.415" viewBox="0 0 255 260.415"><g transform="translate(4023 12553.455)"><path d="M1,0A1,1,0,0,1,2,1V4A1,1,0,0,1,0,4V1A1,1,0,0,1,1,0Z" transform="translate(-4023 -12336.04) rotate(-90)" fill="#6d6d6d" opacity="0.2"/><path d="M1,0A1,1,0,0,1,2,1V4A1,1,0,0,1,0,4V1A1,1,0,0,1,1,0Z" transform="translate(-4023 -12326.04) rotate(-90)" fill="#6d6d6d" opacity="0.2"/><path d="M1,0A1,1,0,0,1,2,1V4A1,1,0,0,1,0,4V1A1,1,0,0,1,1,0Z" transform="translate(-4023 -12316.04) rotate(-90)" fill="#6d6d6d" opacity="0.2"/><path d="M1,0A1,1,0,0,1,2,1V4A1,1,0,0,1,0,4V1A1,1,0,0,1,1,0Z" transform="translate(-4023 -12306.04) rotate(-90)" fill="#6d6d6d" opacity="0.2"/><path d="M1,0A1,1,0,0,1,2,1V4A1,1,0,0,1,0,4V1A1,1,0,0,1,1,0Z" transform="translate(-4023 -12346.04) rotate(-90)" fill="#6d6d6d"/><path d="M1,0A1,1,0,0,1,2,1V4A1,1,0,0,1,0,4V1A1,1,0,0,1,1,0Z" transform="translate(-4023 -12386.04) rotate(-90)" fill="#6d6d6d" opacity="0.2"/><path d="M1,0A1,1,0,0,1,2,1V4A1,1,0,0,1,0,4V1A1,1,0,0,1,1,0Z" transform="translate(-4023 -12376.04) rotate(-90)" fill="#6d6d6d" opacity="0.2"/><path d="M1,0A1,1,0,0,1,2,1V4A1,1,0,0,1,0,4V1A1,1,0,0,1,1,0Z" transform="translate(-4023 -12366.04) rotate(-90)" fill="#6d6d6d" opacity="0.2"/><path d="M1,0A1,1,0,0,1,2,1V4A1,1,0,0,1,0,4V1A1,1,0,0,1,1,0Z" transform="translate(-4023 -12356.04) rotate(-90)" fill="#6d6d6d" opacity="0.2"/><path d="M1,0A1,1,0,0,1,2,1V4A1,1,0,0,1,0,4V1A1,1,0,0,1,1,0Z" transform="translate(-4023 -12396.04) rotate(-90)" fill="#6d6d6d"/><path d="M1,0A1,1,0,0,1,2,1V4A1,1,0,0,1,0,4V1A1,1,0,0,1,1,0Z" transform="translate(-4023 -12436.04) rotate(-90)" fill="#6d6d6d" opacity="0.2"/><path d="M1,0A1,1,0,0,1,2,1V4A1,1,0,0,1,0,4V1A1,1,0,0,1,1,0Z" transform="translate(-4023 -12426.04) rotate(-90)" fill="#6d6d6d" opacity="0.2"/><path d="M1,0A1,1,0,0,1,2,1V4A1,1,0,0,1,0,4V1A1,1,0,0,1,1,0Z" transform="translate(-4023 -12416.04) rotate(-90)" fill="#6d6d6d" opacity="0.2"/><path d="M1,0A1,1,0,0,1,2,1V4A1,1,0,0,1,0,4V1A1,1,0,0,1,1,0Z" transform="translate(-4023 -12406.04) rotate(-90)" fill="#6d6d6d" opacity="0.2"/><path d="M1,0A1,1,0,0,1,2,1V4A1,1,0,0,1,0,4V1A1,1,0,0,1,1,0Z" transform="translate(-4023 -12446.04) rotate(-90)" fill="#6d6d6d"/><path d="M1,0A1,1,0,0,1,2,1V4A1,1,0,0,1,0,4V1A1,1,0,0,1,1,0Z" transform="translate(-4023 -12486.04) rotate(-90)" opacity="0.2"/><path d="M1,0A1,1,0,0,1,2,1V4A1,1,0,0,1,0,4V1A1,1,0,0,1,1,0Z" transform="translate(-4023 -12476.04) rotate(-90)" opacity="0.2"/><path d="M1,0A1,1,0,0,1,2,1V4A1,1,0,0,1,0,4V1A1,1,0,0,1,1,0Z" transform="translate(-4023 -12466.04) rotate(-90)" opacity="0.2"/><path d="M1,0A1,1,0,0,1,2,1V4A1,1,0,0,1,0,4V1A1,1,0,0,1,1,0Z" transform="translate(-4023 -12456.04) rotate(-90)" opacity="0.2"/><path d="M1,0A1,1,0,0,1,2,1V4A1,1,0,0,1,0,4V1A1,1,0,0,1,1,0Z" transform="translate(-4023 -12496.04) rotate(-90)"/><path d="M1,0A1,1,0,0,1,2,1V4A1,1,0,0,1,0,4V1A1,1,0,0,1,1,0Z" transform="translate(-4023 -12526.04) rotate(-90)" opacity="0.3"/><path d="M1,0A1,1,0,0,1,2,1V4A1,1,0,0,1,0,4V1A1,1,0,0,1,1,0Z" transform="translate(-4023 -12516.04) rotate(-90)" opacity="0.3"/><path d="M1,0A1,1,0,0,1,2,1V4A1,1,0,0,1,0,4V1A1,1,0,0,1,1,0Z" transform="translate(-4023 -12506.04) rotate(-90)" opacity="0.3"/><path d="M1,0A1,1,0,0,1,2,1V4A1,1,0,0,1,0,4V1A1,1,0,0,1,1,0Z" transform="translate(-4023 -12496.04) rotate(-90)" opacity="0.2"/><path d="M1,0A1,1,0,0,1,2,1V4A1,1,0,0,1,0,4V1A1,1,0,0,1,1,0Z" transform="translate(-4023 -12536.04) rotate(-90)"/><path d="M1,0A1,1,0,0,1,2,1V4A1,1,0,0,1,0,4V1A1,1,0,0,1,1,0Z" transform="translate(-3770 -12298.04)" fill="#333"/><path d="M1,0A1,1,0,0,1,2,1V4A1,1,0,0,1,0,4V1A1,1,0,0,1,1,0Z" transform="translate(-3780 -12298.04)" fill="#6d6d6d" opacity="0.2"/><path d="M1,0A1,1,0,0,1,2,1V4A1,1,0,0,1,0,4V1A1,1,0,0,1,1,0Z" transform="translate(-3790 -12298.04)" fill="#6d6d6d" opacity="0.2"/><path d="M1,0A1,1,0,0,1,2,1V4A1,1,0,0,1,0,4V1A1,1,0,0,1,1,0Z" transform="translate(-3800 -12298.04)" fill="#6d6d6d" opacity="0.2"/><path d="M1,0A1,1,0,0,1,2,1V4A1,1,0,0,1,0,4V1A1,1,0,0,1,1,0Z" transform="translate(-3810 -12298.04)" fill="#6d6d6d" opacity="0.2"/><path d="M1,0A1,1,0,0,1,2,1V4A1,1,0,0,1,0,4V1A1,1,0,0,1,1,0Z" transform="translate(-3820 -12298.04)" fill="#333"/><path d="M1,0A1,1,0,0,1,2,1V4A1,1,0,0,1,0,4V1A1,1,0,0,1,1,0Z" transform="translate(-3830 -12298.04)" fill="#6d6d6d" opacity="0.2"/><path d="M1,0A1,1,0,0,1,2,1V4A1,1,0,0,1,0,4V1A1,1,0,0,1,1,0Z" transform="translate(-3840 -12298.04)" fill="#6d6d6d" opacity="0.2"/><path d="M1,0A1,1,0,0,1,2,1V4A1,1,0,0,1,0,4V1A1,1,0,0,1,1,0Z" transform="translate(-3850 -12298.04)" fill="#6d6d6d" opacity="0.2"/><path d="M1,0A1,1,0,0,1,2,1V4A1,1,0,0,1,0,4V1A1,1,0,0,1,1,0Z" transform="translate(-3860 -12298.04)" fill="#6d6d6d" opacity="0.2"/><path d="M1,0A1,1,0,0,1,2,1V4A1,1,0,0,1,0,4V1A1,1,0,0,1,1,0Z" transform="translate(-3870 -12298.04)" fill="#333"/><path d="M1,0A1,1,0,0,1,2,1V4A1,1,0,0,1,0,4V1A1,1,0,0,1,1,0Z" transform="translate(-3880 -12298.04)" fill="#6d6d6d" opacity="0.2"/><path d="M1,0A1,1,0,0,1,2,1V4A1,1,0,0,1,0,4V1A1,1,0,0,1,1,0Z" transform="translate(-3890 -12298.04)" fill="#6d6d6d" opacity="0.2"/><path d="M1,0A1,1,0,0,1,2,1V4A1,1,0,0,1,0,4V1A1,1,0,0,1,1,0Z" transform="translate(-3900 -12298.04)" fill="#6d6d6d" opacity="0.2"/><path d="M1,0A1,1,0,0,1,2,1V4A1,1,0,0,1,0,4V1A1,1,0,0,1,1,0Z" transform="translate(-3910 -12298.04)" fill="#6d6d6d" opacity="0.2"/><path d="M1,0A1,1,0,0,1,2,1V4A1,1,0,0,1,0,4V1A1,1,0,0,1,1,0Z" transform="translate(-3920 -12298.04)" fill="#333"/><path d="M1,0A1,1,0,0,1,2,1V4A1,1,0,0,1,0,4V1A1,1,0,0,1,1,0Z" transform="translate(-3930 -12298.04)" fill="#6d6d6d" opacity="0.2"/><path d="M1,0A1,1,0,0,1,2,1V4A1,1,0,0,1,0,4V1A1,1,0,0,1,1,0Z" transform="translate(-3940 -12298.04)" fill="#6d6d6d" opacity="0.2"/><path d="M1,0A1,1,0,0,1,2,1V4A1,1,0,0,1,0,4V1A1,1,0,0,1,1,0Z" transform="translate(-3950 -12298.04)" fill="#6d6d6d" opacity="0.2"/><path d="M1,0A1,1,0,0,1,2,1V4A1,1,0,0,1,0,4V1A1,1,0,0,1,1,0Z" transform="translate(-3960 -12298.04)" fill="#6d6d6d" opacity="0.2"/><path d="M1,0A1,1,0,0,1,2,1V4A1,1,0,0,1,0,4V1A1,1,0,0,1,1,0Z" transform="translate(-3970 -12298.04)" fill="#333"/><path d="M1,0A1,1,0,0,1,2,1V4A1,1,0,0,1,0,4V1A1,1,0,0,1,1,0Z" transform="translate(-3980 -12298.04)" fill="#6d6d6d" opacity="0.2"/><path d="M1,0A1,1,0,0,1,2,1V4A1,1,0,0,1,0,4V1A1,1,0,0,1,1,0Z" transform="translate(-3990 -12298.04)" fill="#6d6d6d" opacity="0.2"/><path d="M1,0A1,1,0,0,1,2,1V4A1,1,0,0,1,0,4V1A1,1,0,0,1,1,0Z" transform="translate(-4000 -12298.04)" fill="#6d6d6d" opacity="0.2"/><path d="M1,0A1,1,0,0,1,2,1V4A1,1,0,0,1,0,4V1A1,1,0,0,1,1,0Z" transform="translate(-4010 -12298.04)" fill="#6d6d6d" opacity="0.2"/><path d="M0,199s0,0,0-17.4C13.013,75.495,238.3,0,238.3,0V107.984C112.562,117.441,0,199,0,199Z" transform="translate(-4017.513 -12553.455)" fill="#d5c5ea" opacity="0.44"/><path d="M21.187,162.458,168.061,41.8l5.027,6.1L27.651,167.306Z" transform="translate(-4017.72 -12554.263)" fill="#00aeef"/><path d="M8,0a7.9,7.9,0,0,1,8,7.8,7.9,7.9,0,0,1-8,7.8A7.9,7.9,0,0,1,0,7.8,7.9,7.9,0,0,1,8,0Z" transform="translate(-4004 -12395.039)" fill="#fff" stroke="#8caee4" stroke-width="3.6"/><path d="M8,0a7.9,7.9,0,0,1,8,7.8,7.9,7.9,0,0,1-8,7.8A7.9,7.9,0,0,1,0,7.8,7.9,7.9,0,0,1,8,0Z" transform="translate(-3850.679 -12521.039)" fill="#fff" stroke="#2b2f84" stroke-width="3.6"/></g></svg>