<svg xmlns="http://www.w3.org/2000/svg" width="120" height="105" viewBox="0 0 120 105"><g transform="translate(-12899 4005)"><rect width="120" height="105" transform="translate(12899 -4005)" fill="none" opacity="0.2"/><g transform="translate(12904 -4000)"><path d="M243.989,204.222c-6.566-1.7-10.877.643-13.427,3.1-.015-.216-.037-.435-.06-.658-5.809,8.069-14.634,16.638-27.3,25.364a98.42,98.42,0,0,0,10.991,17.25l.1.134.275-.048C267.9,240.021,260.844,208.461,243.989,204.222Z" transform="translate(-146.355 -155.288)" fill="#fff"/><path d="M226.524,199.116c-.394-3.44-2.157-7.7-7.78-10.7a13.177,13.177,0,0,0-1.461-.694c-13.151-5.37-32.31,7.382-18.062,36.753C211.89,215.754,220.715,207.185,226.524,199.116Z" transform="translate(-142.377 -147.737)" fill="#b3e7fa"/><path d="M176.387,157.1a13.211,13.211,0,0,1,1.461.693c5.623,2.993,7.386,7.257,7.779,10.7,21.889-30.413.855-53.7-19.528-51.174-10.573,1.242-15.556,7.113-17.9,12.16-2.358-5.043-7.342-10.9-17.917-12.174a20.443,20.443,0,0,0-2.532-.184c-26.268-.472-50.518,40.592,20.288,83.061l.225.139.374-.224q5.18-3.128,9.686-6.238C144.077,164.486,163.236,151.734,176.387,157.1Z" transform="translate(-101.48 -117.116)" fill="#00aeef"/></g></g></svg>