<svg xmlns="http://www.w3.org/2000/svg" width="18.635" height="15.958" viewBox="0 0 18.635 15.958">
  <g id="logo_chatbot" transform="translate(-0.001 0.002)">
    <path id="Path_2248" data-name="Path 2248" d="M210.114,203.742a2.275,2.275,0,0,0-2.276.526,1.079,1.079,0,0,0-.01-.112,18.651,18.651,0,0,1-4.628,4.3,16.685,16.685,0,0,0,1.863,2.924l.017.023.047-.008C214.168,209.81,212.971,204.46,210.114,203.742Z" transform="translate(-193.564 -195.447)" fill="#fff"/>
    <path id="Path_2249" data-name="Path 2249" d="M199.666,188.662a2.3,2.3,0,0,0-1.319-1.813,2.231,2.231,0,0,0-.248-.118c-2.229-.91-5.477,1.251-3.062,6.23a18.652,18.652,0,0,0,4.629-4.3Z" transform="translate(-185.402 -179.953)" fill="#b3e7fa"/>
    <path id="Path_2250" data-name="Path 2250" d="M114.178,123.894a2.241,2.241,0,0,1,.248.117,2.3,2.3,0,0,1,1.319,1.813c3.71-5.155.145-9.1-3.31-8.675a3.573,3.573,0,0,0-3.034,2.061,3.594,3.594,0,0,0-3.037-2.064,3.47,3.47,0,0,0-.429-.031c-4.453-.08-8.563,6.881,3.439,14.08l.038.024.063-.038q.878-.53,1.642-1.057C108.7,125.146,111.949,122.984,114.178,123.894Z" transform="translate(-101.48 -117.116)" fill="#00aeef"/>
  </g>
</svg>
