<?xml version="1.0" encoding="utf-8"?>
<!-- Generator: Adobe Illustrator 26.4.1, SVG Export Plug-In . SVG Version: 6.00 Build 0)  -->
<svg version="1.1" id="Layer_1" xmlns="http://www.w3.org/2000/svg" xmlns:xlink="http://www.w3.org/1999/xlink" x="0px" y="0px"
	 viewBox="0 0 344 251" style="enable-background:new 0 0 344 251;" xml:space="preserve">
<style type="text/css">
	.st0{fill:#FFFFFF;}
	.st1{fill:#80D6F7;}
	.st2{fill:#00AEEF;}
	.st3{fill:#4CC6F4;}
	.st4{fill:#B3E7FA;}
</style>
<path class="st0" d="M81.6,132C81.6,132,81.5,131.9,81.6,132l-12.1,1.6c-0.9,0.1-1.7-0.5-1.9-1.4c-2.2-5.6-5-17.9-6.3-24.7
	c-0.1-0.5-0.2-0.6-0.4-0.6c-0.1,0-0.2,0.2-0.4,0.6l-4.4,19.9c-0.1,0.8-1,1.6-1.9,1.7c0,0,0,0-0.1,0L43,130.5
	c-0.9,0.1-1.9-0.4-2.4-1.2l-6.9-12.4c-0.2-0.4-0.4-0.5-0.6-0.5c-0.1,0-0.2,0.2-0.3,0.7l-0.7,21c-0.1,0.8-0.7,1.5-1.5,1.7
	c-0.1,0-0.1,0-0.2,0L18,140.5c-0.7,0-1.4-0.5-1.5-1.2c0-0.1,0-0.2-0.1-0.3l1.7-49.3c0-0.8,0.7-1.6,1.5-1.8h0.1L35,86.4
	c0.9-0.1,1.8,0.5,2.1,1.3l7.8,21.7c0.2,0.4,0.4,0.6,0.6,0.6c0.1,0,0.3-0.2,0.4-0.6l6.8-26.3c0.2-0.8,1-1.5,1.9-1.6h0.1l15.1-1.3
	c0.9,0,1.8,0.6,1.9,1.4c2.2,12.4,6.5,36.8,10.7,48.4c0,0.1,0,0.1,0,0.1C82.9,131.1,82.4,131.9,81.6,132z"/>
<path class="st0" d="M121.3,115.6c-0.5,6.1-6,14.5-15.7,15.4c-11.6,1-20.8-4.9-21.9-17.4c-1.1-12.3,5.2-22.1,15.3-23
	c12.7-1.1,17.9,8.4,18.9,19.2c0.2,2.1-0.8,2.6-1.9,2.7c0,0.1-1.1,0.3-18.9,2.3c1.2,4.2,4.1,5.4,6.7,5.2c2.3-0.2,4.3-1.6,4.6-3.1
	c0.1-0.6,0.5-1,1.4-1.1c7-0.7,10.2-1.2,10.3-1.2H120h0.1c0.7-0.1,1,0.2,1.1,0.8C121.3,115.5,121.3,115.5,121.3,115.6z M100.5,103
	c-2.1,0.2-3.5,1.6-3.8,4.7c2.8-0.4,6.6-0.9,6.9-0.9c0.2,0,0.3-0.1,0.2-0.4C103.6,104.4,102.6,102.8,100.5,103z"/>
<path class="st0" d="M149,88.6c0.1,1.4,0,10.1,0,11.7c0,0.3-0.2,0.5-0.6,0.6c-7.1,0.5-9.9,5.2-9.5,13.4c0,0,0.3,5.3,0.6,12.1
	c0,0.6-0.4,1.1-1,1.1l-11.3,0.8h-0.1c-0.5,0-1-0.4-1-1l-2.8-36.1v-0.1c0-0.5,0.4-1,0.9-1h0.1h11.5c0.9,0,1.1,0.2,1.1,0.9l0.1,1.6
	c0,0.1,0,0.3,0.1,0.3c0,0,0.1-0.1,0.1-0.2c2.2-3.4,6.5-4.6,9.5-4.8c0.7,0,1.3,0,1.9,0.1C148.6,88.1,149,88.2,149,88.6L149,88.6z"/>
<path class="st0" d="M192.1,127.2c-0.1,0.4-0.3,0.7-0.9,0.7c0,0,0,0-0.1,0l-12.5-1c-0.3,0-0.5-0.3-0.5-0.5v-0.1
	c0.3-2.3,0.7-4.2,0.6-9.5c0-12.1-1.4-16.4-5.4-16.4c-2.7,0-4.2,2.2-4.2,7.7l0.2,17.7c0,0.5-0.5,1-0.9,1c-0.1,0-0.1,0-0.1,0
	l-11.7-0.3c-0.6,0-1-0.5-1.1-1l-2.1-52.8c0-0.5,0.4-0.9,0.9-0.9l13.3,0.2c0.5,0,0.9,0.5,1,1l0.4,16.9c1.3-0.7,2.7-1.9,6.3-1.9
	c9.8,0,17.3,5.3,17.3,24.5C192.6,120.6,192.4,125.3,192.1,127.2z"/>
<path class="st0" d="M233.5,127.7c0,0.6-0.6,1.1-1.2,1.1h-10.9c-0.1,0-0.1,0-0.1,0c-0.6,0-1-0.5-1-1.1l0.1-3.6
	c-2.2,1.9-4.9,3-8.6,2.8c-10-0.5-16.2-8.2-15.6-19.9c0.5-11.1,8.8-18,17.7-17.6c3.1,0.2,5.8,1.3,8.1,2.8v-1.7c0-0.6,0.5-1,1.1-1.1
	l12.5,0.4c0.6,0,1,0.5,1,1.1L233.5,127.7z M221.3,106.5c-0.4-2.2-2.1-4-4.7-4.1c-3.2-0.2-5.5,2.3-5.7,6.1c-0.2,3.7,2.2,6,5,6.2
	c2.1,0.1,4.4-1.7,5.2-5L221.3,106.5z"/>
<path class="st0" d="M261.3,132.4c-3-0.3-6-1.3-8.3-2.9l-0.1,1.3c-0.1,0.7-0.7,1.3-1.4,1.2l-11.4-0.9c-0.7-0.1-1.2-0.7-1.1-1.4
	l5.6-52.6c0.1-0.7,0.7-1.2,1.4-1.1l12.9,0.8c0.7,0.1,1.2,0.7,1.1,1.3l-2.1,15.2c1.9-0.5,4.2-1.1,6.9-0.8c9.2,1,16.3,9.7,14.9,22
	C278.2,128.1,269.8,133.3,261.3,132.4z M261,106.2c-3.1-0.3-5.3,2.9-5.6,6c-0.5,4.8,1.5,7.4,4.1,7.7c3.1,0.3,5.4-2.1,6-7.1
	C265.8,109,264.1,106.6,261,106.2z"/>
<path class="st0" d="M317.1,139.9c-0.1,0.6-0.7,1-1.3,1l-10.8-1.6c-0.1,0-0.1,0-0.1,0c-0.6-0.1-0.9-0.7-0.9-1.2l0.6-3.5
	c-2.4,1.6-5.3,2.3-8.9,1.6c-9.8-1.9-14.9-10.5-12.6-22c2.1-10.9,11.4-16.5,20.1-14.8c3,0.6,5.6,2.1,7.6,3.9l0.3-1.7
	c0.1-0.6,0.7-1,1.3-0.9l12.3,2.2c0.6,0.1,1,0.7,0.8,1.3L317.1,139.9z M308.1,117.1c-0.1-2.2-1.5-4.2-4-4.7c-3.1-0.6-5.8,1.5-6.5,5.2
	c-0.7,3.6,1.3,6.3,4.1,6.9c2,0.4,4.6-1,5.9-4.2L308.1,117.1z"/>
<path class="st1" d="M38.3,237.1c-14,2.6-21.5,2.7-22.5,2.6c-0.9-0.1-2.3-0.5-2.8-2.1c-1-3.4-2-6.7-6.7-36.1
	c-4.7-29.5-4.1-38.7-4.1-40c0.1-1.3,0-1.8,1.7-2.2c1.2-0.3,12.8-3.1,26.4-5.6c24.7-4.6,35.9,2,37.7,13.1
	c2.5,15.4-10.1,21.3-11.6,22.3l0.1,0.8c2.9,0.1,18,2.3,19.9,14C79.7,223.4,58.3,233.4,38.3,237.1z M32.6,171.6c-0.1,0-0.1,0-0.2,0
	l-5.1,1.3c-0.9,0.2-1.5,1.2-1.4,2.2l1.4,10.3c0,0.1,0,0.1,0,0.2c0.2,0.7,0.9,1.4,1.7,1.2c0,0,0,0,0.1,0l7.2-2.2
	c4.5-1.4,7.3-5,6.3-8.9C41.7,172,37.3,170.4,32.6,171.6z M38,205.5c-0.1,0-0.3,0.1-0.4,0.1l-5.3,1.4c-0.8,0.2-1.3,1.4-1.2,2.3l1.3,8
	c0,0.1,0,0.1,0.1,0.2c0.2,0.8,1,1.4,1.9,1.3l4.6-0.7c1-0.2,2-0.4,2.9-0.7c6.2-1.7,10.5-5.3,9.6-8.8C50.6,205.7,47.2,203,38,205.5z"
	/>
<path class="st2" d="M141.4,205.3c-1.1,9.6-10,22.4-25.1,23.4c-18.1,1.1-32.3-8.6-33.5-28c-1.2-19.2,9-34.4,24.9-35.4
	c19.9-1.2,27.7,13.9,28.7,30.8c0.2,3.2-1.4,4.1-3.1,4.2c0,0.1-1.7,0.4-29.6,2.7c1.7,6.6,6.2,8.6,10.2,8.4c3.6-0.2,6.9-2.3,7.3-4.6
	c0.2-0.9,0.8-1.5,2.2-1.6c10.9-0.9,16-1.5,16.2-1.5h-0.1h0.1c1-0.1,1.6,0.4,1.6,1.3C141.4,205.1,141.4,205.2,141.4,205.3z
	 M109.5,184.7c-3.2,0.2-5.6,2.3-6.1,7.2c4.4-0.5,10.4-1.2,10.8-1.2c0.3,0,0.4-0.1,0.4-0.5C114.3,187.1,112.7,184.5,109.5,184.7z"/>
<path class="st3" d="M181.9,226.9c-4.7-0.1-9.5-1.2-13.4-3.2l0.1,2.1c0,1.1-0.9,2.1-2,2.1l-17.8,0.4c-1,0-2-0.9-2-2l0.7-82.7
	c0-1,1-2,2-2l20.1-0.7c1,0,2,0.9,1.9,1.9l-1,24c2.8-1.1,6.4-2.3,10.7-2.2c14.5,0.2,26.8,12.7,26.6,32
	C207.5,217.7,195.3,227.1,181.9,226.9z M177.4,186.3c-4.9-0.1-7.8,5.3-7.9,10.2c-0.1,7.6,3.4,11.3,7.6,11.4c4.9,0.1,8.1-4.2,8.2-12
	C185.4,189.9,182.4,186.4,177.4,186.3z"/>
<path class="st2" d="M270.9,212c-2.6,9.3-13.4,20.6-28.4,19.2c-18.1-1.7-30.5-13.5-28.7-32.9c1.8-19.2,14.2-32.6,30.1-31
	c19.8,1.9,25.2,18,23.6,34.9c-0.3,3.2-2,3.8-3.7,3.6c0,0.1-1.8,0.1-29.7-1.9c0.6,6.8,4.7,9.5,8.8,9.8c3.6,0.3,7.1-1.2,8-3.4
	c0.3-0.9,1.1-1.4,2.4-1.2c10.9,0.8,16,1,16.2,1h-0.1h0.1c1,0.1,1.5,0.7,1.4,1.5C270.9,211.8,270.9,211.9,270.9,212z M242.5,186.7
	c-3.2-0.3-5.9,1.4-7.2,6.1c4.4,0.2,10.4,0.5,10.8,0.5c0.3,0,0.4-0.1,0.5-0.5C246.9,189.8,245.7,187,242.5,186.7z"/>
<path class="st1" d="M332.8,238.9l-15.8,8.3c-0.5,0.2-1,0.3-1.5,0.2c-0.5-0.1-1.1-0.5-1.4-0.9l-16.5-23.6c-0.2-0.4-0.5-0.5-0.7-0.6
	c-0.4-0.1-0.8,0.2-0.9,0.9l-2.5,11.7c-0.2,1.1-1.3,1.7-2.5,1.5l-17.1-4.1c-1-0.2-1.7-1.3-1.5-2.5l16.9-75.7c0.2-1.1,1.3-1.7,2.5-1.6
	L312,154h0.1c1,0.2,1.8,1.2,1.4,2.2v0.1l-9.6,37.3v0.1c-0.1,0.6,0,1,0.3,1c0.2,0,0.6-0.1,0.9-0.3l16.8-10.2c0.8-0.5,2.2-0.8,3.2-0.6
	c0.2,0,0.3,0.1,0.4,0.1L341,194c0.6,0.5,1,0.9,0.9,1.4c-0.1,0.3-0.2,0.6-0.6,0.8l-25.5,14.7c-0.5,0.3-0.8,0.7-0.9,1.2s0,1.1,0.3,1.5
	l18.2,22.9c0.4,0.4,0.4,0.9,0.3,1.4C333.6,238.2,333.3,238.6,332.8,238.9z"/>
<g>
	<path class="st2" d="M215.2,37c0.4,0.2,0.8,0.4,1.2,0.6c5,2.7,6.4,6.5,6.6,9.5c18.7-25.6,1-45.3-16.2-43.2c-8.9,1-13,6-15,10.2
		c-2-4.2-6.2-9.1-15-10.2c-0.7-0.1-1.4-0.2-2.1-0.2c-22-0.4-42.4,34,17,69.6l0.2,0.1l0.3-0.2c2.9-1.7,5.5-3.4,8-5.2
		C188,43.2,204.1,32.4,215.2,37z"/>
	<path class="st0" d="M234.3,44.5c-5.5-1.4-9.1,0.5-11.3,2.6l0,0c-4.9,6.7-12.3,13.8-22.8,21.1c2.1,4.3,5.1,9,9.1,14.1l0.1,0.1h0.2
		C254.3,74.5,248.4,48,234.3,44.5z"/>
	<path class="st4" d="M223,47c-0.2-3-1.6-6.8-6.6-9.5c-0.4-0.2-0.8-0.4-1.2-0.6c-11.1-4.5-27.2,6.3-15,31.1
		C210.7,60.9,218.1,53.7,223,47z"/>
</g>
</svg>
