<svg xmlns="http://www.w3.org/2000/svg" xmlns:xlink="http://www.w3.org/1999/xlink" width="96" height="84" viewBox="0 0 167 143">
  <defs>
    <clipPath id="clip-path">
      <rect id="Rectangle_635" data-name="Rectangle 635" width="155.53" height="134.412" fill="none"/>
    </clipPath>
  </defs>
  <g id="bebbo_logo_shape" transform="translate(23.263 17731.816)">
    <rect id="Rectangle_636" data-name="Rectangle 636" width="96" height="84" transform="translate(-23.263 -17731.816)" fill="none"/>
    <g id="Group_2466" data-name="Group 2466" transform="translate(-17.263 -17727.818)">
      <g id="Group_2465" data-name="Group 2465" transform="translate(0 0.002)" clip-path="url(#clip-path)">
        <path id="Path_2393" data-name="Path 2393" d="M151.693,25.958c-1.687-12.825-10.423-22.87-23.258-25.3-10.552-2-20.931.7-29.827,6.113l-.014.009q-1.157.7-2.281,1.467h0a56.1,56.1,0,0,0-5.144,3.972c-.414.358-.833.712-1.236,1.081-.8.734-1.586,1.5-2.363,2.279h0A75.886,75.886,0,0,0,75.838,30.8C62.394,13.108,39.443-2.366,18.4,11.674,7.018,19.268.282,32.654.009,46.227-.209,57.1,3.693,67.057,9.787,75.645c.06.085.121.169.181.253a68.3,68.3,0,0,0,4.537,5.662l.005.005c1.111,1.246,2.259,2.461,3.451,3.63.054.054.111.1.166.158.672.655,1.349,1.305,2.043,1.937h0q2.436,2.216,5.02,4.22c16.8,13.033,36.709,22.828,55.5,32.626a4.636,4.636,0,0,0,5.414-.7c5.968-5.337,12.012-10.67,17.951-16.128h0q4.612-4.239,9.11-8.6l0,0A222.94,222.94,0,0,0,134.9,74.666c10.623-13.874,19.156-30.732,16.792-48.708" transform="translate(0 0)" fill="#009cdc"/>
        <path id="Path_2394" data-name="Path 2394" d="M125.912,131.789a3.431,3.431,0,0,0-2.782-3.026,5.038,5.038,0,0,0-3.568.731h0q-.139.085-.273.176h0a6.706,6.706,0,0,0-.615.475c-.05.043-.1.085-.148.129-.1.088-.19.179-.283.273a9.083,9.083,0,0,0-1.4,1.82c-1.608-2.116-4.353-3.967-6.87-2.288a5.125,5.125,0,0,0-2.2,4.133,5.863,5.863,0,0,0,1.169,3.519l.022.03a8.183,8.183,0,0,0,.543.677h0c.133.149.27.294.413.434l.02.019c.08.078.161.156.244.232h0q.291.265.6.5a43.558,43.558,0,0,0,6.638,3.9.555.555,0,0,0,.648-.084c.714-.638,1.437-1.276,2.147-1.929h0q.552-.507,1.09-1.028h0a26.673,26.673,0,0,0,2.6-2.876,8.078,8.078,0,0,0,2.008-5.826" transform="translate(-76.93 -91.863)" fill="#fff"/>
        <path id="Path_2395" data-name="Path 2395" d="M395.246,98.183a3.431,3.431,0,0,0-2.782-3.026,5.038,5.038,0,0,0-3.568.731h0q-.139.085-.273.176h0a6.712,6.712,0,0,0-.615.475c-.05.043-.1.085-.148.129-.1.088-.19.179-.283.273a9.074,9.074,0,0,0-1.4,1.821c-1.608-2.116-4.353-3.967-6.87-2.288a5.125,5.125,0,0,0-2.2,4.133,5.863,5.863,0,0,0,1.169,3.519l.022.03a8.183,8.183,0,0,0,.543.677h0c.133.149.27.294.413.434l.02.019c.08.078.161.156.244.231h0q.291.265.6.5a43.553,43.553,0,0,0,6.638,3.9.555.555,0,0,0,.648-.084c.714-.638,1.437-1.276,2.147-1.929h0q.552-.507,1.09-1.028h0a26.706,26.706,0,0,0,2.6-2.876,8.078,8.078,0,0,0,2.008-5.826" transform="translate(-269.195 -67.873)" fill="#fff"/>
        <path id="Path_2396" data-name="Path 2396" d="M45.666,308.875a71.756,71.756,0,0,0,15.026,12.966c1.359.888,2.653,1.911,4.037,2.748l4.185,2.435,2.092,1.218,2.166,1.029,4.335,2.051a115.042,115.042,0,0,0,36.5,8.956l9.352.579,9.365-.29,4.682-.156,4.66-.58,9.319-1.159c6.176-1.077,12.3-2.568,18.452-3.858l18.292-4.968-18.076,6.1c-6.176,1.3-12.328,2.794-18.533,3.875l-9.366,1.165-4.683.582-4.708.158-9.419.291-9.411-.582a115.921,115.921,0,0,1-36.777-9.028l-4.375-2.069L70.6,329.3l-2.113-1.23-4.226-2.459c-1.389-.863-2.731-1.83-4.082-2.773a73.337,73.337,0,0,1-14.509-13.965" transform="translate(-32.599 -220.492)" fill="#fff"/>
        <path id="Path_2397" data-name="Path 2397" d="M156.422,285.921c-7.89,11.255-19.093,18.74-30.571,23.991-2.928,1.191-5.826,2.5-8.779,3.593l-8.972,2.858c-6.073,1.414-12.136,2.986-18.314,3.622-6.138,1.065-12.336,1.2-18.52,1.555-3.092.285-6.187-.02-9.281-.032l-9.282-.236c-6.162-.649-12.337-1.175-18.489-1.925L15.94,315.609l18.392,2.583c6.131.747,12.284,1.271,18.424,1.919l9.244.234c3.08.012,6.165.317,9.241.032,6.154-.355,12.325-.488,18.426-1.547,6.146-.631,12.168-2.195,18.2-3.6l8.907-2.838c2.93-1.089,5.8-2.383,8.708-3.564,2.848-1.347,5.637-2.87,8.437-4.347l4.055-2.56L140,300.635l1.941-1.448a61.98,61.98,0,0,0,14.478-13.266" transform="translate(-11.379 -204.106)" fill="#fff"/>
        <path id="Path_2398" data-name="Path 2398" d="M5.311,383.078c5.773-.428,11.536-1.008,17.3-1.586,5.769-.406,11.533-.893,17.295-1.42q17.284-1.6,34.484-4.161,17.2-2.492,34.169-6.661c2.809-.767,5.651-1.389,8.434-2.274l8.347-2.657,8.263-2.994c2.7-1.181,5.34-2.542,8.026-3.811-2.609,1.441-5.2,2.985-7.848,4.354l-8.152,3.564-8.392,2.671c-2.8.889-5.647,1.513-8.468,2.283q-17,4.206-34.252,6.678-17.223,2.556-34.532,4.167-8.652.795-17.314,1.426c-5.785.212-11.571.38-17.356.421" transform="translate(-3.791 -255.214)" fill="#fff"/>
        <path id="Path_2399" data-name="Path 2399" d="M72.148,319.123A79.934,79.934,0,0,0,84.642,332.61,92.954,92.954,0,0,0,98.9,343.374,86.841,86.841,0,0,0,131.2,355.1a102.066,102.066,0,0,0,16.977.9,108.614,108.614,0,0,0,16.913-2.087,131.062,131.062,0,0,0,16.578-4.506c2.742-.864,5.456-1.854,8.192-2.777l8.076-3.258-7.911,3.806c-2.689,1.109-5.364,2.289-8.075,3.345a131.928,131.928,0,0,1-16.692,4.537,109.48,109.48,0,0,1-17.049,2.1,102.961,102.961,0,0,1-17.135-.913A87.746,87.746,0,0,1,98.44,344.406a94.459,94.459,0,0,1-14.416-10.879,81.609,81.609,0,0,1-11.876-14.4" transform="translate(-51.503 -227.808)" fill="#fff"/>
        <path id="Path_2400" data-name="Path 2400" d="M175.248,331.952a52.8,52.8,0,0,1-11.955,13.083,60.53,60.53,0,0,1-7.193,4.71c-2.453,1.451-5.08,2.447-7.612,3.691-10.4,4.265-21.516,5.585-32.44,5.218-5.5.082-10.92-.951-16.36-1.7l-2.038-.3-2.008-.5-4.015-1.009c-2.673-.69-5.363-1.307-8.022-2.059-5.225-1.9-10.5-3.618-15.684-5.666l-15.1-7.477,15.433,6.379c5.156,2.038,10.407,3.747,15.606,5.638,2.644.747,5.317,1.359,7.973,2.045l3.991,1,2,.5,2.024.3c5.4.747,10.784,1.774,16.233,1.691,10.831.365,21.829-.945,32.091-5.154,2.5-1.23,5.09-2.21,7.507-3.64a60.286,60.286,0,0,0,7.081-4.641,51.281,51.281,0,0,0,12.5-12.1" transform="translate(-37.704 -236.966)" fill="#fff"/>
        <path id="Path_2401" data-name="Path 2401" d="M40.27,413.7c4.968.6,9.944,1.067,14.921,1.491q7.44.912,14.9,1.591c9.944.9,19.91,1.519,29.879,1.667a225.707,225.707,0,0,0,29.857-1.273,119.539,119.539,0,0,0,14.742-2.615,57.054,57.054,0,0,0,14.306-4.868,58.7,58.7,0,0,1-14.094,6,120.476,120.476,0,0,1-14.853,2.636,226.491,226.491,0,0,1-29.97,1.279c-10-.148-19.981-.773-29.943-1.67q-7.471-.682-14.926-1.589-7.429-1.187-14.817-2.653" transform="translate(-28.747 -292.461)" fill="#fff"/>
        <path id="Path_2402" data-name="Path 2402" d="M99.291,311.974a14.405,14.405,0,0,1-1.644,6.434,13.411,13.411,0,0,1,0-12.868,14.406,14.406,0,0,1,1.644,6.434" transform="translate(-68.532 -218.111)" fill="#fff"/>
        <path id="Path_2403" data-name="Path 2403" d="M38.985,452.328a4.254,4.254,0,0,1-4.316.547s1.434-3.73,3.628-5.362a4.253,4.253,0,0,1,4.316-.547s-1.434,3.73-3.627,5.362" transform="translate(-24.749 -318.816)" fill="#fff"/>
        <path id="Path_2404" data-name="Path 2404" d="M460.362,431.508c2.521.912,4.757,4.039,4.757,4.039a4.528,4.528,0,0,1-4.371.736c-2.521-.912-4.757-4.039-4.757-4.039a4.527,4.527,0,0,1,4.371-.736" transform="translate(-325.511 -307.838)" fill="#fff"/>
        <path id="Path_2405" data-name="Path 2405" d="M459.389,377.084a9.634,9.634,0,0,1,3.476,1.361,4.561,4.561,0,0,1-2.915.525,9.639,9.639,0,0,1-3.476-1.361,4.56,4.56,0,0,1,2.915-.525" transform="translate(-325.855 -269.152)" fill="#fff"/>
        <path id="Path_2406" data-name="Path 2406" d="M449.214,301.7a5.74,5.74,0,0,1,3.492-3.432,17.353,17.353,0,0,1-.853,6.9,5.74,5.74,0,0,1-3.492,3.432,17.358,17.358,0,0,1,.853-6.9" transform="translate(-320.03 -212.922)" fill="#fff"/>
        <path id="Path_2407" data-name="Path 2407" d="M494.24,380.014a3.938,3.938,0,0,1,2.03-2.06,10.86,10.86,0,0,1-.812,3.88,3.936,3.936,0,0,1-2.031,2.06,10.86,10.86,0,0,1,.812-3.88" transform="translate(-352.235 -269.804)" fill="#fff"/>
        <path id="Path_2408" data-name="Path 2408" d="M393.916,345.912a3.94,3.94,0,0,1,2.03-2.061,10.859,10.859,0,0,1-.811,3.88,3.938,3.938,0,0,1-2.031,2.061,10.861,10.861,0,0,1,.812-3.88" transform="translate(-280.619 -245.46)" fill="#fff"/>
        <path id="Path_2409" data-name="Path 2409" d="M93.342,412.194a4.945,4.945,0,0,1,.921,2.953,8.138,8.138,0,0,1-2.809-2.272,4.942,4.942,0,0,1-.921-2.953,8.136,8.136,0,0,1,2.809,2.272" transform="translate(-64.625 -292.625)" fill="#fff"/>
        <path id="Path_2410" data-name="Path 2410" d="M442.993,439.452a3.938,3.938,0,0,1,2.031-2.06,10.862,10.862,0,0,1-.812,3.88,3.938,3.938,0,0,1-2.031,2.06,10.863,10.863,0,0,1,.812-3.88" transform="translate(-315.652 -312.234)" fill="#fff"/>
        <path id="Path_2411" data-name="Path 2411" d="M35.619,375.874a8.968,8.968,0,0,1-1.272-3.472,2.8,2.8,0,0,1,2.236,1.226,8.971,8.971,0,0,1,1.272,3.472,2.8,2.8,0,0,1-2.236-1.226" transform="translate(-24.519 -265.841)" fill="#fff"/>
      </g>
    </g>
  </g>
</svg>
