<svg width="64" height="64" viewBox="0 0 64 64" fill="none" xmlns="http://www.w3.org/2000/svg">
<circle opacity="0.2" cx="32" cy="32" r="32" fill="#00833D"/>
<g clip-path="url(#clip0_454_171)">
<path d="M44.1301 45.0006H36.5222C36.4038 45.0002 36.2903 44.953 36.2065 44.8693C36.1228 44.7855 36.0756 44.6721 36.0753 44.5536V42.9494C36.085 42.4022 35.9856 41.8586 35.7829 41.3503C35.5802 40.842 35.2783 40.3792 34.8948 39.9888C34.5113 39.5984 34.0538 39.2883 33.5492 39.0767C33.0445 38.865 32.5027 38.756 31.9555 38.756C31.4082 38.756 30.8665 38.865 30.3619 39.0767C29.8572 39.2883 29.3998 39.5984 29.0163 39.9888C28.6328 40.3792 28.3308 40.842 28.1281 41.3503C27.9254 41.8586 27.826 42.4022 27.8357 42.9494V44.5536C27.8354 44.6721 27.7882 44.7855 27.7044 44.8693C27.6207 44.953 27.5073 45.0002 27.3888 45.0006H19.7809C19.6625 45.0002 19.549 44.953 19.4652 44.8693C19.3815 44.7855 19.3343 44.6721 19.334 44.5536V34.799C19.3343 34.6806 19.3815 34.5671 19.4652 34.4834C19.549 34.3996 19.6625 34.3524 19.7809 34.3521H44.1301C44.2485 34.3527 44.3617 34.4 44.4454 34.4837C44.5291 34.5674 44.5763 34.6807 44.577 34.799V44.5536C44.5753 44.6717 44.5278 44.7844 44.4443 44.8678C44.3609 44.9513 44.2481 44.9989 44.1301 45.0006ZM36.9691 44.1054H43.6858V35.2433H20.2188V44.1042H26.9355V42.9416C26.9355 41.6116 27.4638 40.336 28.4043 39.3956C29.3447 38.4551 30.6203 37.9268 31.9504 37.9268C33.2804 37.9268 34.5559 38.4551 35.4964 39.3956C36.4368 40.336 36.9653 41.6116 36.9653 42.9416V44.1042L36.9691 44.1054Z" fill="#070707"/>
<path d="M30.3698 35.2459H22.7606C22.6424 35.2452 22.5293 35.1979 22.4458 35.1142C22.3624 35.0305 22.3153 34.9172 22.3149 34.799V27.191C22.3153 27.0728 22.3624 26.9595 22.4458 26.8758C22.5293 26.7921 22.6424 26.7448 22.7606 26.7441H30.3698C30.4881 26.7448 30.6014 26.7921 30.6851 26.8758C30.7687 26.9594 30.8161 27.0727 30.8167 27.191V34.799C30.8174 34.8578 30.8063 34.9163 30.7841 34.9708C30.7619 35.0253 30.729 35.0749 30.6874 35.1165C30.6457 35.1582 30.5962 35.191 30.5417 35.2133C30.4871 35.2355 30.4287 35.2466 30.3698 35.2459ZM23.214 34.352H29.9306V27.6354H23.214V34.352Z" fill="#070707"/>
<path d="M41.4601 35.2459H33.8522C33.7338 35.2456 33.6203 35.1983 33.5365 35.1146C33.4528 35.0308 33.4056 34.9174 33.4053 34.799V27.191C33.4056 27.0726 33.4528 26.9591 33.5365 26.8754C33.6203 26.7917 33.7338 26.7445 33.8522 26.7441H41.4601C41.5786 26.7445 41.692 26.7917 41.7757 26.8754C41.8595 26.9591 41.9066 27.0726 41.907 27.191V34.799C41.9073 34.8577 41.8961 34.916 41.8737 34.9704C41.8514 35.0248 41.8185 35.0742 41.7769 35.1157C41.7353 35.1573 41.6859 35.1902 41.6315 35.2125C41.5772 35.2349 41.5189 35.2462 41.4601 35.2459ZM34.3004 34.352H41.0171V27.6354H34.3004V34.352Z" fill="#070707"/>
<path d="M41.4617 27.6431H22.7726C22.6542 27.6427 22.5407 27.5956 22.4569 27.5118C22.3732 27.4281 22.326 27.3146 22.3257 27.1962V24.0768C22.326 23.9584 22.3732 23.8449 22.4569 23.7611C22.5407 23.6774 22.6542 23.6302 22.7726 23.6299H41.4656C41.5838 23.6306 41.6969 23.6779 41.7804 23.7616C41.8638 23.8453 41.9108 23.9586 41.9112 24.0768V27.1962C41.911 27.255 41.8993 27.3133 41.8766 27.3676C41.8539 27.4219 41.8208 27.4712 41.779 27.5127C41.7373 27.5542 41.6878 27.5871 41.6334 27.6095C41.5789 27.6318 41.5206 27.6433 41.4617 27.6431ZM23.2156 26.7493H41.0199V24.525H23.2143L23.2156 26.7493Z" fill="#070707"/>
<path d="M25.9553 24.0174H24.6895L31.6076 17.1005C31.6918 17.017 31.8055 16.9702 31.9241 16.9702C32.0426 16.9702 32.1564 17.017 32.2405 17.1005L39.1561 24.0174H37.8942L31.9241 18.0486L25.9553 24.0174Z" fill="#070707"/>
</g>
<defs>
<clipPath id="clip0_454_171">
<rect width="31" height="31" fill="white" transform="translate(16 16)"/>
</clipPath>
</defs>
</svg>
