<svg width="86" height="86" viewBox="0 0 86 86" fill="none" xmlns="http://www.w3.org/2000/svg">
<g filter="url(#filter0_d_717_157)">
<circle cx="43" cy="41" r="31" fill="white"/>
<circle cx="43" cy="41" r="30.5" stroke="#1CABE2" stroke-dasharray="4 4"/>
</g>
<g clip-path="url(#clip0_717_157)">
<path d="M53.749 51.0001H33.2535C32.3913 50.9989 31.5649 50.6598 30.9552 50.0574C30.3456 49.4549 30.0025 48.6382 30.0012 47.7861V34.8993C30.0025 34.0473 30.3456 33.2305 30.9552 32.6281C31.5649 32.0256 32.3913 31.6866 33.2535 31.6853H37.1611L38.8971 28.2542C38.9353 28.1788 38.994 28.1153 39.0666 28.071C39.1392 28.0266 39.2229 28.0032 39.3082 28.0032H47.6911C47.7765 28.0031 47.8602 28.0265 47.9328 28.0709C48.0055 28.1152 48.0641 28.1787 48.1023 28.2542L49.8382 31.6853H53.749C54.6111 31.6866 55.4376 32.0256 56.0472 32.6281C56.6569 33.2305 56.9999 34.0473 57.0012 34.8993V47.7861C56.9999 48.6382 56.6569 49.4549 56.0472 50.0574C55.4376 50.6598 54.6111 50.9989 53.749 51.0001ZM33.2535 32.5895C32.6346 32.5911 32.0416 32.8351 31.6045 33.2681C31.1674 33.7011 30.9218 34.2877 30.9217 34.8993V47.7861C30.9226 48.3972 31.1686 48.9831 31.6056 49.4154C32.0426 49.8477 32.6351 50.0913 33.2535 50.0929H53.749C54.3681 50.0921 54.9617 49.8487 55.3995 49.4161C55.8373 48.9834 56.0836 48.3968 56.0844 47.7849V34.8993C56.0836 34.2874 55.8373 33.7008 55.3995 33.2682C54.9617 32.8355 54.3681 32.5921 53.749 32.5913H49.5578C49.4725 32.5913 49.3889 32.5678 49.3164 32.5235C49.2439 32.4791 49.1853 32.4157 49.1473 32.3402L47.4113 28.9091H39.5924L37.8564 32.3402C37.8184 32.4157 37.7598 32.4791 37.6873 32.5235C37.6148 32.5678 37.5311 32.5913 37.4459 32.5913L33.2535 32.5895ZM43.5012 47.7783C42.2129 47.7783 40.9536 47.4008 39.8824 46.6935C38.8113 45.9862 37.9764 44.9809 37.4834 43.8047C36.9903 42.6285 36.8613 41.3343 37.1126 40.0856C37.3639 38.837 37.9842 37.69 38.8951 36.7897C39.806 35.8895 40.9666 35.2763 42.2301 35.0279C43.4936 34.7795 44.8033 34.9068 45.9935 35.394C47.1837 35.8811 48.2011 36.706 48.9169 37.7645C49.6327 38.823 50.0149 40.0675 50.015 41.3406C50.0132 43.0474 49.3264 44.6838 48.1052 45.8908C46.8841 47.0978 45.2283 47.7768 43.5012 47.7789V47.7783ZM43.5012 35.8113C42.3946 35.8113 41.3128 36.1356 40.3927 36.7432C39.4726 37.3507 38.7555 38.2143 38.332 39.2246C37.9085 40.235 37.7977 41.3467 38.0136 42.4193C38.2295 43.4919 38.7624 44.4771 39.5449 45.2504C40.3274 46.0237 41.3243 46.5503 42.4097 46.7636C43.495 46.977 44.62 46.8675 45.6424 46.449C46.6648 46.0305 47.5386 45.3218 48.1534 44.4125C48.7682 43.5032 49.0964 42.4342 49.0964 41.3406C49.0944 39.8748 48.5043 38.4696 47.4554 37.4332C46.4065 36.3967 44.9845 35.8131 43.5012 35.8113Z" fill="#1CABE2"/>
</g>
<defs>
      <clipPath id="clip0_717_157">
<rect width="27" height="23" fill="white" transform="translate(30 28)"/>
</clipPath>
</defs>
</svg>
