<svg id="ic_art_parenting" xmlns="http://www.w3.org/2000/svg" width="54" height="52" viewBox="0 0 54 52">
  <rect id="Rectangle_509" data-name="Rectangle 509" width="40" height="38" fill="none"/>
  <g id="Group_2110" data-name="Group 2110" transform="translate(4.05 0)">
    <g id="Group_2108" data-name="Group 2108">
      <path id="Path_1078" data-name="Path 1078" d="M1051.825,532.39h-18.953c-.57,0-1.018-.84-1.018-1.41v-10.1a23.9,23.9,0,0,1-7.049-9.32,19.283,19.283,0,0,1-1.488-9.712c.713-6.129,3.26-11.252,8.223-14.88a22.009,22.009,0,0,1,17.23-3.759c12.181,2.229,15.189,13.072,18.714,24.592.441,1.438,1.011,2.132,1.452,3.531a2.075,2.075,0,0,1-.3,1.879,1.918,1.918,0,0,1-1.7.855h-5.247v5.1s.022-.426,0,0a5.988,5.988,0,0,1-2.115,4.374,7.431,7.431,0,0,1-5.493,1.488h-.972V531.8C1053.127,532.357,1052.395,532.39,1051.825,532.39Z" transform="translate(-1022.518 -481.536)" fill="#ff8d6b"/>
      <path id="Path_960" data-name="Path 960" d="M1053.295,533.161h-21.122a1.04,1.04,0,0,1-1.037-1.037V521.382a23.106,23.106,0,0,1-8.345-19.917,22.142,22.142,0,0,1,26.2-19.2c12.181,2.229,15.822,14.124,19.347,25.645.44,1.438.881,2.864,1.322,4.263a2.075,2.075,0,0,1-.3,1.879,1.918,1.918,0,0,1-1.7.855h-4.9v4.587a6.819,6.819,0,0,1-7.477,6.648h-.972v6A1.017,1.017,0,0,1,1053.295,533.161Zm-20.085-2.073h19.049V525.1a1.039,1.039,0,0,1,1.037-1.037h2.112a4.877,4.877,0,0,0,3.706-1.166,4.731,4.731,0,0,0,1.594-3.447v-5.6a1.04,1.04,0,0,1,1.037-1.037h5.935l.013-.013c-.453-1.412-.894-2.851-1.335-4.289-3.343-10.911-6.8-22.211-17.74-24.206a20.043,20.043,0,0,0-23.74,17.364,21,21,0,0,0,7.957,18.388,1.045,1.045,0,0,1,.4.816v10.211Z" transform="translate(-1022.699 -481.861)"/>
    </g>
    <g id="Group_2109" data-name="Group 2109" transform="translate(9.858 7.978)">
      <path id="Path_1077" data-name="Path 1077" d="M1041.574,507.533a1.027,1.027,0,0,1-.518-.13c-8.6-5.157-9.518-7.972-9.79-11.043-.207-2.345.273-4.41,1.958-5.874a4.79,4.79,0,0,1,2.585-1.332c.479-.091,1.371.464,1.85.477a4.149,4.149,0,0,1,.674.052c1.879.22,2.4-.829,3.192.052.791-.881,2.352-.752,4.231-.972,2.669-.324,4.174.174,5.56,2.506,1.659,2.8,1.248,6.1-1.253,9.555a21.258,21.258,0,0,1-5.8,5.326c-.713.492-1.28.722-2.071,1.2A1.069,1.069,0,0,1,1041.574,507.533Z" transform="translate(-1029.986 -487.789)" fill="#ffd2c4"/>
      <path id="Path_961" data-name="Path 961" d="M1041.844,508.792a1.026,1.026,0,0,1-.518-.13c-8.6-5.157-10.717-9.9-10.989-12.971a6.9,6.9,0,0,1,5.494-7.542,6.752,6.752,0,0,1,1.438-.13,4.149,4.149,0,0,1,.674.052,4.967,4.967,0,0,0,7.8,0,6.81,6.81,0,0,1,6.674,3.291c1.659,2.8,1.179,6.388-1.322,9.848a25.992,25.992,0,0,1-6.388,5.948c-.713.492-1.451.972-2.242,1.451A1.069,1.069,0,0,1,1041.844,508.792Zm-4.665-18.7a4.38,4.38,0,0,0-.933.091,4.845,4.845,0,0,0-3.836,5.326c.181,2.073,1.659,6.246,9.473,11.053.622-.376,1.166-.739,1.672-1.088a24.139,24.139,0,0,0,5.87-5.43c2.008-2.8,2.462-5.559,1.244-7.619a4.758,4.758,0,0,0-4.639-2.294h-.013a3.775,3.775,0,0,0-3.214,2.138,1.028,1.028,0,0,1-.933.6h0a1.028,1.028,0,0,1-.933-.6,3.787,3.787,0,0,0-3.214-2.151l-.441-.039A.326.326,0,0,1,1037.179,490.094Zm8.708-.985Z" transform="translate(-1030.306 -488.018)"/>
    </g>
  </g>
</svg>
